<svg width="306" height="250" viewBox="0 0 306 250" fill="none" xmlns="http://www.w3.org/2000/svg">
<path d="M163.77 141.512L161.682 145.098L155.742 141.672L157.829 138.087C159.328 135.464 161.094 135.09 162.86 136.106C164.626 137.123 165.268 138.889 163.77 141.512ZM181.056 113.093C176.347 110.364 172.921 112.183 170.781 115.93L169.175 118.713L182.394 126.366L184 123.583C186.194 119.837 185.766 115.823 181.056 113.093ZM119.937 222.754L109.769 220.667L116.673 228.427L119.937 222.754ZM153.601 164.365L143.432 162.277L150.336 170.038L153.601 164.365ZM88.0398 211.676L91.3045 206.003L81.1359 203.915L88.0398 211.676ZM305.81 249.781H39.926L172.868 19.5415L305.81 249.781ZM138.99 92.2742L163.02 106.136L166.339 100.409L147.607 89.9193L169.282 95.3783L173.51 88.0462L157.829 71.8833L176.454 82.9618L179.772 77.1818L155.742 63.3203L150.176 72.9537L165.322 88.1532L144.663 82.5872L138.99 92.2742ZM127.109 112.879L151.139 126.741L161.201 109.293L155.795 106.189L149.105 117.803L144.877 115.395L150.283 106.029L145.145 103.085L139.739 112.451L135.726 110.15L142.201 98.9641L136.903 95.9135L127.109 112.879ZM112.391 138.354L136.421 152.216L139.793 146.329L130.374 140.87L135.886 131.29L145.305 136.749L148.677 130.862L124.701 117.054L121.329 122.941L130.534 128.239L125.022 137.819L115.816 132.521L112.391 138.354ZM99.4394 160.779L104.845 163.883L108.805 157.032L127.43 167.79L130.802 161.903L112.177 151.145L116.137 144.295L110.732 141.191L99.4394 160.779ZM84.6681 186.308L108.698 200.169L111.963 194.55L94.4622 184.434L116.726 186.308L121.811 177.477L97.7804 163.615L94.4622 169.342L111.963 179.457L89.7525 177.53L84.6681 186.308ZM91.8932 216.385L97.0311 207.448L103.721 208.839L107.36 202.577L78.4599 197.118L73.8037 205.2L92.9101 227.571L96.3889 221.523L91.8932 216.385ZM135.993 219.275L107.093 213.816L102.437 221.898L121.543 244.269L125.022 238.221L120.473 233.137L125.61 224.199L132.3 225.591L135.993 219.275ZM152.745 190.268L131.926 170.787L128.447 176.835L145.038 191.606L123.63 185.184L119.509 192.302L135.726 207.715L114.746 200.597L111.16 206.805L138.401 215.154L143.379 206.484L129.892 193.533L147.767 198.885L152.745 190.268ZM169.657 160.939L140.756 155.48L136.1 163.562L155.207 185.933L158.685 179.885L154.136 174.801L159.274 165.863L165.964 167.255L169.657 160.939ZM182.02 139.532L175.811 135.946C173.243 134.447 171.155 134.126 169.229 136.535C169.443 134.073 168.64 131.504 165.536 129.738C160.398 126.741 155.849 129.31 153.119 134.073L146.965 144.67L170.995 158.531L174.366 152.644L166.071 147.827L168.64 143.385C170.031 141.03 171.209 141.084 173.082 142.154L178.594 145.365L182.02 139.532ZM184.535 107.153C176.828 102.71 169.71 105.44 165.643 112.451L160.291 121.656L184.321 135.518L189.673 126.312C193.687 119.355 192.135 111.541 184.535 107.153ZM204.016 102.282C206.96 97.198 206.692 91.4179 201.715 88.5278C197.701 86.2265 193.847 87.6715 190.422 91.3108L188.442 93.4516C186.729 95.2177 185.605 96.1276 184.375 95.4318C183.037 94.629 183.358 92.8629 184.321 91.1503C185.82 88.5278 187.8 87.8856 189.887 87.8321L188.549 81.3027C185.231 81.7844 181.645 83.7111 179.13 88.0462C176.4 92.7559 176.079 98.4289 181.056 101.319C184.696 103.406 188.71 102.71 192.242 98.8035L194.276 96.6092C196.149 94.5755 197.433 93.9868 198.557 94.629C200.002 95.4318 199.895 97.305 198.771 99.2852C197.059 102.229 194.115 103.406 191.225 103.406L192.777 109.775C197.38 109.454 201.447 106.778 204.016 102.282Z" fill="#21261A"/>
<path d="M25.5353 219.529C27.4186 216.267 31.894 212.617 37.5118 215.861C42.7672 218.895 43.4332 224.354 40.4408 229.536C36.7578 235.915 30.4987 236.796 22.8874 232.401C14.0802 227.316 12.6545 221.081 16.1073 215.1C19.4764 209.265 23.973 209.01 26.753 209.552L26.0383 216.147C24.7417 215.881 22.5973 215.996 21.3627 218.135C20.128 220.273 20.558 222.793 24.4918 225.354C23.9919 223.374 24.5099 221.305 25.5353 219.529ZM35.1589 226.632C36.2052 224.82 35.8712 222.887 33.9503 221.778C32.0656 220.69 30.2403 221.424 29.2149 223.2C28.1267 225.085 28.4035 227.033 30.2882 228.121C32.1882 229.266 34.0707 228.517 35.1589 226.632ZM33.976 185.073L39.3038 188.149L35.3697 194.963L53.8179 205.614L50.4697 211.413L32.0216 200.762L28.1084 207.539L22.7805 204.463L33.976 185.073ZM62.7355 190.169L59.3873 195.968L35.6113 182.24L38.9595 176.441L48.0567 181.694L53.5184 172.234L44.4212 166.982L47.7693 161.183L71.5453 174.91L68.1972 180.709L58.8825 175.331L53.4208 184.791L62.7355 190.169ZM91.4337 140.463L87.8554 146.661L81.2428 145.308L76.1369 154.151L80.615 159.201L77.1622 165.182L58.241 143.046L62.8447 135.072L91.4337 140.463ZM65.373 141.993L72.1856 149.695L75.4292 144.078L65.373 141.993ZM96.0373 117.591L78.7127 107.589L81.9772 101.935L105.753 115.662L100.71 124.397L78.6771 122.549L96.0016 132.552L92.779 138.133L69.003 124.406L74.0462 115.671L96.0373 117.591ZM111.384 91.0101L94.0598 81.0074L97.3243 75.3534L121.1 89.0808L116.057 97.8156L94.0242 95.9679L111.349 105.97L108.126 111.552L84.3502 97.8246L89.3933 89.0898L111.384 91.0101ZM129.653 75.1043C125.531 82.2444 119.92 83.2575 113.07 79.3025L99.5508 71.4971L102.899 65.6981L115.947 73.2314C119.535 75.3031 122.459 75.0099 124.217 71.9654C125.953 68.9572 124.766 66.2421 121.178 64.1705L108.13 56.6371L111.479 50.8381L124.998 58.6435C131.848 62.5985 133.755 68.0005 129.653 75.1043ZM150.084 38.8814L146.505 45.0791L139.893 43.7258L134.787 52.5693L139.265 57.6195L135.812 63.5997L116.891 41.4636L121.495 33.49L150.084 38.8814ZM124.023 40.4106L130.836 48.1133L134.079 42.4955L124.023 40.4106ZM131.001 17.0248L149.413 27.6552L155.189 17.6519L160.553 20.7489L151.429 36.5513L127.653 22.8238L131.001 17.0248Z" fill="#21261A"/>
</svg>
