<svg width="1920" height="1080" viewBox="0 0 1920 1080" fill="none" xmlns="http://www.w3.org/2000/svg">
<path d="M1449.1 860.1C1344.5 665.2 1147.1 297.9 1045.2 108.1C1037.6 94.8997 1030.5 76.0997 1016 68.5997C1000.3 60.4997 977.1 73.6997 960.6 77.1997C937.4 83.2997 913.2 76.8997 889.9 77.3997C858 76.3997 845 87.8997 828.5 114.8C814.2 138.1 800.1 161.4 785.9 184.6C717.3 297.2 648.6 409.7 579.9 522.4C553.9 564.9 528 607.5 502.2 649.8C489.9 670 476.4 690.1 466.8 711.7C454.4 738.6 451.4 769.1 467 794.8C485 822.6 500.6 829.3 505.8 864.2C509.7 888.6 527.5 893.7 549.8 894C566.4 894.4 581.6 895 597.2 895.4C836 902.2 1176.8 911.9 1412.2 918.6C1429.3 918.3 1453.4 922.8 1462.6 907.3C1465.9 900.3 1464.2 892.6 1461.6 885.4C1458.5 877.1 1453.3 868 1449.3 860.5V860.3L1449.1 860.1Z" fill="#E3DDCA"/>
<path d="M968.4 520.4L961.7 531.2L943.8 520.2L950.5 509.4C955.3 501.5 960.7 500.5 966 503.8C971.3 507.1 973.1 512.5 968.3 520.4H968.4ZM1023.7 435C1009.5 426.3 998.9 431.5 992 442.8L986.9 451.2L1026.7 475.7L1031.8 467.3C1038.8 456 1037.9 443.7 1023.7 435ZM827.6 765.1L796.7 757.9L817.1 782.2L827.6 765.1ZM935.4 589.4L904.5 582.2L924.9 606.5L935.4 589.4ZM731 728.5L741.5 711.4L710.6 704.2L731 728.5ZM1393.5 863.4L580.7 840.9L1006.6 148.3L1393.5 863.4ZM896.9 367.8L969.2 412.2L979.8 395L923.4 361.3L989.2 379.8L1002.7 357.7L956.1 307L1012.1 342.4L1022.7 325L950.4 280.6L932.6 309.6L977.6 357.3L914.9 338.5L896.7 367.6L896.9 367.8ZM858.8 429.8L931.1 474.2L963.3 421.7L947 411.8L925.6 446.7L912.9 439L930.2 410.8L914.7 401.4L897.4 429.6L885.3 422.2L906 388.6L890.1 378.8L858.7 429.8H858.8ZM811.6 506.4L883.9 550.8L894.7 533.1L866.4 515.6L884.1 486.8L912.4 504.3L923.2 486.6L851.1 442.4L840.3 460.1L868 477.1L850.3 505.9L822.6 488.9L811.6 506.4ZM770.1 573.9L786.4 583.8L799.1 563.2L855.1 597.7L865.9 580L809.9 545.5L822.6 524.9L806.3 515L770.1 573.9ZM722.8 650.7L795.1 695.1L805.6 678.2L753 645.8L820.9 653.4L837.2 626.8L764.9 582.4L754.3 599.6L806.9 632L739.2 624.2L722.9 650.6L722.8 650.7ZM742.4 743.2L758.9 716.3L779.2 721.1L790.9 702.3L703 683.2L688.1 707.5L744.6 777.5L755.7 759.3L742.4 743.2ZM876.9 755.8L789 736.7L774.1 761L830.6 831L841.7 812.8L828.2 796.9L844.7 770L865 774.8L876.8 755.8H876.9ZM930.6 668.5L868.6 607.2L857.5 625.4L907 672L842.1 650.6L828.9 672L877.2 720.5L813.7 697L802.2 715.7L884.8 743.5L900.8 717.4L860.7 676.7L914.9 694.6L930.8 668.7L930.6 668.5ZM984.8 580.3L896.9 561.2L882 585.5L938.5 655.5L949.6 637.3L936.1 621.4L952.6 594.5L972.9 599.3L984.7 580.3H984.8ZM1024.4 515.9L1005.7 504.4C998 499.6 991.6 498.4 985.5 505.6C986.4 498.1 984.1 490.2 974.8 484.5C959.3 474.9 945.2 482.4 936.5 496.7L916.8 528.6L989.1 573L999.9 555.3L975 539.9L983.2 526.5C987.7 519.4 991.2 519.7 996.9 523.1L1013.5 533.4L1024.5 515.9H1024.4ZM1034.8 417.1C1011.6 402.9 989.6 410.6 976.6 431.7L959.5 459.4L1031.8 503.8L1048.9 476.1C1061.8 455.2 1057.7 431.2 1034.8 417.1ZM1094.8 403.9C1104.2 388.6 1103.9 370.9 1088.9 361.7C1076.8 354.3 1064.9 358.4 1054.1 369.3L1047.9 375.7C1042.5 381 1039 383.6 1035.3 381.4C1031.3 378.8 1032.4 373.5 1035.5 368.3C1040.3 360.4 1046.4 358.6 1052.8 358.6L1049.3 338.5C1039.1 339.7 1028 345.3 1019.9 358.3C1011.2 372.5 1009.7 389.8 1024.7 399C1035.7 405.7 1048 403.9 1059.1 392.3L1065.5 385.8C1071.4 379.7 1075.4 378.1 1078.8 380.1C1083.1 382.7 1082.7 388.4 1079.1 394.4C1073.6 403.3 1064.5 406.6 1055.7 406.4L1059.9 426C1074 425.4 1086.7 417.6 1094.9 404L1094.8 403.9Z" fill="#8C001C"/>
<path d="M539.2 747.2C545.2 737.4 559.2 726.6 576.1 737C591.9 746.7 593.5 763.5 583.9 779.1C572.1 798.3 552.9 800.5 530 786.4C503.5 770.1 499.7 750.9 510.7 732.9C521.5 715.3 535.3 714.9 543.7 716.8L541 736.9C537.1 736 530.5 736.1 526.5 742.6C522.5 749 523.6 756.8 535.5 764.9C534.1 758.8 535.9 752.5 539.2 747.2ZM568.1 769.7C571.5 764.2 570.6 758.3 564.8 754.8C559.1 751.3 553.5 753.4 550.2 758.7C546.7 764.4 547.4 770.3 553.1 773.8C558.8 777.5 564.6 775.3 568.1 769.7ZM568 642.6L584 652.5L571.4 673L626.9 707.1L616.2 724.5L560.7 690.4L548.2 710.8L532.2 700.9L568.1 642.6H568ZM655.5 660.6L644.8 678L573.3 634L584 616.6L611.4 633.4L628.9 604.9L601.5 588.1L612.2 570.7L683.7 614.7L673 632.1L645 614.9L627.5 643.4L655.5 660.6ZM747.4 511.1L735.9 529.7L715.8 525L699.4 551.6L712.7 567.4L701.6 585.4L645.6 516.1L660.3 492.1L747.2 511L747.4 511.1ZM667.6 513.6L687.8 537.7L698.2 520.8L667.6 513.6ZM763.4 441.6L711.3 409.6L721.8 392.6L793.3 436.6L777.1 462.9L709.9 455.4L762 487.4L751.7 504.2L680.2 460.2L696.4 433.9L763.5 441.6H763.4ZM812.6 361.6L760.5 329.6L771 312.6L842.5 356.6L826.3 382.9L759.1 375.4L811.2 407.4L800.9 424.2L729.4 380.2L745.6 353.9L812.7 361.6H812.6ZM869.8 314.5C856.6 336 839.4 338.6 818.8 325.9L778.1 300.9L788.8 283.5L828 307.6C838.8 314.2 847.8 313.6 853.4 304.4C859 295.4 855.6 287 844.8 280.3L805.6 256.2L816.3 238.8L857 263.8C877.6 276.5 883 293.1 869.8 314.5ZM935.3 205.5L923.8 224.1L903.7 219.4L887.3 246L900.6 261.8L889.5 279.8L833.5 210.5L848.3 186.5L935.2 205.4L935.3 205.5ZM855.5 208L875.7 232.1L886.1 215.2L855.5 208ZM878.8 137.1L934.2 171.2L952.7 141.1L968.8 151L939.6 198.5L868.1 154.5L878.8 137.1Z" fill="#8C001C"/>
</svg>
