<svg width="1920" height="1080" viewBox="0 0 1920 1080" fill="none" xmlns="http://www.w3.org/2000/svg">
<path d="M959 1044.9C1237.85 1044.9 1463.9 818.849 1463.9 540C1463.9 261.152 1237.85 35.1001 959 35.1001C680.151 35.1001 454.1 261.152 454.1 540C454.1 818.849 680.151 1044.9 959 1044.9Z" fill="#D17DD0"/>
<path d="M860.1 602.7C863.2 538.5 821.3 535.7 817.6 462.7C816 430.4 816.4 399.5 816.8 365.5C826.4 378.6 837.1 388.4 850.7 390.5C867.2 393 880.9 387.7 892.2 375.6C910.2 396.4 940 396.2 958.4 375.6C971.8 393.3 990.3 398.9 1013.5 396.9C983 420.7 964.1 451.5 960.8 489.5C960.4 494.4 967.2 499.7 971.1 500C997.4 501.9 964.8 440.3 1055.5 399.2C1060.5 396.9 1064 391.4 1064.2 386.6C1064.4 382.7 1059.6 374.9 1055 374.8H1000.8C984.1 374.7 972 363.5 970 347.6C968.1 333 979.3 315.3 996.2 315.3H1090.9C1112.1 315.1 1129.2 333.1 1129.2 354.3V436.9C1129.1 455.9 1121.9 474.4 1111.2 489.8L1073.2 544.8C1061.9 561.1 1056.5 581 1057.5 601.9L1071.5 877C1072.5 897.1 1056.3 910.8 1037.6 910.8H877.4C859.7 910.8 844.8 896.2 845.8 878L853.1 744.8L860.1 602.7Z" fill="#8C001C"/>
<path d="M1335.8 729.5C1278.9 776.9 1195.6 771.2 1143.7 719.4C1120.1 695.9 1106.5 664.5 1105.8 630.4L1222.4 339.5C1223.2 337.6 1224 334.2 1223.6 333C1223.2 331.8 1220.2 329 1218.6 328.2L1165.6 303.8C1145.6 294.6 1125.7 288.5 1104.3 281.8L1104.7 229.5C1148.2 238.6 1186.3 255.7 1225.2 274.7C1250.9 287.3 1277.1 294.2 1305.7 294.5C1320.4 294.6 1330.7 306 1331.4 319.1C1332 331.9 1324.4 345.8 1309.6 346.8C1296.9 347.6 1284.8 346 1271 345.2L1384.3 629.6C1384 669.2 1366.7 703.9 1335.8 729.6V729.5ZM1349.9 619.8L1322.7 549.6L1245.6 359.2L1168.7 547.3L1140.3 619.6H1350L1349.9 619.8Z" fill="#8C001C"/>
<path d="M540.9 673.4C535.8 660.6 531.5 643.2 534.7 631C541.7 604.1 552.6 580.8 562.8 555.2L646.2 345.3L615 347.3C600 348.2 588.3 338.3 586.3 324.5C584.5 312 592.3 295.7 607.6 295.3C637.9 294.4 665.4 288.3 693.1 274.7C732.5 255.4 772.1 238.3 816.6 228.3C814 246.3 813.3 263 813.4 281.3C796.8 287.1 779.6 291.6 763.6 299L692.1 331.9L811.3 629.8C810.5 677.1 785.6 716.6 746.5 740.5C672.2 785.8 573.7 756.2 540.9 673.6V673.4ZM777 619.8L742.3 532.1L672 359.7L609.2 512.7L566.8 620H777V619.8ZM735.4 715C760.3 698.5 777.2 675.5 782.7 646.8H562.4C564.1 664.1 572.4 679.4 583.6 692.7C621.5 738 685.4 748 735.4 715Z" fill="#8C001C"/>
<path d="M947.9 344.2C947.9 359.3 938.6 369.6 925.1 369.4C912.4 369.2 902.6 359.1 902.6 345V216.1C902.7 203.4 914.8 194.8 924.8 194.5C937.6 194 947.6 204.5 947.6 217.9L947.9 344.3V344.2Z" fill="#8C001C"/>
<path d="M880.6 346.5C880.6 359.6 870.7 369.2 858.8 369.3C847.5 369.4 835.9 360.8 835.9 347.6V246.3C835.9 233.3 847.5 224 858.8 224.1C870.6 224.3 880.7 233.7 880.7 246.8V346.4L880.6 346.5Z" fill="#8C001C"/>
<path d="M1015.2 292.5C998.1 291.9 984.4 292.3 969.5 300.6L969.9 189C969.9 177.6 983.1 169.2 992.3 169.2C1001.3 169.2 1014.6 177.8 1014.7 189.1L1015.2 292.5Z" fill="#8C001C"/>
<path d="M1082.6 292.3L1036.7 292.6L1037.1 210.2C1037.1 197.6 1049.3 189.3 1059.8 189.3C1070 189.3 1081.9 198.3 1082 210.4L1082.6 292.4V292.3Z" fill="#8C001C"/>
<path d="M1215.1 506.2C1221.3 524.4 1238.4 530.8 1255 526.7C1270.7 522.8 1279.8 507.5 1278.2 490.9C1276.6 475.4 1263.2 462.8 1246 462.5C1234.7 462.3 1224.5 468 1218.9 475.8C1213.3 483.6 1211.5 495.5 1215.2 506.2H1215.1ZM1248.8 561C1270.7 562.6 1285.3 576.6 1289 597C1290.4 604.8 1297.9 609.3 1304.5 608.5C1312.2 607.5 1317.2 600.3 1315.9 591.8C1310.4 556.6 1279.4 532.9 1244.1 533.9C1209.9 534.8 1181.6 557.6 1175.4 591.1C1173.8 599.8 1177.8 607 1185.8 608.6C1192.6 609.9 1200.3 605.7 1201.6 597.6C1205.3 574.6 1224.2 559.2 1248.9 561H1248.8Z" fill="#8C001C"/>
<path d="M663.2 463.8C644.2 469.1 635 489 641.4 506.2C647.2 522 664.4 531.7 681.6 526.8C698.3 522 708.5 503.6 703.9 487C699.1 469.8 682.2 458.6 663.3 463.9L663.2 463.8ZM673.9 561.3C696.4 561.9 712.2 576.2 716.3 597.2C717.8 604.9 724.6 609.6 731.6 608.6C754.4 605.3 738.6 565.3 717.7 549.5C692.2 530.2 657.8 528.8 631.4 546.3C614.6 557.4 603.8 574.4 602.4 594.3C601.8 602.3 607.8 608.2 614.6 608.7C622.2 609.3 627.7 604.3 629.1 596.5C632.9 574.7 651 560.7 673.9 561.4V561.3Z" fill="#8C001C"/>
<path d="M1248.8 561C1224.1 559.2 1205.2 574.6 1201.5 597.6C1200.2 605.7 1192.5 609.9 1185.7 608.6C1177.7 607.1 1173.7 599.8 1175.3 591.1C1181.5 557.5 1209.7 534.8 1244 533.9C1279.4 532.9 1310.3 556.6 1315.8 591.8C1317.1 600.3 1312.2 607.6 1304.4 608.5C1297.8 609.3 1290.3 604.8 1288.9 597C1285.3 576.5 1270.6 562.6 1248.7 561H1248.8Z" fill="#8C001C"/>
<path d="M1215.1 506.2C1211.5 495.5 1212.8 484.4 1218.8 475.8C1224.8 467.2 1234.6 462.3 1245.9 462.5C1263.2 462.8 1276.6 475.4 1278.1 490.9C1279.8 507.5 1270.7 522.8 1254.9 526.7C1238.3 530.8 1221.2 524.3 1215 506.2H1215.1Z" fill="#8C001C"/>
<path d="M673.9 561.3C651 560.7 633 574.6 629.1 596.4C627.7 604.3 622.2 609.2 614.6 608.6C607.8 608.1 601.8 602.1 602.4 594.2C603.8 574.3 614.5 557.4 631.4 546.2C657.8 528.7 692.3 530.1 717.7 549.4C738.5 565.2 754.4 605.2 731.6 608.5C724.6 609.5 717.9 604.8 716.3 597.1C712.2 576.1 696.4 561.8 673.9 561.2V561.3Z" fill="#8C001C"/>
<path d="M663.2 463.8C682.1 458.5 699 469.8 703.8 486.9C708.4 503.5 698.2 521.8 681.5 526.7C664.4 531.7 647.2 521.9 641.3 506.1C634.9 488.9 644.1 469.1 663.1 463.7L663.2 463.8Z" fill="#8C001C"/>
</svg>
