<svg width="1920" height="1080" viewBox="0 0 1920 1080" fill="none" xmlns="http://www.w3.org/2000/svg">
<path d="M925.2 1012.6C1186.21 1012.6 1397.8 801.01 1397.8 540C1397.8 278.99 1186.21 67.3999 925.2 67.3999C664.19 67.3999 452.6 278.99 452.6 540C452.6 801.01 664.19 1012.6 925.2 1012.6Z" fill="#E3DDCA"/>
<path d="M776.2 755.6L818.5 752.4C828.4 751.6 834 771.6 836.2 779.6C846.5 817.4 793.5 799.9 767.4 875.5L655.4 874.5C669.4 832.4 700.6 830.3 671.4 783.8C663.1 770.6 628.7 795.5 604.1 778C598.8 774.2 599.6 758 596.7 752.2C587.6 733.8 585.1 724.5 588.1 703.4L573.8 694.4C561.6 686.7 597.9 660.5 597.9 646.3L598.2 601.5C588 589.7 579 578.1 584.3 561.3C591.8 537.3 609.8 520 632.8 509.2C685.6 484.4 745.5 486.3 794.7 517C843.8 487.2 906.2 486.8 949.9 524.3C988.3 557.2 997.3 612.7 980.7 659C973.1 680.1 983.7 690.6 996.3 705.2C1010.7 721.9 995.8 749.4 977.7 758.8C955.9 770.1 931.7 767.2 912.6 753.6C895.5 741.4 879.3 715.4 885.7 693.6C901.6 686.3 916.7 675.7 916.8 654.8C916.8 644.9 910.7 633.6 901.2 630.8C891.5 627.9 881.2 633.8 873.3 642.5L849 629.1C817.2 611.5 797 582.6 790.4 544.1C762.4 560 755.8 590.5 759.3 619.8C762.2 643.6 738.2 654.5 734.8 667.2C733.7 671.4 743.3 674.3 748.8 681.3C750.7 683.7 746.7 693 747.5 696.2L752.6 716.5C754.3 723.2 758.6 730.9 758.2 737.9C757.7 747.4 764.9 756.4 776.1 755.6H776.2Z" fill="#21261A"/>
<path d="M1210 873.9L1091.8 875.3C1082.6 853.2 1069.5 835.4 1054.3 817C1049.6 811.2 1054.8 793 1059.6 787.8L1100.9 791.1C1126.1 793.1 1134 773.4 1138.4 754.3L1149.7 705.5C1152.2 694.6 1166.9 686.2 1156.5 671.7L1133.1 638.9C1148 595 1121.9 533.5 1082.5 507.3C1130.6 473.3 1261.5 490.5 1260.4 548.7C1260.3 556.5 1252.2 565.8 1245.6 573.3L1257.6 611.1C1259.7 617.5 1253.8 631.8 1255 638.1C1258.5 656.6 1279.9 667.7 1279.1 686.5C1278.9 691.1 1269 694.5 1261.9 696.5C1263.9 712.6 1260 727.3 1254.8 742.9C1252.9 748.6 1254.6 762.2 1250.7 766.9C1246.3 772.2 1234.3 776.7 1227 775.8L1189.2 771.2L1173.5 811.7C1186.6 832.3 1196.2 846.3 1209.9 873.8L1210 873.9Z" fill="#21261A"/>
<path d="M1120.4 757C1120 795.1 1059.8 762.3 1047.8 776.5C1044.7 780.1 1041.8 787.4 1039.8 793.8C1027.5 832.4 1060.2 830.5 1074.6 875L1029.1 874.8C1023.8 833.6 1004.9 801.5 968.7 779.8C1003.9 769.1 1028 734.5 1012.9 700.2C1009.3 692 998.7 683 992.5 674.2C1015.6 616.9 1005.5 555.4 959.2 509.5C1003.8 492 1058.8 501.2 1092 536.4C1118.9 564.9 1126.6 604.6 1117.3 641.7L1140.7 675.5C1144.1 680.5 1143.5 689.1 1139.3 691.7C1134 695 1128.6 697.5 1129.1 700L1131.6 712.6C1133.6 722.8 1120.5 747.2 1120.4 757.1V757Z" fill="#21261A"/>
<path d="M1204.3 481.5C1186.7 337 1064.5 231.8 922.6 233.1C780.5 234.4 661.2 341.8 646.4 485.7L617.3 499.2C626.3 308.2 806 169.8 993.6 212.5C1125.1 242.5 1223.7 355.4 1233 491.1L1204.3 481.6V481.5Z" fill="#21261A"/>
<path d="M1153.5 473.9C1133.1 361.7 1037 282.7 925 282.7C812.8 282.7 716.8 364 697.3 476.1L668.9 479.8C685.6 351.8 795.5 256.3 922.9 255C1051 253.6 1164.2 348.9 1181.2 476.1L1153.6 473.9H1153.5Z" fill="#21261A"/>
<path d="M1105.1 480.8C1087.4 394.8 1014.8 333.7 928.6 332.4C840.8 331.1 763.7 391.9 746.8 479.9L719.5 475C738.9 375.5 824.5 306.3 922.6 304.8C1021.8 303.2 1110.6 372 1131 472.6L1105.1 480.8Z" fill="#21261A"/>
<path d="M1056.8 496.2C1045.4 429.9 990.3 382.5 925.6 382.6C860.1 382.6 805.3 429.7 794.1 496.9C785 494.4 776.9 490.5 768.3 484.3C783.3 408.3 850.4 354.5 925.9 354.4C1000.6 354.4 1068.8 408.7 1082.3 484.8C1084.1 494.9 1067.1 500.9 1056.9 496.1L1056.8 496.2Z" fill="#21261A"/>
<path d="M1012.9 875.2L864.8 874.7C881.1 842.6 899.6 819.2 926.1 801.6C940.5 790.6 957.6 790.9 972.5 801.4C995.4 817.9 1009.1 842.4 1012.9 875.2Z" fill="#21261A"/>
</svg>
