<svg width="1920" height="1080" viewBox="0 0 1920 1080" fill="none" xmlns="http://www.w3.org/2000/svg">
<path d="M1478.1 364.6C1473.5 317.7 1461.2 277.3 1440.8 241.1C1385.8 136.3 1277.9 71.2998 1158.9 71.2998C1153.2 71.2998 1147.4 71.4998 1141.6 71.7998C1092.4 74.3998 1048.8 85.3998 1008.4 105.4C992.2 113.4 976.4 122.9 960.3 134.3C941.9 121.3 922.8 110.3 903.1 101.3C859.5 81.3998 812.9 71.3998 764.5 71.3998C716.1 71.3998 733.7 72.3998 718.2 74.3998C632.3 85.3998 556.4 130.3 504.5 201C449.9 275.4 428.1 370.7 444.7 462.5C449.3 488 455.3 515.6 468.3 545.1C469.9 548.7 471.7 552.2 473.8 555.5L547.4 673.1C548.5 674.9 549.7 676.6 550.9 678.2C587.2 727.3 623.1 768.7 662.9 813.8C726.5 885.8 791 951.3 862.7 1023.3C889.5 1050.2 924.3 1065.1 960.6 1065.1C996.9 1065.1 1032.4 1049.6 1058.2 1021.4C1135.9 945.3 1208.2 868.6 1279.2 786.7C1313.2 747.4 1341.2 713.3 1367.3 679.4C1368.8 677.5 1370.2 675.5 1371.4 673.5L1446.1 555.9C1449 551.3 1451.4 546.5 1453.4 541.5C1476.7 480.8 1485.1 421.4 1478.3 364.8L1478.1 364.6Z" fill="#8C001C"/>
<path d="M1120.7 321.1C1111.8 295.6 1089.7 279.7 1063.9 280.6C1038.8 281.4 1016.8 298.7 1009.7 324.3L947.5 547.7L893 427.3C879 396.4 844.8 383.3 814 396.3C804.8 402.1 795.6 409.2 789.9 418.8L734.6 512.2H542.6C533.3 491 528.7 470.4 524.6 447.9C500 311.4 587.3 172.8 728.4 154.8C818.6 143.3 895.4 174.8 959.6 239.9C1016 187 1067.1 156.9 1145.9 152.8C1239.5 147.8 1326.3 196.7 1369.5 279.9C1386.2 309 1394.1 339.5 1397.4 373.4C1403.2 420.6 1394.8 466.9 1377.4 512.1H1191.1L1120.8 321.1H1120.7Z" fill="#E3DDCA"/>
<path d="M723.6 759.9C685.8 717 650.6 676.7 616.1 629.9L768.1 629.2C786.5 629.2 805.5 620 816.1 606.2C822.1 598.3 826.1 590.6 831.7 581.9L907.2 751.2C917.8 775 940.4 788.4 965.4 786.5C988.8 784.7 1009.9 768.2 1016.9 743.1L1074.2 538.7L1096.7 593.3C1105.1 613.8 1124.2 628.7 1148.1 628.8L1302.6 629.8C1274.9 665.9 1247.2 699.2 1217.6 733.4C1147.7 814 1075.4 890.7 999.2 965.1C977.2 990.6 943.1 988.9 920.1 965.9C853.1 898.6 787.4 832.2 723.6 760V759.9Z" fill="#E3DDCA"/>
</svg>
