<svg width="1920" height="1080" viewBox="0 0 1920 1080" fill="none" xmlns="http://www.w3.org/2000/svg">
<path d="M1222.6 55.7002H697.5C575.003 55.7002 475.7 155.003 475.7 277.5V802.6C475.7 925.097 575.003 1024.4 697.5 1024.4H1222.6C1345.1 1024.4 1444.4 925.097 1444.4 802.6V277.5C1444.4 155.003 1345.1 55.7002 1222.6 55.7002Z" fill="#00B469"/>
<path d="M1128.2 852.8C1123.2 852.8 1119.8 856.8 1119.5 859.8C1119.2 862.9 1123 868.4 1127.2 868.4L1300.8 868.7C1315.1 868.7 1323.5 884.7 1322.5 896.6C1321.6 908.5 1311.4 921.1 1296.9 921.1L1109.6 921.4C1105.9 921.4 1101.9 925.6 1101.8 928.3C1101.6 932 1105 937.1 1109.5 937.1H1234.6C1249.1 937.1 1260.9 945.4 1261.7 959.7C1262.3 970.5 1253.6 986.7 1239 986.8L1035.4 987.6C995.1 987.8 959.4 976.4 925 956.7C880.8 931.4 866.8 933.9 816.1 934C830.3 921.9 835.8 906.4 836 887.9L837.1 790.6C854 808.1 895.8 827.4 913.5 808.5C919.3 802.2 921.6 793 920.5 784.3C916.4 752 913.7 721.4 917.9 689.2C980.6 639.6 1035.6 647.2 1109.7 648.5C1139.6 649 1168 646.7 1197.8 641.8C1214.1 639.2 1207.4 684.5 1171.4 699.4C1155 706.2 1137.6 709.8 1119.6 710.8L1058.9 714.1C1048.8 714.6 1044.6 718.7 1041.9 728.2C1030.9 767.8 999.8 796.2 959 801.8C955 802.3 950.7 807.8 951.2 810.8C951.8 815.2 956 817.5 961.1 818.3C1011.5 809.4 1043.5 778.3 1059 729.2L1295.3 729C1311.3 729 1321.7 741.9 1321.6 756C1321.5 769.4 1310.9 782.1 1295.1 782.1L1127.4 782.4C1123.8 782.4 1119.4 786.8 1119.2 789.5C1119 793.2 1123 798.2 1127.3 798.2L1229 797.9L1330.6 796.9C1342.6 796.8 1352.3 803.2 1357 812.3C1362.4 822.7 1361.5 835.3 1352.7 843.8C1346.3 850 1336.2 852.5 1326.7 852.5L1128.3 852.8H1128.2Z" fill="#E3DDCA"/>
<path d="M791.5 645.4L816.1 655.9C816.6 663.5 817.4 672.6 817.3 681L816.7 895.7C816.7 910.3 802.1 918.8 790.3 918.4C778.5 918 764.6 908.9 764.6 895.1L764.4 725.8C764.4 720.2 762 715.7 757.2 715.5C753.4 715.3 748.3 718.9 748.3 724L748.1 929C748.1 944 736.2 955.5 723.5 956.6C709.4 957.9 694.5 947.4 694.4 931.8L693.2 722C693.2 717.8 689.6 713.7 686.8 713.6C684.1 713.5 677.8 717.6 677.8 720.7L677.6 899.5C677.6 914.5 664.5 923.9 651.3 924C639.5 924 625.2 914.3 625.2 899.3L624.8 702.5C624.8 698.3 621.3 693.8 618.2 693.4C615.1 693 609.4 697.3 609.4 700.5V837.2C609.4 851 598.9 860.3 586.7 861.3C574.1 862.3 560.7 853.7 560.7 838.9L559.9 620.4C559.7 572.7 585.1 517 609.2 477.1C625.6 450.1 655.3 431.4 687.4 432.9C725 434.7 759.2 435.6 797.9 434.1C799.9 459.8 791.3 462 801.3 489.2C796.1 503.8 798.2 517.4 803.8 530.8C800.9 539 795.8 551.3 799.4 561.4C809 588.4 828.3 580.4 849.3 583C856.1 592.4 864.1 599 875 603.1C880.4 623 871.5 636.5 897.7 650.9L896.5 686.9C895.4 720.1 896.1 753.4 901.3 786.2C901.6 788.3 900.7 792.8 899.9 794.3C896.1 801.8 848 794.7 840 747.1C834.8 716 833 685.3 830.9 653.5C829.9 638 815.3 640.7 791.6 627.8C763.5 612.5 746.2 585.9 741.8 554.1C741.2 549.8 736.6 545.7 733.5 545.9C715 546.6 733.4 620.7 791.6 645.6L791.5 645.4Z" fill="#E3DDCA"/>
<path d="M1169.1 509.7C1169.1 505.1 1164 499.9 1158.6 499.8L1123.5 499.5L1123.8 478.3L1156.9 478.1C1163.1 478.1 1168.4 474.5 1168.8 468.8C1169.2 463.6 1165 457.5 1158.8 457.4L1123.6 457L1123.4 435.9L1158 435.5C1163.6 435.5 1168.7 430.8 1168.9 425.6C1169.1 420.4 1164.4 415 1158.7 415H1123.5C1123.5 414.9 1123.5 393.4 1123.5 393.4L1158.6 393.2C1164.6 393.2 1169.3 388.2 1169 382.7C1168.8 378.4 1163.8 372.1 1158.7 372.1L1123.6 371.8L1123.1 350.4C1122.7 332.8 1107.9 321.9 1089.5 324.4V291.7C1089.3 285 1086 279.4 1079.1 279.3C1074.9 279.3 1068.9 284.7 1068.8 289.8L1068.4 324.2L1046.3 323.8V289.7C1046.3 284.4 1041 279.3 1036.2 279.3C1031.2 279.3 1025.9 283.9 1025.8 289.6L1025.4 324.2H1003.2V285.8C1003.2 267.1 1009.5 250 1013.9 232.2C1015.6 225.3 1014.5 216.8 1018.3 210C1025.8 196.7 1033.4 184 1044.1 173.3C1060.6 156.9 1078.8 143.5 1101.5 134.6C1095.4 145.1 1087 151.4 1078.5 159C1055.3 179.7 1033.6 201.6 1020.5 231.2C1043.7 235.4 1066.4 232.2 1086.5 222C1132.5 198.7 1145.4 140.1 1144.6 92.2998C1094.5 100.4 1039.8 104 1010.8 149.6C997.9 169.9 996.8 192 999.4 215.7C1000.3 223.8 994.6 234.1 991.8 241.8C988.2 234.1 982.1 224.3 981.4 215.4C979.5 192.8 975.4 172.2 960.9 154.5C936 124.2 887.7 115.9 848.7 112.8C848.2 138.8 853.2 161.7 862.5 184.4C879.2 225 920.5 248.2 964 237.8C945 203.3 916.6 186.6 892.2 155.6C942.3 176.2 974.4 224 980.8 277.4C982.7 293.2 981.4 308 981.5 324.1H960.1L959.8 290.3C959.8 284.6 955.4 279.4 950 279.4C945.2 279.4 939.4 284 939.4 289.5L939.2 324.2H917.2L916.5 288.4C916.5 283.3 909.3 278.6 904.9 279.4C900.8 280.1 896.1 284.9 896.1 289.6L895.8 324.1C885.1 323.9 876.3 325.8 869.3 332.3C863.2 338.1 861.6 346.9 861.5 356.2L861.3 371.9L825.7 372.5C820.5 372.5 815.8 380.2 816.5 384.3C817.3 389.2 822.2 393.4 827.3 393.4H861.4V415L825.6 415.3C821.3 415.3 816.4 421.7 816.4 425.8C816.4 430 821.4 435.6 826.1 435.7L861.5 436.1V457.4L827.5 457.5C821.1 457.5 816.2 462.9 816.5 468.9C816.8 473.7 822 478.5 827.3 478.5H861.3L861.5 500H827.4C821 500 815.9 506.1 816.7 511.7C817.5 517.7 823.2 520.9 829.2 520.8H861.3V542.1L825.5 542.5C820.9 542.5 816.1 548.9 816.3 553C816.5 558.1 821.1 562.7 826.5 562.7L861.7 563.2C865 580.9 879 588.6 895.7 586.9L895.9 622.6C895.9 627.6 902.4 631.9 906.7 631.7C911.1 631.5 916.4 626.6 916.4 621.5L916.6 587L939 587.2V620.7C939 626.3 944.1 631.5 949.5 631.5C954 631.5 959.5 627 959.6 622.2L959.9 586.9H981.9C981.9 587 981.6 620.8 981.6 620.8C981.6 626.9 987 631.6 992.8 631.6C998.1 631.6 1002.7 626.4 1002.7 620.3V587H1025.2V618.7C1025.4 624.9 1028.4 630.5 1034.3 631.4C1039.6 632.2 1045.8 627.8 1045.8 621.8L1046.1 586.9H1068.2V620.6C1068.2 626.4 1073.4 631.6 1078.9 631.7C1084.2 631.7 1089.3 626.7 1089.3 620.6V586.8C1107.1 588.8 1119.8 579.3 1123.6 562.9H1158.1C1163.5 562.9 1168.4 557.8 1168.5 552.9C1168.5 547.5 1164 542.3 1158.2 542.3H1123.1C1123.1 542.2 1123.1 520.7 1123.1 520.7H1156.3C1163.1 520.7 1168.5 516.9 1168.6 509.9L1169.1 509.7ZM903.3 401.6C905 391.5 916.4 388.1 923.7 388.4C927.1 388.5 933.4 382.8 933.4 379.4L933.9 353.6L945.4 353.9L945.1 384.9L936.2 395.2C943 405.2 942.4 417.2 933.9 423.8C925.2 430.4 912.3 429.9 905.6 419.6C903.5 416.3 900 415.2 891.9 414.3L891.7 403.7L903.3 401.6ZM945.4 556.1L933.8 557.5L933.6 513L917.5 496.6L892.1 495.8L891.7 484.3C900.7 484.4 911.1 481.7 919.8 485.3C928.1 488.8 941.6 501.7 943.8 510.6C947.5 525.7 944.4 540.2 945.4 556V556.1ZM969 557.2V498.6L931.6 461.1L891.9 460.5L891.7 449.2H936.2C936.2 449.3 980.4 493.8 980.4 493.8V557.2L968.9 557.3L969 557.2ZM980.5 406.5L953.6 434C952.3 435.3 948.3 436.3 946.7 436.4C945.1 436.5 944.1 429.4 945.1 427.9C950.4 420.1 960.5 410.3 968.4 402.5L969.3 354.4C971.8 353.4 977.5 353.4 980.7 354.5L980.5 406.5ZM1016.2 463.3L1016 556.8L1004.4 557L1004.2 464.4C996.5 459.4 990.7 453.2 990.3 445.2C990 436.5 995.3 430 1003.9 424.9L1004.5 354.6C1007.4 353.1 1012.7 353.1 1016.3 354.6V425.6C1024.2 429.8 1029.8 435.6 1030 443.1C1030.2 452.1 1026.3 459.4 1016.2 463.3ZM1093.9 495.9L1068.8 496.5L1052.3 512.3L1051.8 556.4C1048.4 556.6 1043.2 556.6 1040.5 556.4L1040.3 508.5L1064.8 483.8H1094.2C1094.2 483.7 1093.9 495.8 1093.9 495.8V495.9ZM1092.3 460.2L1062.2 460.9L1040.5 482.3C1039.1 483.7 1034.9 485.3 1033.5 484.1C1024.5 476.1 1051.3 456.4 1057 449.3L1092.1 449C1095 449 1095.3 460 1092.4 460.1L1092.3 460.2ZM1093.7 426.6L1048 426.2L1045.7 403.6C1038.4 398.6 1031.7 392.1 1032.6 382.7C1033.6 373.1 1040.2 365.4 1049.9 364.2C1059.4 363 1068.1 368.9 1071 378.2C1078.2 400.9 1050.3 399.5 1059.1 414.7L1091.6 415.2C1094.5 415.2 1094.8 423.4 1093.6 426.7L1093.7 426.6Z" fill="#E3DDCA"/>
</svg>
