<svg width="1920" height="1080" viewBox="0 0 1920 1080" fill="none" xmlns="http://www.w3.org/2000/svg">
<g clip-path="url(#clip0_22_505)">
<path d="M1483.6 508.8C1483.6 467.4 1478.2 427.3 1468.1 389C1468.6 355.6 1463.7 322.9 1453.3 292.5C1442.2 259.8 1425.2 230.6 1402.8 205.7C1391.8 193.5 1379.7 182.5 1366.4 172.6C1395.8 148.7 1418.3 118.8 1432.8 84.1999C1438.7 70.0999 1437.5 53.5999 1429.7 40.1999C1422 26.9999 1408.7 18.1999 1394 16.3999C1393 16.2999 1392 16.1999 1391 16.1999C1363.8 15.4999 1337.4 12.3999 1307.8 6.3999C1286 2.0999 1267.1 -0.100098 1249.8 -0.100098C1217.4 -0.100098 1189.6 7.4999 1164.8 23.0999C1152.2 30.9999 1140.2 41.0999 1128.3 53.6999C1091.9 44.5999 1053.7 39.7999 1014.5 39.7999C755.5 39.7999 545.5 249.8 545.5 508.8C545.5 767.8 550 583.6 558.5 618.9L465.5 684.3C434.6 706 427.4 747.7 449 779.3L608.6 1012.8C621.5 1031.7 641.6 1042.5 663.7 1042.5C685.8 1042.5 692.7 1037.8 705.4 1028.9L799.2 962.8C809.3 955.7 817.3 946.8 822.7 936.8C881.3 963.1 946.2 977.7 1014.5 977.7C1153.4 977.7 1278.1 917.3 1364 821.4L1377.2 815.4C1404.1 803.1 1424 781 1433.1 753.1C1437.6 739.3 1439.2 724.8 1437.9 710.5C1467.1 649.4 1483.5 580.9 1483.5 508.6L1483.6 508.8Z" fill="#00B469"/>
<path d="M901.6 901.6L801.1 870.8C798.5 870 793.4 868.7 791.4 869.5C789 870.3 785.9 874.8 785.7 877.1C793.3 886 798.3 896.4 797.3 908C796.5 918.3 790 928.4 779.9 935.5L686.1 1001.6C669.4 1013.3 648.4 1011.7 636.4 994L476.8 760.5C465.5 744 469.3 722.9 484.9 711.9L582.8 643C600.1 630.8 621.9 636 632.7 653.9C635 657.8 637.2 660.5 640.6 664.9L663.9 649.2C643.6 603.1 634.4 556.8 632.5 507C625.3 316.4 754.4 145.2 941.2 105.7C1003.6 92.5 1065.7 94.1 1126.5 110.3C1174.7 40.1 1218.6 23 1301.3 39.5C1331.1 45.4 1359.6 49.1 1390.2 49.9C1399.4 51 1405.8 62.1 1401.9 71.4C1383 116.7 1347.9 151.8 1302.1 174.1C1425.1 228.3 1458.8 362.6 1418.2 480.7C1416.3 486.3 1409.9 491.6 1404.8 492.8C1400.3 493.9 1393.1 490.3 1389.2 486.4C1370.7 467.8 1352.4 451.3 1330.4 435.9C1344.5 512 1328.3 596.2 1288.2 662.4L1310.1 654C1342.8 641.4 1378.1 652.7 1395.3 683.6C1415.8 720.3 1402.6 767.2 1363.3 785.1L1211.4 854.3L1078.3 913.7C1020.7 939.4 961.6 920.2 901.6 901.8V901.6ZM1297.9 442.6C1296.7 429.7 1294.7 417.3 1290.9 407C1223 363.3 1189.9 308.1 1196.9 225.7L1200.4 184.1C1177.5 174 1156.1 164.8 1135.4 151.1C1127.7 146 1120.7 140.9 1111.6 138.6C954 99.5 789.3 170.3 710.4 312.3C656.1 410 647.2 528.1 690.7 631.9L731.5 610.9C704.4 544.3 702.2 474.1 720.4 407.5C772.3 217.5 983.5 120.7 1161 206.7C1167.7 209.9 1170.5 214.7 1169.4 223.3C1157.4 320.9 1210.7 399.6 1297.9 442.6ZM1370.2 270.3C1347.1 233.4 1310.3 207.3 1266.3 195.5L1325.8 269L1370.2 270.3ZM1151.3 644.3C1164 657.3 1206.2 648.1 1213.9 689.5C1214.2 691.3 1216.6 694.8 1218.2 695.3C1226.1 697.8 1267.9 638.3 1271.2 625.5C1259.7 578.8 1240.9 551.7 1201.9 523.4C1190 514.8 1157.7 552.2 1104.5 520C1092.8 512.9 1080.2 508.4 1067.1 505.1C1038.3 497.8 1043.1 467.1 1049.4 445.7L1061.8 403.1L1042.9 391.1C1028.4 381.9 1021.3 366.3 1023.6 348.7C1027.2 321.2 1045.4 300.1 1070.5 288.6C1088.1 280.6 1062.2 265.6 1058.8 247.8L1051 207.2C1013.6 201.8 976.7 207.7 940.7 219.2L926.7 260.9L950.1 284.8C980.4 315.8 972.4 358.6 963.4 398C959.3 416 959.5 432.7 967.9 449.3C978.3 469.9 989.6 514.2 961.8 526.2C916.6 545.7 868.6 505.3 834.9 548.8C820.1 567.9 793.9 572.7 774.4 557.4C763.2 548.6 754.2 538.7 742.7 528C745.5 554.3 752.2 577.6 761.2 601.2C824.2 586.7 861.1 598.8 919.8 619.7C932.4 600.5 947.3 584.2 965.5 571.6C989.3 555.1 1017 558.2 1038.3 577.7C1051.7 590 1067.7 596.6 1086 591.9C1128.7 580.8 1133 625.4 1151.4 644.3H1151.3ZM1237 297.6C1247 275.5 1253.9 256.3 1260.4 234.9L1231.4 205.5C1226.3 231.5 1223.5 273 1236.9 297.6H1237ZM1281.3 358.4L1303.5 291.8L1282.9 264.2C1270.6 294.3 1270.8 305.3 1252.6 330.8C1262 342.2 1269.1 351.1 1281.4 358.4H1281.3ZM1305.5 378.9C1338.1 400.6 1366.2 421.6 1394.5 446C1407.8 397.8 1405.2 348.7 1387.8 301.7L1345.6 300.3L1368.8 347C1372.5 354.4 1366.8 363.9 1361.5 366.3C1353.3 370 1344.5 367.7 1340.6 359.6L1324.3 326.6L1305.6 378.8L1305.5 378.9ZM1323.6 682.5L1122.9 772.1C1110.1 812.8 1069.1 832.9 1028.8 820.5L848.4 765.1C840.1 762.6 837.3 752.5 838.4 746.1C839.5 739.7 846.5 731.8 855.5 734.6L1032 789.1C1050.9 794.9 1068.6 795 1082.3 780.4C1093.9 768.2 1098.8 750.4 1092.1 733C1087.3 720.7 1079 711.9 1066.2 707.3L904.7 648.5C879.1 639.2 854.7 630.3 827.6 627.6C765 621.4 708.1 655.3 659 692.7L766.2 849.1C782.2 832.5 796.4 834.9 813.7 840.8C867.4 859 920.4 875 975.3 888.8C999.5 894.9 1024.8 897.4 1048.3 890C1079.1 880.4 1106.6 867.5 1136.2 854L1349.7 756.7C1371.4 746.8 1378.5 720.7 1368.7 701.8C1360.5 685.8 1342.7 673.9 1323.4 682.5H1323.6Z" fill="#21261A"/>
</g>
<defs>
<clipPath id="clip0_22_505">
<rect width="1920" height="1080" fill="white"/>
</clipPath>
</defs>
</svg>
