<svg width="1920" height="1080" viewBox="0 0 1920 1080" fill="none" xmlns="http://www.w3.org/2000/svg">
<path d="M682 28.8999H1236C1365.2 28.8999 1470.1 133.8 1470.1 263V817C1470.1 946.2 1365.2 1051.1 1236 1051.1H682C552.8 1051.1 447.9 946.2 447.9 817V263C447.9 133.8 552.8 28.8999 682 28.8999Z" fill="#066DBA"/>
<path d="M744.1 869.4L743.7 695.5C743.7 691.6 739.6 687.3 736.8 687C732.9 686.6 727.4 690.1 727.4 695.4V904.9C727.4 920.5 714.1 932.2 700 931.6C685.5 931 673.9 919.7 673.8 904L672.8 689.8C672.8 687.3 666.4 684.4 664.1 684.9C661.5 685.6 656.8 689.9 656.8 693.5L656.6 874.2C656.6 888.2 642.2 897 630.6 896.8C618.6 896.6 604.7 886.7 604.7 872.2L604.1 674C604.1 669.6 599.9 665 596.9 664.6C592.4 664.1 587.8 668.3 587.8 673.6L587.6 812.7C587.6 826 574.4 835 563.7 835.3C551.3 835.6 539.1 825.8 539.1 811.3L538.7 599.1C538.7 561.9 546.5 528 564.3 495.8L582.5 463C590.9 447.9 594.8 431.2 594.4 413.8L593.4 366.9C602.5 384 616.9 396.4 636.6 396.9L736.1 399.4C717.8 416.4 707.7 435.7 709.1 459C710.1 475.5 723.3 486.6 740.4 484.6C773.3 480.7 804.8 478.4 838.5 480.6C871.1 533.8 880.4 570.1 877.5 632.6C875.4 678 876 721.5 881.7 767.2C854.8 770.6 831.8 753.8 823.7 729.7C820.3 719.5 818.1 708.3 817.3 697.5L811.4 622.6C810.8 614.9 806 611.3 798.6 609.3C758 598.6 727.2 566.7 721.6 525C720.8 519.4 716.8 515.9 711.6 516.5C707.2 517.1 704.5 522.2 705.3 527.9C712.2 576.4 748.1 613.6 796.4 626.3L795.6 866.7C795.6 880.9 784.8 890.8 772.2 891.9C761.8 892.8 744.2 884.7 744.2 869.6L744.1 869.4Z" fill="#E3DDCA"/>
<path d="M1176.4 593.1C1143.6 597.7 1113.6 599.9 1081.9 598.1C1036.7 533.1 1038.8 488.3 1041.8 413.7C1043.2 379.3 1040.7 346.3 1037.1 311.6C1074.4 304.8 1097.4 340.5 1100.1 372.9L1106.9 455.2C1108.4 473.2 1132.6 463.5 1164.7 491.7C1204.8 526.8 1190.5 560 1204.1 561.6C1207.9 562 1213.7 558.3 1213.5 553.8C1210.7 502.2 1171.2 463.8 1121.8 451L1122.6 213.2C1122.6 198.3 1133.9 187.5 1147.2 186.6C1159 185.8 1174.3 196.1 1174.4 210.6L1174.9 382.3C1174.9 387.6 1180.2 391.2 1184.4 390.6C1188.5 390 1191.6 385.5 1191.6 380.2V173.6C1191.5 158.7 1203.6 147.5 1216.4 146.4C1229.2 145.3 1244.6 155.9 1244.7 171.6L1245.5 383.9C1245.5 388.7 1249.6 392.6 1253.3 392.7C1257.6 392.9 1262 389.1 1262 384.1L1261.6 206.9C1261.6 192.5 1272.6 181.7 1285.9 180.2C1296.5 179 1313.4 188.6 1313.5 203.3L1314.8 405.6C1314.8 410.2 1320.6 413.8 1324.2 413.3C1328.1 412.8 1330.9 408.8 1330.9 403.8V266.1C1330.9 252.7 1343.2 243.4 1354.3 242.7C1365.9 242 1379.1 252.2 1379.1 266.1L1379.5 487.1C1379.5 518.6 1372.6 548.4 1357.8 575.6L1335.6 616.5C1329.6 627.5 1324.8 640.9 1324.8 653.7L1325 711.6C1316.8 692.1 1300.8 680.7 1279.8 680.3L1182.7 678.6C1204.2 659.3 1220.6 617.9 1201.2 599.5C1195.2 593.8 1186.5 591.4 1176.5 592.8L1176.4 593.1Z" fill="#E3DDCA"/>
<path d="M1282.7 841.3C1298.2 841.3 1306.7 855.8 1306.6 867.8C1306.4 880.2 1296.2 893.9 1281.2 893.9H1092.7C1088.4 893.9 1084.5 898 1084.3 901.2C1084.1 905.5 1087.8 910.2 1092.7 910.2H1220.7C1234.5 910.2 1244.8 920.8 1245.4 932.9C1246 944.7 1237 959.2 1222.5 959.2L1018.1 960.1C975.1 960.3 937.2 948.7 900.9 926.5C858.3 900.5 848.6 907.2 798 906.4C809.1 895.1 816.8 884 817.1 868.7L819 763.3C835.2 778.9 854.3 788.8 876.1 788.3C892.8 787.9 903.9 774.8 902.3 758.2C898 725.3 896.4 693.4 899.3 660.2C986 595.9 1050.9 627.7 1140.2 618.4L1188 613.4C1192.6 640.9 1175 663.3 1150.2 672.4C1131.3 679.3 1111.4 680.7 1090.9 682L1029.2 685.9L1021.1 708.4C1008.3 743.8 977.9 768.5 940.5 773.4C936 774 932.5 779.7 933.2 782.8C934.3 788.4 939.4 790.8 945.4 789.8C993.5 782.2 1029.2 746.5 1041.5 700.1L1282 701.9C1296.8 702 1305.6 715.5 1305.3 727.8C1305.1 741.2 1294.7 753.8 1279.7 753.8H1111C1105.8 753.9 1101.9 758.7 1102.4 763.2C1102.9 767.7 1107.6 770.5 1112.7 770.5L1315.6 770C1331.8 770 1344 782.2 1344.2 796.7C1344.4 811.2 1332.6 824.5 1316.8 824.5L1110.8 824.8C1106.4 824.8 1102.8 828.7 1102.6 832.1C1102.3 835.9 1106.1 841 1110.9 841H1283.2L1282.7 841.3Z" fill="#E3DDCA"/>
<path d="M893.4 382.8C903.8 341.6 935.4 311.5 976.8 305.4C980.7 304.8 984.8 301.4 985.5 298.4C986.3 295.3 982.5 288.2 978.8 288.6C928.8 293.6 889.5 329.1 877.6 378.3L636.7 375.7C622 375.5 612.8 362.1 613.5 349.9C614.2 337.8 623.4 324.6 637.8 324.6L807.1 324.4C811.6 324.4 815.8 321.5 816.6 318C817.4 314.5 813.7 308.2 808.8 308.2L600.5 307.7C585.1 307.7 574.4 293.6 574.4 281C574.4 266.7 586.4 254.4 602.5 254.3L808.9 253.7C813.2 253.7 816.9 248.7 816.8 245.4C816.8 242.4 812.3 237.6 808.4 237.6H637.1C622.4 237.6 612 224.9 612 212.1C612 199.3 621.2 186.1 635.9 186L824.9 185.5C829.6 185.5 834.1 181.5 834.3 178.4C834.7 173 830.7 169 824.9 169L696.6 168.5C683.4 168.5 673.6 156.3 673.4 144.9C673.2 134.9 682.4 120.8 695.7 120.8L913.4 120C954.2 119.9 990.7 136.4 1024.4 156.7C1042.8 167.8 1061.6 174.2 1083 173.9L1120.4 173.3C1109.8 184.1 1102 195.1 1101.7 210L1099.5 314.6C1084.2 299.5 1066.4 290.9 1045.7 290.1C1027.5 289.4 1014.7 303.2 1016.5 321.7C1020.3 354.2 1021.6 386.1 1019.6 418.8C929 483.5 865.3 450.7 775.8 460L731.5 464.6C723.8 420 765.4 400.8 803.3 398.2L882.3 392.8C887.8 392.4 892.2 389 893.6 383.1L893.4 382.8Z" fill="#E3DDCA"/>
</svg>
