<svg width="1920" height="1080" viewBox="0 0 1920 1080" fill="none" xmlns="http://www.w3.org/2000/svg">
<path d="M1656.3 381C1651.5 351.9 1626.3 326 1600.7 315.7C1536.2 292.1 1063.5 121.2 996.5 96.9001C985.6 93.1001 968.7 91.5001 956 92.4001C918.5 96.1001 904.7 108.1 860.3 122.4C684.8 191.3 369.7 292.5 292.1 335.9C247.6 368.7 248.7 439.8 294.1 471.1C302.6 477.7 311.9 482.5 321.9 486.3C375.8 506.7 469.6 541.4 512.6 557.6C538.8 563.7 530.4 595.5 530.8 615.8C529.2 655.2 526 695.5 533.9 734.4C548.4 819.1 619.2 868.7 697.2 892.8C877.2 954.9 1078.6 951.5 1255.7 881.6C1282.3 869 1282.7 884.6 1279.3 907.4C1267.8 981.4 1322.6 1022.3 1392.8 1016.1C1446.7 1014 1515.7 1029 1549.5 976.7C1568.5 947.9 1565.6 917.5 1558.8 883.5C1554.4 857 1549.1 827 1544.8 801C1541.2 783.2 1544.8 767.4 1548.8 750.3C1558.8 706.3 1546.1 688.7 1529.5 651C1523.9 618 1527.3 576.6 1526.4 541.9C1524.8 518.5 1545 513.1 1562.9 505.1C1610.6 482.6 1668.8 441.4 1656.2 381.2V381H1656.3Z" fill="#8C001C"/>
<path d="M1395.8 681.2C1400.3 669.3 1401.4 656.7 1401.7 644C1401.9 588.3 1406.2 526.3 1400.3 470C1398.5 463.6 1393.3 461.1 1387 459.9C1291.1 441.1 1135.1 412.1 1031.6 391.2C1015.9 386.8 1002.4 378.7 985.9 372.9C965 364.7 935.9 366.9 924.1 388.1C911.1 419 951.3 424.8 974.2 423C1099.5 414.2 1215.3 451.6 1339.6 482.8C1350.1 485.6 1355.3 488 1345.5 491.5C1271.5 515.3 1020.6 618 954.5 631.4C796.8 568.8 389.2 428.7 345.3 400.9C493.7 346.7 828.6 224.9 935.7 185.9C948.9 182.1 957.8 175.3 966.3 177.4C1009.6 192.7 1318.1 304.3 1445.8 350.3C1499.3 369.6 1536.6 383 1561.5 392C1566.5 393.8 1570.4 394.8 1570.4 397.3C1565 408.5 1549.4 414.7 1538.8 421.6C1515.4 434.7 1491.3 441.6 1467.1 451.3C1448.4 458 1439.7 467.8 1441.1 487.6C1442.3 547.1 1440.4 615.4 1443.4 674C1454.8 710.1 1472.3 712 1459 758C1452.9 778.8 1459.3 801.4 1462.7 823.5C1467.3 850.5 1472.5 880.6 1476.9 906.9C1480.8 926.2 1476 930 1459.2 930C1438.8 930.5 1413.4 930 1393.2 930.2C1376.8 929.6 1360.1 933 1365.8 909.4C1370.1 883.4 1376.2 850 1380.9 822.5C1383.3 806.5 1388.7 786.1 1387.5 771.4C1386.5 759 1380.7 748.7 1379 735.6C1375.6 715.5 1389.3 699.1 1395.9 681.3V681.1L1395.8 681.2Z" fill="#D17DD0"/>
<path d="M1303.4 549.6C1304 553.5 1304.2 559.2 1304.3 566.1C1304.1 645.3 1322.9 723 1281.9 764.7C1273.9 773.5 1263.6 781.7 1250.4 789.3C1088.7 867.6 896.9 870.1 728.2 813.5C600.8 772.3 612.9 719.1 618.2 583.2C618.2 572.2 617.7 555.7 619.4 546.7C620.3 542.1 623.8 542 627.3 543.5C712.9 574.7 913.5 648 955.5 663.3C960.5 665.1 963.1 666.2 968.4 664C1045.1 635.8 1193.6 581 1283.2 548C1288.2 546.6 1296.8 541.7 1300.4 543.3C1302.4 544.7 1302.8 547.2 1303.3 549.6H1303.4Z" fill="#D17DD0"/>
</svg>
