<svg width="1920" height="1080" viewBox="0 0 1920 1080" fill="none" xmlns="http://www.w3.org/2000/svg">
<path d="M1833.2 601.5C1829.2 601.5 1826.6 603.9 1825.1 605.7C1824.3 604.8 1823.4 603.5 1822.1 601.7C1819 597.1 1816 592.9 1813.3 589.3C1813.4 589.1 1813.6 589 1813.7 588.8C1814.4 588.1 1815 587.4 1815.5 586.8C1816.2 586.1 1816.8 585.4 1817.3 584.8C1818 584.1 1818.6 583.4 1819.1 582.8C1819.8 582.1 1820.4 581.4 1820.9 580.8C1821.6 580.1 1822.2 579.4 1822.7 578.8C1823.4 578.1 1824 577.4 1824.5 576.8C1825.2 576.1 1825.8 575.4 1826.3 574.8C1827 574.1 1827.6 573.4 1828.1 572.8C1828.8 572.1 1829.4 571.4 1829.9 570.8C1830.6 570.1 1831.2 569.4 1831.7 568.8C1832.4 568.1 1833 567.4 1833.5 566.8C1836.2 564.1 1839.6 559.9 1839.6 554.4C1839.6 548.9 1836.7 544.6 1831.6 542C1827.5 539.9 1821.9 538.9 1814.3 538.9C1802.5 538.9 1794.9 541.4 1791.2 546.6C1791 546.8 1790.7 547 1790.5 547.3C1789.1 545.3 1787.2 543.7 1784.7 542.4C1780.3 540.1 1774.1 539 1765.8 539C1757.5 539 1746.8 539.9 1741.5 547C1740.8 547.6 1740.2 548.3 1739.7 549C1739 549.6 1738.4 550.3 1737.9 551C1737.4 551.4 1737 551.9 1736.6 552.4C1731.2 546.2 1721.4 540.2 1703.1 540.2H1699.1C1699.1 540.2 1699.1 540.1 1699.2 540C1702.9 536.6 1704.8 531.4 1704.8 524.6V471.8C1704.8 468.1 1705.9 465.7 1706.3 465.2C1706.3 465.2 1706.3 465.2 1706.4 465.1C1709.4 462 1712.9 457.6 1712.9 451.5C1712.9 445.4 1709.4 440.7 1706.5 438.7C1702.7 436.1 1697.5 435 1690.1 435C1682.7 435 1675.5 435 1670.1 442.2C1669.4 442.8 1668.8 443.5 1668.3 444.2C1667.6 444.8 1667 445.5 1666.5 446.2C1665.8 446.8 1665.2 447.5 1664.7 448.2C1664 448.8 1663.4 449.5 1662.9 450.2C1662.5 450.6 1662.1 450.9 1661.8 451.3L1661.1 450.1C1661.1 450.1 1661.1 450.1 1661.1 450C1657.1 443.6 1651.1 436.2 1639.1 436.2H1630.6C1620.4 436.2 1615.4 440.3 1613 443.4C1612.3 444 1611.7 444.7 1611.2 445.4C1610.5 446 1609.9 446.7 1609.4 447.4C1608.7 448 1608.1 448.7 1607.6 449.4C1607.6 449.4 1607.4 449.5 1607.4 449.6C1598.5 440 1586 434.7 1571.8 434.7C1557.6 434.7 1542.8 440.7 1533.5 451.6C1532.8 452.3 1532.2 452.9 1531.7 453.6C1531.6 453.7 1531.5 453.8 1531.4 453.9C1531.5 453.1 1531.6 452.3 1531.6 451.5C1531.6 445.9 1528.6 441.2 1523.3 438.4C1518.9 436.1 1512.7 435 1504.4 435C1496.1 435 1485.4 435.9 1480.1 443C1479.9 443.2 1479.7 443.4 1479.5 443.6C1476.1 438 1471.3 434.7 1465.8 434.7C1460.3 434.7 1457.1 436.9 1454.2 439.4C1450 436.9 1443.7 434.7 1435.1 434.7C1426.5 434.7 1412.8 439.1 1406.1 447.1C1405.5 447.7 1404.9 448.4 1404.3 449.1C1403.7 449.7 1403.1 450.4 1402.5 451.1C1401.9 451.7 1401.3 452.4 1400.7 453.1C1400.5 453.3 1400.3 453.5 1400.1 453.7C1397.7 443.3 1391.6 434.6 1382.4 434.6C1373.2 434.6 1373.7 436.8 1370.8 439.3C1366.6 436.8 1360.3 434.6 1351.7 434.6C1343.1 434.6 1329.4 439 1322.7 447C1322.3 447.4 1321.9 447.8 1321.5 448.2C1320.6 444 1317.8 440.5 1313.5 438.2C1309.1 435.9 1302.9 434.8 1294.6 434.8C1286.3 434.8 1277.4 435.5 1271.7 441.2C1268.5 438.2 1263.5 436.1 1256.1 436.1H1248.2C1240.1 436.1 1234.1 438.7 1229.5 444.4C1228.9 445 1228.3 445.7 1227.7 446.4C1227.1 447 1226.5 447.7 1225.9 448.4C1225.3 449 1224.7 449.7 1224.1 450.4C1223.5 451 1222.9 451.7 1222.3 452.4C1221.7 453 1221.1 453.7 1220.5 454.4C1219.9 455 1219.3 455.7 1218.7 456.4C1218.1 457 1217.5 457.7 1216.9 458.4C1216.3 459 1215.7 459.7 1215.1 460.4C1214.8 460.6 1214.6 460.9 1214.4 461.2L1209.8 451.5C1204.8 441.1 1197.2 436 1186.4 436H1175.3C1165.6 436 1160.6 439.5 1158 442.9C1157.3 443.5 1156.7 444.2 1156.2 444.9C1155.5 445.5 1154.9 446.2 1154.4 446.9C1153.7 447.5 1153.1 448.2 1152.6 448.9C1151.9 449.5 1151.3 450.2 1150.8 450.9C1150.1 451.5 1149.5 452.2 1149 452.9C1148.3 453.5 1147.7 454.2 1147.2 454.9C1146.5 455.5 1145.9 456.2 1145.4 456.9C1144.7 457.5 1144.1 458.2 1143.6 458.9C1142.9 459.5 1142.3 460.2 1141.8 460.9C1141.1 461.5 1140.5 462.2 1140 462.9C1139.3 463.5 1138.7 464.2 1138.2 464.9C1137.5 465.5 1136.9 466.2 1136.4 466.9C1135.7 467.5 1135.1 468.2 1134.6 468.9C1133.9 469.5 1133.3 470.2 1132.8 470.9C1132.1 471.5 1131.5 472.2 1131 472.9C1130.3 473.5 1129.7 474.2 1129.2 474.9C1128.7 475.4 1128.2 475.9 1127.8 476.4C1129 473.1 1129.7 469.2 1129.7 464.7C1129.7 457.8 1128.3 451.1 1125.8 445.8C1123.8 441.5 1119 434.3 1110.3 434.3C1101.6 434.3 1101.6 436.4 1097.9 440.5C1093.5 437.2 1087 434.3 1077.5 434.3C1068 434.3 1053 439.5 1044.5 449.4C1044.1 449.9 1043.6 450.3 1043.2 450.8C1043.2 444 1039.7 440.2 1036.8 438.3C1033 435.7 1027.8 434.6 1020.4 434.6C1013 434.6 1005.8 434.6 1000.4 441.8C999.7 442.4 999.1 443.1 998.6 443.8C997.9 444.4 997.3 445.1 996.8 445.8C996.1 446.4 995.5 447.1 995 447.8C994.3 448.4 993.7 449.1 993.2 449.8C992.8 450.2 992.4 450.5 992.1 450.9L991.4 449.7C991.4 449.7 991.4 449.7 991.4 449.6C987.4 443.2 981.4 435.8 969.4 435.8H960.9C952.6 435.8 947.7 438.5 944.9 441.2C943.7 440 942.2 438.9 940.5 438C936.1 435.7 929.9 434.6 921.6 434.6C913.3 434.6 906.1 435.2 900.3 439.6C897 435.2 892.6 432.8 887.6 432.8C882.6 432.8 881.7 433.7 879.4 434.4C877 435.2 874.7 435.9 871 435.9H843.9C840.4 435.9 838.3 435.2 835.8 434.4C833.5 433.6 830.9 432.8 827.5 432.8C822.8 432.8 818.5 435 815.3 439.1C814.7 439.7 814 440.4 813.5 441.1C812.9 441.7 812.2 442.4 811.7 443.1C811.1 443.7 810.4 444.4 809.9 445.1C809.3 445.7 808.6 446.4 808.1 447.1C807.5 447.7 806.8 448.4 806.3 449.1C805.9 449.4 805.6 449.8 805.3 450.2C801.7 438.3 794.2 435.9 784.1 435.9H763.8C759.7 435.9 750.4 435.9 745.7 442.3C745 442.9 744.4 443.6 743.9 444.3C743.2 444.9 742.6 445.6 742.1 446.3C741.4 446.9 740.8 447.6 740.3 448.3C739.6 448.9 739 449.6 738.5 450.3C737.8 450.9 737.2 451.6 736.7 452.3C736 452.9 735.4 453.6 734.9 454.3C734.2 454.9 733.6 455.6 733.1 456.3C732.4 456.9 731.8 457.6 731.3 458.3C728 446.3 716.5 435.7 692.2 435.7H664.2C657.4 435.7 647.9 436.5 643 443.1C642.3 443.7 641.7 444.4 641.2 445.1C640.8 445.5 640.4 445.9 640 446.3C637.8 444 635 442 631.9 440.4C625.9 437.3 618.3 435.7 610.1 435.7H579C571.2 435.7 565.1 438.2 561.6 442.9C560.9 443.5 560.3 444.2 559.8 444.9C555.7 439 549.5 435.7 541.9 435.7H497.7C489.9 435.7 483.8 438.2 480.3 442.9C479.6 443.5 479 444.2 478.5 444.9C477.8 445.5 477.2 446.2 476.7 446.9C476 447.5 475.4 448.2 474.9 448.9C474.2 449.5 473.6 450.2 473.1 450.9C472.4 451.5 471.8 452.2 471.3 452.9C470.6 453.5 470 454.2 469.5 454.9C468.8 455.5 468.2 456.2 467.7 456.9C467 457.5 466.4 458.2 465.9 458.9C465.2 459.5 464.6 460.2 464.1 460.9C463.4 461.5 462.8 462.2 462.3 462.9C461.6 463.5 461 464.2 460.5 464.9C459.8 465.5 459.2 466.2 458.7 466.9C458 467.5 457.4 468.2 456.9 468.9C456.2 469.5 455.6 470.2 455.1 470.9C454.4 471.5 453.8 472.2 453.3 472.9C452.6 473.5 452 474.2 451.5 474.9V473.2C451.5 467.6 452.4 465.4 452.8 464.7C453 464.5 453.2 464.2 453.4 464C456.5 460.8 459.6 456.8 459.6 450.7C459.6 444.6 456.6 440.4 451.3 437.6C446.9 435.3 440.7 434.2 432.4 434.2C424.1 434.2 413.4 435.1 408.1 442.2C407.4 442.8 406.8 443.5 406.3 444.2C406.3 444.2 406.3 444.2 406.2 444.3C402.1 438.6 396 435.4 388.6 435.4H344.4C337 435.4 331.1 437.7 327.5 441.9C324 436.8 319.3 433.9 313.9 433.9C308.5 433.9 305.6 435.7 301.8 439.5C297 435.8 291 433.9 284.2 433.9C273.5 433.9 263.5 438.7 256 447.5C255.4 448.1 254.8 448.8 254.2 449.5C253.6 450.1 253 450.8 252.4 451.5C251.8 452.1 251.2 452.8 250.6 453.5C250 454.1 249.4 454.8 248.8 455.5C248.2 456.1 247.6 456.8 247 457.5C246.4 458.1 245.8 458.8 245.2 459.5C244.6 460.1 244 460.8 243.4 461.5C242.8 462.1 242.2 462.8 241.6 463.5C241 464.1 240.4 464.8 239.8 465.5C239.2 466.1 238.6 466.8 238 467.5C237.4 468.1 236.8 468.8 236.2 469.5C235.6 470.1 235 470.8 234.4 471.5C233.8 472.1 233.2 472.8 232.6 473.5C232 474.1 231.4 474.8 230.8 475.5C230.2 476.1 229.6 476.8 229 477.5C228.4 478.1 227.8 478.8 227.2 479.5C226.6 480.1 226 480.8 225.4 481.5C224.8 482.1 224.2 482.8 223.6 483.5C214 493.4 208.5 508.7 208.5 525.5C208.5 542.3 209.2 537.9 210.6 543.5C207.8 542.3 204.3 541.5 200 541.5C192.8 541.5 186.2 544.2 181.7 548.9C176.5 542.4 167.5 537.6 154.6 537.6C141.7 537.6 133.8 541.6 127.8 548.8C127.2 549.4 126.5 550.1 126 550.8C125.4 551.4 124.7 552.1 124.2 552.8C123.6 553.4 122.9 554.1 122.4 554.8C121.8 555.4 121.1 556.1 120.6 556.8C120 557.4 119.3 558.1 118.8 558.8C118.2 559.4 117.5 560.1 117 560.8C116.4 561.4 115.7 562.1 115.2 562.8C114.6 563.4 113.9 564.1 113.4 564.8C112.8 565.4 112.1 566.1 111.6 566.8C111 567.4 110.3 568.1 109.8 568.8C109.2 569.4 108.5 570.1 108 570.8C107.4 571.4 106.7 572.1 106.2 572.8C105.6 573.4 104.9 574.1 104.4 574.8C103.8 575.4 103.1 576.1 102.6 576.8C102 577.4 101.3 578.1 100.8 578.8C100.2 579.4 99.4999 580.1 98.9999 580.8C98.3999 581.4 97.6999 582.1 97.1999 582.8C96.5999 583.4 95.8999 584.1 95.3999 584.8C89.9999 590.2 87.0999 597.4 87.0999 605.7C87.0999 614 88.4999 616.4 91.0999 620.9C90.6999 621.3 90.3999 621.7 89.9999 622.2C89.3999 622.8 88.6999 623.5 88.1999 624.2C81.8999 630.6 78.3999 639.2 78.3999 648.4C78.3999 657.6 83.1999 669.3 91.8999 675.9C100.1 682.1 111.5 685.4 124.9 685.4C144.3 685.4 160.6 678.9 170.8 667C171.4 666.4 172 665.7 172.6 665C173.2 664.4 173.8 663.7 174.4 663C175 662.4 175.6 661.7 176.2 661C176.8 660.4 177.4 659.7 178 659C178.6 658.4 179.2 657.7 179.8 657C180.4 656.4 181 655.7 181.6 655C182.2 654.4 182.8 653.7 183.4 653C184 652.4 184.6 651.7 185.2 651C185.8 650.4 186.4 649.7 187 649C187.6 648.4 188.2 647.7 188.8 647C189.4 646.4 190 645.7 190.6 645C191.2 644.4 191.8 643.7 192.4 643C193 642.4 193.6 641.7 194.2 641C194.8 640.4 195.4 639.7 196 639C196.6 638.4 197.2 637.7 197.8 637C198.4 636.4 199 635.7 199.6 635C200.2 634.4 200.8 633.7 201.4 633C202 632.4 202.6 631.7 203.2 631C211 623 215.3 612.8 215.7 601.4C216.9 603.5 218.4 605.2 219.9 606.8C220.5 607.4 221.7 608.7 221.7 616.1V647.3C221.7 651.4 221.2 653.2 220.8 653.9C220.4 654.3 220 654.8 219.7 655.2C215.7 659.4 213.7 663.8 213.7 668.6C213.7 673.4 216.4 685.8 241.5 685.8C266.6 685.8 263.7 681.4 266.4 677.7C267.1 677.1 267.7 676.4 268.2 675.7C268.9 675.1 269.5 674.4 270 673.7C270.7 673.1 271.3 672.4 271.8 671.7C272.5 671.1 273.1 670.4 273.6 669.7C274.3 669.1 274.9 668.4 275.4 667.7C276.1 667.1 276.7 666.4 277.2 665.7C277.9 665.1 278.5 664.4 279 663.7C279.7 663.1 280.3 662.4 280.8 661.7C281.5 661.1 282.1 660.4 282.6 659.7C283.3 659.1 283.9 658.4 284.4 657.7C285.1 657.1 285.7 656.4 286.2 655.7C286.9 655.1 287.5 654.4 288 653.7C288.7 653.1 289.3 652.4 289.8 651.7C290.5 651.1 291.1 650.4 291.6 649.7C292.3 649.1 292.9 648.4 293.4 647.7C294.1 647.1 294.7 646.4 295.2 645.7C295.9 645.1 296.5 644.4 297 643.7C297.1 643.6 297.2 643.5 297.3 643.4C297.5 657.4 301.2 667.7 308.5 675C316 682.4 326.7 686.1 341.1 686.1C355.5 686.1 368.7 681.4 376.6 672.1C377.2 671.5 377.8 670.8 378.4 670.1C379 669.5 379.6 668.8 380.2 668.1C380.8 667.5 381.4 666.8 382 666.1C382.6 665.5 383.2 664.8 383.8 664.1C384.1 663.8 384.4 663.5 384.6 663.2C383.9 665.1 383.6 667 383.6 668.9C383.6 674.7 386.6 679.5 392.1 682.5C396.5 684.9 402.5 686.1 410.4 686.1C418.3 686.1 429.8 685.2 435.2 678C435.9 677.4 436.5 676.7 437 676C437.7 675.4 438.3 674.7 438.8 674C443.7 680.5 450.3 686.2 458.7 686.2C467.1 686.2 470.6 683.7 475 679C478.7 682.9 485.7 686.2 498.9 686.2C512.1 686.2 521.1 681.8 523.8 678.1C524.5 677.5 525.1 676.8 525.6 676.1C526.3 675.5 526.9 674.8 527.4 674.1C528.1 673.5 528.7 672.8 529.2 672.1C529.9 671.5 530.5 670.8 531 670.1C531.7 669.5 532.3 668.8 532.8 668.1C533.5 667.5 534.1 666.8 534.6 666.1C535.3 665.5 535.9 664.8 536.4 664.1C537.1 663.5 537.7 662.8 538.2 662.1C538.9 661.5 539.5 660.8 540 660.1C540.7 659.5 541.3 658.8 541.8 658.1C542.5 657.5 543.1 656.8 543.6 656.1C544.3 655.5 544.9 654.8 545.4 654.1C546.1 653.5 546.7 652.8 547.2 652.1C547.9 651.5 548.5 650.8 549 650.1C549.7 649.5 550.3 648.8 550.8 648.1C551.4 647.6 551.9 647.1 552.3 646.5C554.3 656.2 558.6 664.7 564.9 671.5C573.9 681.1 586.5 686.4 600.4 686.4C614.3 686.4 629.8 680.5 638.9 669.7C639.6 669 640.2 668.3 640.7 667.7C641.4 667 642 666.3 642.5 665.7C643.2 665 643.8 664.3 644.3 663.7C644.3 663.7 644.4 663.6 644.5 663.5C645.4 667.2 646.8 670.7 648.6 673.8C653.2 681.9 660 686.4 667.6 686.4C675.2 686.4 674.6 684.9 676.8 683.9C678.2 683.2 679.1 682.8 679.8 682.8C681 682.8 683 683.4 685.1 684C688.7 685.1 693.2 686.4 698.5 686.4C709.6 686.4 719.7 681.9 726.9 673.8C728.9 679.8 734.9 684.9 745.5 684.9H796C801.4 684.9 806.5 682.3 810.3 677.6C810.9 677 811.5 676.3 812.1 675.6C812.7 675 813.3 674.3 813.9 673.6C814.5 673 815.1 672.3 815.7 671.6C816.3 671 816.9 670.3 817.5 669.6C818.1 669 818.7 668.3 819.3 667.6C819.9 667 820.5 666.3 821.1 665.6C821.7 665 822.3 664.3 822.9 663.6C823.5 663 824.1 662.3 824.7 661.6C825.3 661 825.9 660.3 826.5 659.6C827.1 659 827.7 658.3 828.3 657.6C828.3 657.6 828.4 657.6 828.5 657.5C830.4 657.8 832.5 657.9 834.8 657.9H854.8C859.6 657.9 863.6 657.3 866.9 656.2C870.5 654.9 873.3 653 875.2 650.4C875.9 649.8 876.5 649.1 877 648.4C877.4 648.1 877.7 647.7 878 647.4C878 653.6 876.8 654.9 876.1 655.7C872 660.2 870 664.6 870 669.3C870 674 872.5 679.3 877 682.1C880.4 684.2 884.8 685.2 890.5 685.2H913.5C932.7 685.2 948.2 679 958.2 667.4C958.8 666.8 959.4 666.1 960 665.4C960 665.4 960.1 665.3 960.2 665.2C959.8 666.6 959.6 668.1 959.6 669.6C959.6 675.4 962.6 680.2 968.1 683.2C972.5 685.6 978.5 686.8 986.4 686.8C994.3 686.8 1005.8 685.9 1011.2 678.7C1011.9 678.1 1012.5 677.4 1013 676.7C1013.7 676.1 1014.3 675.4 1014.8 674.7C1019.7 681.2 1026.3 686.9 1034.7 686.9C1043.1 686.9 1046.6 684.4 1051 679.7C1052.2 681 1053.6 682.1 1055.2 683.1C1059.7 685.7 1065.9 686.9 1074.3 686.9C1086.5 686.9 1094.4 684.2 1098.6 678.7C1099.3 678.1 1099.9 677.4 1100.4 676.7C1101.1 676.1 1101.7 675.4 1102.2 674.7C1102.9 674.1 1103.5 673.4 1104 672.7C1104.7 672.1 1105.3 671.4 1105.8 670.7C1106.5 670.1 1107.1 669.4 1107.6 668.7C1108.3 668.1 1108.9 667.4 1109.4 666.7C1110.1 666.1 1110.7 665.4 1111.2 664.7C1111.9 664.1 1112.5 663.4 1113 662.7C1113.7 662.1 1114.3 661.4 1114.8 660.7C1115.5 660.1 1116.1 659.4 1116.6 658.7C1116.6 658.7 1116.8 658.5 1116.9 658.4C1118.4 662.6 1119.9 666.5 1121 669.5C1125.3 681.4 1132.8 686.9 1144.5 686.9C1156.2 686.9 1158.2 684.2 1162.5 679C1163.1 678.4 1163.8 677.7 1164.3 677C1164.9 676.4 1165.6 675.7 1166.1 675C1166.7 674.4 1167.4 673.7 1167.9 673C1168.5 672.4 1169.2 671.7 1169.7 671C1170.3 670.4 1171 669.7 1171.5 669C1172.1 668.4 1172.8 667.7 1173.3 667C1173.9 666.4 1174.6 665.7 1175.1 665C1175.7 664.4 1176.4 663.7 1176.9 663C1177.5 662.4 1178.2 661.7 1178.7 661C1179.3 660.4 1180 659.7 1180.5 659C1181.1 658.4 1181.8 657.7 1182.3 657C1182.9 656.4 1183.6 655.7 1184.1 655C1184.7 654.4 1185.4 653.7 1185.9 653C1186.5 652.4 1187.2 651.7 1187.7 651C1188.3 650.4 1189 649.7 1189.5 649C1190.1 648.4 1190.8 647.7 1191.3 647C1191.9 646.4 1192.6 645.7 1193.1 645C1193.7 644.4 1194.4 643.7 1194.9 643C1194.9 643 1195.1 642.8 1195.2 642.7V646.9C1195.2 654 1193.9 655.5 1193.4 656C1189.3 660.3 1187.2 664.9 1187.2 669.7C1187.2 677.6 1193.2 685.6 1206.6 685.6H1257.1C1262.4 685.6 1267.3 683.2 1271 678.7C1273.8 683.2 1279.6 687.1 1291.5 687.1C1303.4 687.1 1305.9 687.1 1311.4 679.8C1312.1 679.2 1312.7 678.5 1313.2 677.8C1313.9 677.2 1314.5 676.5 1315 675.8C1315.7 675.2 1316.3 674.5 1316.8 673.8C1317.5 673.2 1318.1 672.5 1318.6 671.8C1319.3 671.2 1319.9 670.5 1320.4 669.8C1320.5 669.7 1320.6 669.6 1320.8 669.5L1324 674.8C1324 674.8 1324 674.9 1324.1 675C1329.1 682.6 1334.2 687.2 1344.1 687.2C1354 687.2 1356 685 1359.3 680.7C1360 680.1 1360.6 679.4 1361.1 678.7C1361.8 678.1 1362.4 677.4 1362.9 676.7C1363.6 676.1 1364.2 675.4 1364.7 674.7C1365.4 674.1 1366 673.4 1366.5 672.7C1367.2 672.1 1367.8 671.4 1368.3 670.7C1369 670.1 1369.6 669.4 1370.1 668.7C1370.8 668.1 1371.4 667.4 1371.9 666.7C1372.6 666.1 1373.2 665.4 1373.7 664.7C1374.4 664.1 1375 663.4 1375.5 662.7C1376.2 662.1 1376.8 661.4 1377.3 660.7C1378 660.1 1378.6 659.4 1379.1 658.7C1379.8 658.1 1380.4 657.4 1380.9 656.7C1381.6 656.1 1382.2 655.4 1382.7 654.7C1383.4 654.1 1384 653.4 1384.5 652.7C1385.2 652.1 1385.8 651.4 1386.3 650.7C1387 650.1 1387.6 649.4 1388.1 648.7C1388.8 648.1 1389.4 647.4 1389.9 646.7C1390.6 646.1 1391.2 645.4 1391.7 644.7C1395.4 641.3 1397.3 636.1 1397.3 629.3V610C1398.3 610.9 1399.1 612.2 1399.8 613.9C1405.6 630.6 1412.7 651.3 1419.3 671.4C1422.7 682.1 1429.6 687.4 1440.5 687.4C1451.4 687.4 1453.1 685 1457.1 680.3C1457.9 679.6 1458.7 678.8 1459.3 677.9C1459.9 677.3 1460.6 676.6 1461.1 675.9C1461.7 675.3 1462.4 674.6 1462.9 673.9C1463.5 673.3 1464.2 672.6 1464.7 671.9C1465.3 671.3 1466 670.6 1466.5 669.9C1467.1 669.3 1467.7 668.7 1468.3 668C1468.7 669.1 1469 670.2 1469.4 671.4C1469.4 671.5 1469.4 671.6 1469.5 671.8C1472.2 678.6 1477.3 687.6 1491 687.6C1504.7 687.6 1504 685.1 1508 680.1C1508.6 679.5 1509.3 678.8 1509.8 678.1C1510.4 677.5 1511.1 676.8 1511.6 676.1C1512.2 675.5 1512.9 674.8 1513.4 674.1C1514 673.5 1514.7 672.8 1515.2 672.1C1515.8 671.5 1516.5 670.8 1517 670.1C1517.6 669.5 1518.3 668.8 1518.8 668.1C1519.4 667.5 1520.1 666.8 1520.6 666.1C1521.2 665.5 1521.9 664.8 1522.4 664.1C1523 663.5 1523.7 662.8 1524.2 662.1C1524.8 661.5 1525.5 660.8 1526 660.1C1526.6 659.5 1527.3 658.8 1527.8 658.1C1528.4 657.5 1529.1 656.8 1529.6 656.1C1529.6 656.1 1529.7 656 1529.8 655.9C1537 675.4 1554 687.7 1575.5 687.7C1597 687.7 1604.9 681.8 1614 671C1614.7 670.3 1615.2 669.7 1615.8 669.1C1615.8 669.6 1615.8 670.1 1615.8 670.6C1615.8 676.4 1618.8 681.2 1624.3 684.2C1628.7 686.6 1634.7 687.8 1642.6 687.8C1650.5 687.8 1662 686.9 1667.4 679.7C1668.1 679.1 1668.7 678.4 1669.2 677.7C1669.9 677.1 1670.5 676.4 1671 675.7C1675.9 682.2 1682.5 687.9 1690.9 687.9C1699.3 687.9 1702.8 685.4 1707.2 680.7C1708.4 682 1709.8 683.1 1711.4 684.1C1715.9 686.7 1722.1 687.9 1730.5 687.9C1742.7 687.9 1750.6 685.2 1754.8 679.7C1755.5 679.1 1756.1 678.4 1756.6 677.7C1757.3 677.1 1757.9 676.4 1758.4 675.7C1758.9 675.3 1759.3 674.8 1759.7 674.3C1764.8 681.5 1772.2 687.9 1783 687.9C1793.8 687.9 1796.9 684.6 1801.8 678.6C1802.4 678 1803 677.3 1803.6 676.6C1804.2 676 1804.8 675.3 1805.4 674.6C1806 674 1806.6 673.3 1807.2 672.6C1807.8 672 1808.4 671.3 1809 670.6C1809.6 670 1810.2 669.3 1810.8 668.6C1811.4 668 1812 667.3 1812.6 666.6C1813.2 666 1813.8 665.3 1814.4 664.6C1815 664 1815.6 663.3 1816.2 662.6C1816.8 662 1817.4 661.3 1818 660.6C1818.6 660 1819.2 659.3 1819.8 658.6C1820.4 658 1821 657.3 1821.6 656.6C1822.2 656 1822.8 655.3 1823.4 654.6C1824 654 1824.6 653.3 1825.2 652.6C1825.8 652 1826.4 651.3 1827 650.6C1827.6 650 1828.2 649.3 1828.8 648.6C1829.4 648 1830 647.3 1830.6 646.6C1831.2 646 1831.8 645.3 1832.4 644.6C1833 644 1833.6 643.3 1834.2 642.6C1840.3 636.6 1843.7 627.6 1843.7 618C1843.7 608.4 1837.7 603.1 1831.8 603.1L1833.2 601.5ZM1397.6 579.5V579.2H1397.8C1397.8 579.2 1397.6 579.4 1397.6 579.5Z" fill="#8C001C"/>
<path d="M247.9 488.1C247.9 461.6 262.5 442.1 281.8 442.1C301.1 442.1 295.8 445.3 299.8 451.6C304.3 444.9 307.9 442.1 311.5 442.1C318.4 442.1 323.5 452.5 323.5 465.8C323.5 479.1 320.1 481.4 315.3 481.4C310.5 481.4 308.6 478.4 303.3 468.4C297.7 458 293.4 454.2 287.3 454.2C281.2 454.2 273 463.9 273 479.5C273 502.5 282.6 518.7 295.5 518.7C308.4 518.7 310.5 513.5 315.3 503.5C316.3 501.1 317.4 500.1 318.5 500.1C321.2 500.1 323.7 504.1 323.7 508.6C323.7 522.3 307.9 536.8 287.6 536.8C267.3 536.8 247.8 517 247.8 488.1H247.9Z" fill="#E3DDCA"/>
<path d="M341 535.3C333 535.3 329.1 531.8 329.1 526.9C329.1 522 330.6 521.2 333.2 518.4C335.2 516.3 337.1 513 337.1 504.1V474.8C337.1 465.8 335.4 462.7 333.4 460.6C330.5 457.5 329.2 455.1 329.2 452.2C329.2 447.1 333.9 443.6 342.1 443.6H386.3C397.3 443.6 401.8 453.6 401.8 463.8C401.8 474 399.1 480.1 395.8 480.1C392.5 480.1 393.2 479 391.3 475.2C386.8 466.3 381.3 458.6 373.3 458.6H368.8C362.7 458.6 360.4 462.6 360.4 469.6V473.8C360.4 479.7 362.5 482 366 482H369.9C372.3 482 373.6 480.4 374.8 477.6C375.9 475.4 377 473.2 379.7 473.2C382.4 473.2 385.8 479.1 385.8 487.5C385.8 495.9 382.9 503.6 379.3 503.6C375.7 503.6 376.3 501.9 375.3 499.5C374.2 496.1 372.6 494 369.9 494H365.9C362.7 494 360.4 497.4 360.4 502.5V509C360.4 515.9 363.3 520 370 520H374.4C381.1 520 385.9 515.4 391.6 503.8C395.6 496.8 397.3 494.9 399.5 494.9C403.4 494.9 405.9 501 405.9 510.1C405.9 524.4 399.9 535.1 391.7 535.1H341.2L341 535.3Z" fill="#E3DDCA"/>
<path d="M421.8 535.3C414.7 535.3 410.6 531.9 410.6 527.2C410.6 522.5 411.8 521.6 414.8 518.6C416.8 516.5 418.5 513.6 418.5 504.1V473.8C418.5 465.6 416.9 461.8 414.8 459.7C411.9 456.7 410.6 454.5 410.6 451.3C410.6 446.2 415.5 442.3 430.2 442.3C444.9 442.3 449.9 446.2 449.9 451.3C449.9 456.4 448.5 456.7 445.5 459.7C443.5 461.7 441.8 465.6 441.8 473.8V506.7C441.8 518.3 444.5 521.4 449.3 521.4H451.5C458 521.4 461.4 514.2 464 507.7C466.9 500.6 469.2 495.5 473.1 495.5C477 495.5 480.3 503.2 480.3 512C480.3 525.6 475.1 535.3 465.7 535.3H421.8Z" fill="#E3DDCA"/>
<path d="M495 535.3C487 535.3 483.1 531.8 483.1 526.9C483.1 522 484.6 521.2 487.2 518.4C489.2 516.3 491.1 513 491.1 504.1V474.8C491.1 465.8 489.4 462.7 487.4 460.6C484.5 457.5 483.2 455.1 483.2 452.2C483.2 447.1 487.9 443.6 496.1 443.6H540.3C551.3 443.6 555.8 453.6 555.8 463.8C555.8 474 553.1 480.1 549.8 480.1C546.5 480.1 547.2 479 545.3 475.2C540.8 466.3 535.3 458.6 527.3 458.6H522.8C516.7 458.6 514.4 462.6 514.4 469.6V473.8C514.4 479.7 516.5 482 520 482H523.9C526.3 482 527.6 480.4 528.8 477.6C529.9 475.4 531 473.2 533.7 473.2C536.4 473.2 539.8 479.1 539.8 487.5C539.8 495.9 536.9 503.6 533.3 503.6C529.7 503.6 530.3 501.9 529.3 499.5C528.2 496.1 526.6 494 523.9 494H519.9C516.7 494 514.4 497.4 514.4 502.5V509C514.4 515.9 517.3 520 524 520H528.4C535.1 520 539.9 515.4 545.6 503.8C549.6 496.8 551.3 494.9 553.5 494.9C557.4 494.9 559.9 501 559.9 510.1C559.9 524.4 553.9 535.1 545.7 535.1H495.2L495 535.3Z" fill="#E3DDCA"/>
<path d="M641.5 507.6C641.5 523.9 629.5 535.3 603.3 535.3H576.5C568.3 535.3 564.5 531.8 564.5 526.9C564.5 522 566 521.2 568.6 518.4C570.6 516.3 572.5 512.8 572.5 504.5V473.9C572.5 466 570.9 462.8 568.9 460.5C566.3 457.6 564.5 455 564.5 452C564.5 446.8 569.2 443.4 577.4 443.4H608.5C624.7 443.4 638.2 450.4 638.2 464.7C638.2 479 631.8 481.8 622.5 485.3C634.1 487.5 641.6 495.7 641.6 507.4L641.5 507.6ZM595.7 478.7C595.7 481.4 597.2 482.7 600.3 482.7C607.4 482.7 613.2 478.2 613.2 469.5C613.2 460.8 609.2 456.4 603.2 456.4C597.2 456.4 595.7 458.3 595.7 462.9V478.7ZM616.5 506.9C616.5 497.2 611.4 493 603 493C594.6 493 595.6 495 595.6 498.9V513.5C595.6 518.4 598.3 520.4 603.3 520.4C610.7 520.4 616.4 516.8 616.4 506.9H616.5Z" fill="#E3DDCA"/>
<path d="M731.6 510.6C731.6 522.8 726 536.8 713.8 536.8C701.6 536.8 696.6 526.2 686.5 503C684.3 497.8 682.8 496.4 680.6 496.4C678.4 496.4 677.4 497.9 677.4 501V508.4C677.4 513.5 679.3 516.6 681.4 519C684 521.7 685.6 524.1 685.6 527.2C685.6 532.8 680.7 536.8 665.4 536.8C650.1 536.8 646.2 532.9 646.2 527.2C646.2 521.5 647.7 521.5 650.4 518.7C652.6 516.7 654.1 513.3 654.1 506V474.8C654.1 466.2 652.6 462.8 650.2 460.3C647.3 457.3 646.1 455.1 646.1 452.4C646.1 447 650 443.5 662.6 443.5H690.6C712.3 443.5 723.2 453 723.2 466.5C723.2 480 714.3 487.5 703.9 492.6C709.8 504.8 712 507.7 715.8 507.7C719.6 507.7 720.5 505.8 722.3 503.7C723.9 501.3 725.2 500.3 726.7 500.3C729.9 500.3 731.8 504.7 731.8 510.5L731.6 510.6ZM698.1 468.3C698.1 460.4 692.2 456.6 683.8 456.6C675.4 456.6 677.3 458 677.3 460.8V483.5C677.3 486 678.7 486.9 681 486.9C688.1 486.9 698.1 479.3 698.1 468.3Z" fill="#E3DDCA"/>
<path d="M826.2 526.9C826.2 533.8 819.7 536.8 805 536.8C790.3 536.8 783.8 534.3 783.8 528.4C783.8 522.5 784.8 523.8 787.9 521.7C790 520.3 791.5 518.5 791.5 516.3C791.5 514.1 791.3 513.8 790.9 512.8L789.9 509.4C789 506.9 787.5 505.5 784.5 505.5H767.2C764.3 505.5 763.1 506.5 762.3 508.9L760.7 513.8C760.5 514.5 760.2 515.7 760.2 516.8C760.2 518.8 761.6 520.2 763.6 521.5C766.3 523.2 768 525 768 528C768 533.7 762.4 536.7 749.5 536.7C736.6 536.7 731.5 533.7 731.5 527.6C731.5 521.5 732.6 522.9 736.1 520.1C740.2 516.6 742.5 513.4 743.8 509.1L759 461.8L757.9 461.6C752 460.5 749.2 457.2 749.2 451.2C749.2 445.2 752.7 443.5 762.4 443.5H782.7C791.4 443.5 794.6 445.4 796.7 452.4L814.3 508.8C815.9 514.2 817.3 516.4 820.7 518.8C824.9 521.8 826.2 523.8 826.2 526.9ZM766.4 493.8H785.1L775.4 462.6L766.4 493.8Z" fill="#E3DDCA"/>
<path d="M836.8 527C836.8 523.9 838.2 521.8 841.2 518.6C843.2 516.6 844.8 513.2 844.8 505V463.7C844.8 458 843.7 455.6 840.2 455.6C836.7 455.6 833.3 462.3 831.1 469C828.5 477 826.4 482 822.4 482C818.4 482 815.2 474.5 815.2 463.2C815.2 451.9 819.2 440.5 826.6 440.5C834 440.5 834.6 443.6 842.9 443.6H870C878.6 443.6 881.7 440.5 886.6 440.5C894 440.5 898.1 451.5 898.1 463.2C898.1 474.9 895.1 482 890.7 482C886.3 482 884.5 476.8 882 469C879.9 462.4 877.4 455.6 872.9 455.6C868.4 455.6 868.3 458 868.3 463.7V505C868.3 512.9 869.8 516.5 871.8 518.5C874.9 521.6 876.3 523.9 876.3 527C876.3 532.5 871.3 536.7 856.8 536.7C842.3 536.7 837 532.5 837 527H836.8Z" fill="#E3DDCA"/>
<path d="M900.8 527C900.8 523.9 902.2 521.8 905 518.6C907.1 516.5 908.7 513.2 908.7 505V473.7C908.7 465.5 907.1 461.7 905 459.6C902.1 456.6 900.8 454.4 900.8 451.2C900.8 446.1 905.7 442.2 920.4 442.2C935.1 442.2 940.1 446.1 940.1 451.2C940.1 456.3 938.7 456.6 935.7 459.6C933.7 461.6 932 465.5 932 473.7V505C932 513.2 933.7 516.6 935.7 518.6C938.7 521.7 940.1 523.8 940.1 527C940.1 532.5 935.4 536.7 920.4 536.7C905.4 536.7 900.8 532.5 900.8 527Z" fill="#E3DDCA"/>
<path d="M946.8 526.9C946.8 524.3 947.9 522.2 950.8 519C952.9 516.8 954.8 514 954.8 507.8V473.1C954.8 465.9 953.2 462.2 951.1 460C948.2 457 946.7 455.1 946.7 451.9C946.7 448.7 950.6 443.5 959.7 443.5H968.2C975.2 443.5 979.4 446.6 983.8 453.7L1012 501.4V471.6C1012 466.4 1010.5 461.6 1008.4 459.6C1005.5 456.7 1004 454.4 1004 451.2C1004 445.7 1007.7 442.2 1019.3 442.2C1030.9 442.2 1034.5 445.7 1034.5 451.2C1034.5 456.7 1032.9 456.7 1030.1 459.6C1027.9 461.8 1026.4 466.3 1026.4 471.6V524.4C1026.4 533.1 1022.8 536.8 1014.9 536.8C1007 536.8 1005.5 534.6 1001.2 527.9L969.5 476.2V507.8C969.5 513.9 971.4 516.9 973.5 519C976.5 522.1 977.6 524.1 977.6 526.9C977.6 532.6 974.2 536.8 962.1 536.8C950 536.8 946.8 533.3 946.8 526.9Z" fill="#E3DDCA"/>
<path d="M1114.1 484.7C1119.5 484.7 1122.5 487.3 1122.5 494.2C1122.5 501.1 1121.6 523.4 1121.1 531.6C1121 534.8 1118.6 536.7 1114.9 536.7C1109.5 536.7 1105.2 532.8 1103.4 523.5L1103 521.3C1097.5 530.3 1088.4 536.8 1075.3 536.8C1051.1 536.8 1037.5 514.2 1037.5 489.8C1037.5 465.4 1052.1 442.1 1076.3 442.1C1100.5 442.1 1094.5 447.2 1097.5 453.1C1101.6 445.5 1105 442.1 1109.1 442.1C1116.5 442.1 1121 453.7 1121 464.9C1121 476.1 1118.6 479.5 1113.4 479.5C1108.2 479.5 1107.3 477 1100.7 468.3C1095 460.2 1089.8 455.2 1081 455.2C1072.2 455.2 1062.5 467.1 1062.5 483.4C1062.5 499.7 1070.7 520 1084.2 520C1097.7 520 1099.8 512 1099.8 504.7C1099.8 497.4 1097.9 499 1094.6 498.2L1089.6 497.2C1086.1 496.6 1084.9 494.3 1084.9 491.2C1084.9 488.1 1087.3 484.8 1091.3 484.8H1114.3L1114.1 484.7Z" fill="#E3DDCA"/>
<path d="M1162.2 526.9C1162.2 523.5 1163.7 521.7 1166.6 518.7C1168.6 516.6 1170.2 513.1 1170.2 505.8V473.2C1170.2 466.8 1169.1 462.6 1166.5 460C1163.5 457 1162.1 454.9 1162.1 451.6C1162.1 448.3 1165.6 443.5 1174.7 443.5H1185.8C1193.9 443.5 1198.8 447.1 1202.4 454.7L1216.7 484.8L1231.4 454.7C1235.6 446.3 1239.9 443.5 1247.9 443.5H1255.8C1265.4 443.5 1268.3 447.6 1268.3 451.4C1268.3 455.2 1266.7 457 1263.8 460C1261.3 462.7 1260.1 466.9 1260.1 473.2V505.3C1260.1 513 1261.7 516.7 1263.8 518.7C1266.7 521.7 1268 523.6 1268 527.1C1268 532.6 1262.6 536.8 1249.5 536.8C1236.4 536.8 1229.7 532.6 1229.7 527.1C1229.7 521.6 1231.6 521.2 1234.1 518.7C1236.2 516.6 1237.7 512.7 1237.7 505.3V475.1L1217.6 513.7C1216.6 515.6 1215.6 516.7 1213.6 516.7C1211.6 516.7 1210.9 515.8 1209.7 513.7L1190.2 475.4V505.8C1190.2 512.7 1191.7 516.5 1193.9 518.7C1196.3 521.2 1198.3 523.4 1198.3 526.9C1198.3 532.5 1193.8 536.8 1179 536.8C1164.2 536.8 1162.2 532.6 1162.2 526.9Z" fill="#E3DDCA"/>
<path d="M1274.7 527C1274.7 523.9 1276.1 521.8 1278.9 518.6C1281 516.5 1282.6 513.2 1282.6 505V473.7C1282.6 465.5 1281 461.7 1278.9 459.6C1276 456.6 1274.7 454.4 1274.7 451.2C1274.7 446.1 1279.6 442.2 1294.3 442.2C1309 442.2 1314 446.1 1314 451.2C1314 456.3 1312.6 456.6 1309.6 459.6C1307.6 461.6 1305.9 465.5 1305.9 473.7V505C1305.9 513.2 1307.6 516.6 1309.6 518.6C1312.6 521.7 1314 523.8 1314 527C1314 532.5 1309.3 536.7 1294.3 536.7C1279.3 536.7 1274.7 532.5 1274.7 527Z" fill="#E3DDCA"/>
<path d="M1318.2 509.9C1318.2 501.4 1320.6 495.1 1325.2 495.1C1329.8 495.1 1331.7 499.7 1334.4 505.2C1341.3 519.2 1348 524.7 1357.7 524.7C1367.4 524.7 1371.2 519.8 1371.2 512.1C1371.2 504.4 1366.6 502.2 1351.5 497C1330.2 489.4 1322.4 481.5 1322.4 468.2C1322.4 454.9 1332.8 442.1 1351.5 442.1C1370.2 442.1 1368.8 446.5 1371.5 449.6C1374.4 445.9 1377.7 442.1 1382.2 442.1C1388.8 442.1 1393.6 453 1393.6 464.3C1393.6 475.6 1391.2 476 1387 476C1382.8 476 1379.3 471.6 1375.4 465.8C1369.9 457.6 1365.5 451.6 1357.4 451.6C1349.3 451.6 1346.5 455.7 1346.5 461.6C1346.5 467.5 1351.2 472.1 1367.1 477.8C1388.8 485.8 1396.7 493.6 1396.7 506.9C1396.7 520.2 1384.5 536.8 1366.1 536.8C1347.7 536.8 1352.5 533.2 1347.4 533.2C1342.3 533.2 1339.8 536.8 1335.2 536.8C1324.7 536.8 1318.2 522.3 1318.2 510V509.9Z" fill="#E3DDCA"/>
<path d="M1401.6 509.9C1401.6 501.4 1404 495.1 1408.6 495.1C1413.2 495.1 1415.1 499.7 1417.8 505.2C1424.7 519.2 1431.4 524.7 1441.1 524.7C1450.8 524.7 1454.6 519.8 1454.6 512.1C1454.6 504.4 1450 502.2 1434.9 497C1413.6 489.4 1405.8 481.5 1405.8 468.2C1405.8 454.9 1416.2 442.1 1434.9 442.1C1453.6 442.1 1452.2 446.5 1454.9 449.6C1457.8 445.9 1461.1 442.1 1465.6 442.1C1472.2 442.1 1477 453 1477 464.3C1477 475.6 1474.6 476 1470.4 476C1466.2 476 1462.7 471.6 1458.8 465.8C1453.3 457.6 1448.9 451.6 1440.8 451.6C1432.7 451.6 1429.9 455.7 1429.9 461.6C1429.9 467.5 1434.6 472.1 1450.5 477.8C1472.2 485.8 1480.1 493.6 1480.1 506.9C1480.1 520.2 1467.9 536.8 1449.5 536.8C1431.1 536.8 1435.9 533.2 1430.8 533.2C1425.7 533.2 1423.2 536.8 1418.6 536.8C1408.1 536.8 1401.6 522.3 1401.6 510V509.9Z" fill="#E3DDCA"/>
<path d="M1484.7 527C1484.7 523.9 1486.1 521.8 1488.9 518.6C1491 516.5 1492.6 513.2 1492.6 505V473.7C1492.6 465.5 1491 461.7 1488.9 459.6C1486 456.6 1484.7 454.4 1484.7 451.2C1484.7 446.1 1489.6 442.2 1504.3 442.2C1519 442.2 1524 446.1 1524 451.2C1524 456.3 1522.6 456.6 1519.6 459.6C1517.6 461.6 1515.9 465.5 1515.9 473.7V505C1515.9 513.2 1517.6 516.6 1519.6 518.6C1522.6 521.7 1524 523.8 1524 527C1524 532.5 1519.3 536.7 1504.3 536.7C1489.3 536.7 1484.7 532.5 1484.7 527Z" fill="#E3DDCA"/>
<path d="M1528 490.5C1528 460.7 1546.2 442.1 1571.8 442.1C1597.4 442.1 1613.7 460.2 1613.7 488.4C1613.7 516.6 1595.6 536.8 1569.9 536.8C1544.2 536.8 1528 518.8 1528 490.5ZM1588.8 492.8C1588.8 470 1581.2 456.9 1569.8 456.9C1558.4 456.9 1553.1 467.4 1553.1 486.1C1553.1 504.8 1561.1 521.9 1571.9 521.9C1582.7 521.9 1588.7 511.5 1588.7 492.8H1588.8Z" fill="#E3DDCA"/>
<path d="M1617.9 526.9C1617.9 524.3 1619 522.2 1621.9 519C1624 516.8 1625.9 514 1625.9 507.8V473.1C1625.9 465.9 1624.3 462.2 1622.2 460C1619.3 457 1617.8 455.1 1617.8 451.9C1617.8 448.7 1621.7 443.5 1630.8 443.5H1639.3C1646.3 443.5 1650.5 446.6 1654.9 453.7L1683.1 501.4V471.6C1683.1 466.4 1681.6 461.6 1679.5 459.6C1676.6 456.7 1675.1 454.4 1675.1 451.2C1675.1 445.7 1678.8 442.2 1690.4 442.2C1702 442.2 1705.6 445.7 1705.6 451.2C1705.6 456.7 1704 456.7 1701.2 459.6C1699 461.8 1697.5 466.3 1697.5 471.6V524.4C1697.5 533.1 1693.9 536.8 1686 536.8C1678.1 536.8 1676.6 534.6 1672.3 527.9L1640.6 476.2V507.8C1640.6 513.9 1642.5 516.9 1644.6 519C1647.6 522.1 1648.7 524.1 1648.7 526.9C1648.7 532.6 1645.3 536.8 1633.2 536.8C1621.1 536.8 1617.9 533.3 1617.9 526.9Z" fill="#E3DDCA"/>
<path d="M199.3 583.8C203 588.7 205.2 594.4 205.2 600.4C205.2 624.4 185.4 640.7 156.2 640.7C127 640.7 117.3 629.3 117.3 611.3C117.3 593.3 123.5 590.6 134.3 586.1C128.9 581.9 126.1 575.6 126.1 568.6C126.1 554.9 136.2 546 151.8 546C167.4 546 176.9 556 176.9 565.2C176.9 574.4 173.4 575.3 169.7 575.3C166 575.3 166 573.7 164.6 570.3C161.4 562.1 157.7 558.6 152.6 558.6C147.5 558.6 144.4 562.5 144.4 568.1C144.4 573.7 147.8 579.1 154 580.3C156.2 580.5 157.2 580.2 158.7 580.4C160.6 580.6 161.7 581.8 161.7 583.5C161.7 587.2 156.8 591 148.2 591C143 592.9 140.1 598.6 140.1 604.7C140.1 615.2 147 621.9 160.9 621.9C174.8 621.9 188.6 612.4 188.6 599.4C188.6 586.4 185.9 590 181.4 590C176.9 590 175.3 592.9 175.3 596.1C175.3 600.8 177.7 602.5 177.7 604.2C177.7 605.9 175.8 606.9 173.5 606.9C168.9 606.9 162.8 603.7 162.8 595.2C162.8 586.7 169.7 580 179.5 577.6C192.6 574.4 196.6 572.1 196.6 568C196.6 563.9 195.1 564 191.6 564C188.1 564 185.4 566 183.5 566C181.6 566 180.8 564.9 180.8 562.8C180.8 557.7 186.3 549.7 197.4 549.7C208.5 549.7 214.1 556.8 214.1 564.7C214.1 572.6 209.5 579.8 199.6 583.7L199.3 583.8Z" fill="#E3DDCA"/>
<path d="M253 631.1C253 628 254.5 625.4 257.2 622.6C259.4 620.6 260.9 617.2 260.9 609.9V578.7C260.9 570.1 259.4 566.7 257 564.2C254.1 561.2 252.9 559 252.9 556.3C252.9 550.9 256.8 547.4 269.4 547.4H292.9C316.5 547.4 327 559.3 327 578.3C327 597.3 314.5 609.9 300 609.9C285.5 609.9 288.5 604.8 285.7 604.8C282.9 604.8 284.2 605.5 284.2 606.9V613.6C284.2 618 286.3 620.8 288.9 622.8C292.3 625.4 293.5 627.7 293.5 630.7C293.5 636.4 289 640.6 273.2 640.6C257.4 640.6 253 636.7 253 631V631.1ZM302.8 579C302.8 567.6 297.7 560.8 290.4 560.8C283.1 560.8 284.2 562.7 284.2 567.2V591.5C284.2 595.6 287.8 597.6 291.8 597.6C298 597.6 302.8 591.1 302.8 579Z" fill="#E3DDCA"/>
<path d="M337.1 604.3V577.5C337.1 569.4 335.4 565.5 333.4 563.6C330.7 560.7 329.2 558.4 329.2 555.4C329.2 550 334.3 546.3 348.8 546.3C363.3 546.3 368.5 550.3 368.5 555.3C368.5 560.3 367 560.7 364.1 563.7C362.1 565.7 360.4 569.3 360.4 577.1V605.2C360.4 619.8 365.8 626 375.2 626C384.6 626 391.8 619.5 391.8 604.7V574.3C391.8 567.9 390.6 565.2 387.4 562.3C384.8 560.2 383.3 558.3 383.3 555.1C383.3 549.6 389.9 546.5 401.1 546.5C412.3 546.5 418.6 549.2 418.6 555.1C418.6 561 417.7 559.1 414.9 562.3C411.7 565.9 410.9 568 410.9 571.9V605C410.9 627.6 398.4 640.9 373.5 640.9C348.6 640.9 337.2 629.4 337.2 604.5L337.1 604.3Z" fill="#E3DDCA"/>
<path d="M509 614.5C509 626.7 503.4 640.7 491.2 640.7C479 640.7 474 630.1 463.9 606.9C461.7 601.7 460.2 600.3 458 600.3C455.8 600.3 454.8 601.8 454.8 604.9V612.3C454.8 617.4 456.7 620.5 458.8 622.9C461.4 625.6 463 628 463 631.1C463 636.7 458.1 640.7 442.8 640.7C427.5 640.7 423.6 636.8 423.6 631.1C423.6 625.4 425.1 625.4 427.8 622.6C430 620.6 431.5 617.2 431.5 609.9V578.7C431.5 570.1 430 566.7 427.6 564.2C424.7 561.2 423.5 559 423.5 556.3C423.5 550.9 427.4 547.4 440 547.4H468C489.7 547.4 500.6 556.9 500.6 570.4C500.6 583.9 491.7 591.4 481.3 596.5C487.2 608.7 489.4 611.6 493.2 611.6C497 611.6 497.9 609.7 499.7 607.6C501.3 605.2 502.6 604.2 504.1 604.2C507.3 604.2 509.2 608.6 509.2 614.4L509 614.5ZM475.6 572.2C475.6 564.3 469.7 560.5 461.3 560.5C452.9 560.5 454.8 561.9 454.8 564.7V587.4C454.8 589.9 456.2 590.8 458.5 590.8C465.6 590.8 475.6 583.2 475.6 572.2Z" fill="#E3DDCA"/>
<path d="M511.2 631.1C511.2 628 512.7 625.4 515.4 622.6C517.6 620.6 519.1 617.2 519.1 609.9V578.7C519.1 570.1 517.6 566.7 515.2 564.2C512.3 561.2 511.1 559 511.1 556.3C511.1 550.9 515 547.4 527.6 547.4H551.1C574.7 547.4 585.2 559.3 585.2 578.3C585.2 597.3 572.7 609.9 558.2 609.9C543.7 609.9 546.7 604.8 543.9 604.8C541.1 604.8 542.4 605.5 542.4 606.9V613.6C542.4 618 544.5 620.8 547.1 622.8C550.5 625.4 551.7 627.7 551.7 630.7C551.7 636.4 547.2 640.6 531.4 640.6C515.6 640.6 511.2 636.7 511.2 631V631.1ZM560.9 579C560.9 567.6 555.8 560.8 548.5 560.8C541.2 560.8 542.3 562.7 542.3 567.2V591.5C542.3 595.6 545.9 597.6 549.9 597.6C556.1 597.6 560.9 591.1 560.9 579Z" fill="#E3DDCA"/>
<path d="M591.4 594.4C591.4 564.6 609.6 546 635.2 546C660.8 546 677.1 564.1 677.1 592.3C677.1 620.5 659 640.7 633.3 640.7C607.6 640.7 591.4 622.7 591.4 594.4ZM652.2 596.8C652.2 574 644.6 560.9 633.2 560.9C621.8 560.9 616.5 571.4 616.5 590.1C616.5 608.8 624.5 625.9 635.3 625.9C646.1 625.9 652.1 615.5 652.1 596.8H652.2Z" fill="#E3DDCA"/>
<path d="M683.6 613.9C683.6 605.4 686 599.1 690.6 599.1C695.2 599.1 697.1 603.7 699.8 609.2C706.7 623.2 713.4 628.7 723.1 628.7C732.8 628.7 736.6 623.8 736.6 616.1C736.6 608.4 732 606.2 716.9 601C695.6 593.4 687.8 585.5 687.8 572.2C687.8 558.9 698.2 546.1 716.9 546.1C735.6 546.1 734.2 550.5 736.9 553.6C739.8 549.9 743.1 546.1 747.6 546.1C754.2 546.1 759 557 759 568.3C759 579.6 756.6 580 752.4 580C748.2 580 744.7 575.6 740.8 569.8C735.3 561.6 730.9 555.6 722.8 555.6C714.7 555.6 711.9 559.7 711.9 565.6C711.9 571.5 716.6 576.1 732.5 581.8C754.2 589.8 762.1 597.6 762.1 610.9C762.1 624.2 749.9 640.8 731.5 640.8C713.1 640.8 717.9 637.2 712.8 637.2C707.7 637.2 705.2 640.8 700.6 640.8C690.1 640.8 683.6 626.3 683.6 614V613.9Z" fill="#E3DDCA"/>
<path d="M778.5 639.2C770.5 639.2 766.6 635.7 766.6 630.8C766.6 625.9 768.1 625.1 770.7 622.3C772.7 620.2 774.6 616.9 774.6 608V578.7C774.6 569.7 772.9 566.6 770.9 564.5C768 561.4 766.7 559 766.7 556.1C766.7 551 771.4 547.5 779.6 547.5H823.8C834.8 547.5 839.3 557.5 839.3 567.7C839.3 577.9 836.6 584 833.3 584C830 584 830.7 582.9 828.8 579.1C824.3 570.2 818.8 562.5 810.8 562.5H806.3C800.2 562.5 797.9 566.5 797.9 573.5V577.7C797.9 583.6 800 585.9 803.5 585.9H807.4C809.8 585.9 811.1 584.3 812.3 581.5C813.4 579.3 814.5 577.1 817.2 577.1C819.9 577.1 823.3 583 823.3 591.4C823.3 599.8 820.4 607.5 816.8 607.5C813.2 607.5 813.8 605.8 812.8 603.4C811.7 600 810.1 597.9 807.4 597.9H803.4C800.2 597.9 797.9 601.3 797.9 606.4V612.9C797.9 619.8 800.8 623.9 807.5 623.9H811.9C818.6 623.9 823.4 619.3 829.1 607.7C833.1 600.7 834.8 598.8 837 598.8C840.9 598.8 843.4 604.9 843.4 614C843.4 628.3 837.4 639 829.2 639H778.7L778.5 639.2Z" fill="#E3DDCA"/>
<path d="M868.1 612C856.9 612 852.1 608.5 852.1 602C852.1 595.5 856.8 592 868.1 592H888.1C899.3 592 904.2 595.4 904.2 602C904.2 608.6 899.3 612 888.1 612H868.1Z" fill="#E3DDCA"/>
<path d="M923.9 639.2C915.7 639.2 910.9 636.7 910.9 630.8C910.9 624.9 912.3 625.3 915 622.3C917.4 619.7 918.9 616.3 918.9 608.4V577.8C918.9 570.3 917.4 566.6 915.2 564.3C912.6 561.4 911 558.9 911 555.9C911 550.8 915.6 547.3 924.2 547.3H948.8C978.4 547.3 996.6 561.8 996.6 590.8C996.6 619.8 980.5 639 946.9 639H923.9V639.2ZM971.6 591C971.6 573.5 963.7 560.9 951.4 560.9C939.1 560.9 942.2 564.9 942.2 572.8V613.9C942.2 621.6 945.2 625.9 951.3 625.9C962.7 625.9 971.6 613 971.6 591.1V591Z" fill="#E3DDCA"/>
<path d="M1086 614.5C1086 626.7 1080.4 640.7 1068.2 640.7C1056 640.7 1051 630.1 1040.9 606.9C1038.7 601.7 1037.2 600.3 1035 600.3C1032.8 600.3 1031.8 601.8 1031.8 604.9V612.3C1031.8 617.4 1033.7 620.5 1035.8 622.9C1038.4 625.6 1040 628 1040 631.1C1040 636.7 1035.1 640.7 1019.8 640.7C1004.5 640.7 1000.6 636.8 1000.6 631.1C1000.6 625.4 1002.1 625.4 1004.8 622.6C1007 620.6 1008.5 617.2 1008.5 609.9V578.7C1008.5 570.1 1007 566.7 1004.6 564.2C1001.7 561.2 1000.5 559 1000.5 556.3C1000.5 550.9 1004.4 547.4 1017 547.4H1045C1066.7 547.4 1077.6 556.9 1077.6 570.4C1077.6 583.9 1068.7 591.4 1058.3 596.5C1064.2 608.7 1066.4 611.6 1070.2 611.6C1074 611.6 1074.9 609.7 1076.7 607.6C1078.3 605.2 1079.6 604.2 1081.1 604.2C1084.3 604.2 1086.2 608.6 1086.2 614.4L1086 614.5ZM1052.6 572.2C1052.6 564.3 1046.7 560.5 1038.3 560.5C1029.9 560.5 1031.8 561.9 1031.8 564.7V587.4C1031.8 589.9 1033.2 590.8 1035.5 590.8C1042.6 590.8 1052.6 583.2 1052.6 572.2Z" fill="#E3DDCA"/>
<path d="M1088.1 631C1088.1 627.9 1089.5 625.8 1092.3 622.6C1094.4 620.5 1096 617.2 1096 609V577.7C1096 569.5 1094.4 565.7 1092.3 563.6C1089.4 560.6 1088.1 558.4 1088.1 555.2C1088.1 550.1 1093 546.2 1107.7 546.2C1122.4 546.2 1127.4 550.1 1127.4 555.2C1127.4 560.3 1126 560.6 1123 563.6C1121 565.6 1119.3 569.5 1119.3 577.7V609C1119.3 617.2 1121 620.6 1123 622.6C1126 625.7 1127.4 627.8 1127.4 631C1127.4 636.5 1122.7 640.7 1107.7 640.7C1092.7 640.7 1088.1 636.5 1088.1 631Z" fill="#E3DDCA"/>
<path d="M1161.7 628.3C1156.6 614.7 1146.6 586.4 1140.6 572C1139.4 568.9 1137.2 566.4 1135.1 564.5C1131.6 561.1 1130.1 559.1 1130.1 555.9C1130.1 549.9 1136.5 546.3 1150.7 546.3C1164.9 546.3 1172.5 549.4 1172.5 555.4C1172.5 561.4 1170.8 560.4 1169 562C1167.3 563.5 1165.9 565.4 1165.9 568.1C1165.9 570.8 1166.4 572.1 1167.3 575.1C1170.4 584.3 1175.5 600.3 1181 615.8C1185.9 602.4 1192.1 584.5 1195.1 572C1195.5 570 1195.7 568.4 1195.7 566.9C1195.7 564.4 1194.5 562.9 1192.7 561.8C1189.3 558.3 1188.7 557.2 1188.7 554.8C1188.7 549.2 1195.1 546.3 1206.8 546.3C1218.5 546.3 1226.1 549.8 1226.1 555.7C1226.1 561.6 1224.7 561.4 1221.1 564.3C1218.4 566.5 1215.4 569.5 1213.6 574.4C1208.2 589.7 1200.9 611.2 1193 630.7C1190.3 637.2 1186.1 640.8 1178 640.8C1169.9 640.8 1164.9 637.7 1161.5 628.3H1161.7Z" fill="#E3DDCA"/>
<path d="M1240.8 639.2C1232.8 639.2 1228.9 635.7 1228.9 630.8C1228.9 625.9 1230.4 625.1 1233 622.3C1235 620.2 1236.9 616.9 1236.9 608V578.7C1236.9 569.7 1235.2 566.6 1233.2 564.5C1230.3 561.4 1229 559 1229 556.1C1229 551 1233.7 547.5 1241.9 547.5H1286.1C1297.1 547.5 1301.6 557.5 1301.6 567.7C1301.6 577.9 1298.9 584 1295.6 584C1292.3 584 1293 582.9 1291.1 579.1C1286.6 570.2 1281.1 562.5 1273.1 562.5H1268.6C1262.5 562.5 1260.2 566.5 1260.2 573.5V577.7C1260.2 583.6 1262.3 585.9 1265.8 585.9H1269.7C1272.1 585.9 1273.4 584.3 1274.6 581.5C1275.7 579.3 1276.8 577.1 1279.5 577.1C1282.2 577.1 1285.6 583 1285.6 591.4C1285.6 599.8 1282.7 607.5 1279.1 607.5C1275.5 607.5 1276.1 605.8 1275.1 603.4C1274 600 1272.4 597.9 1269.7 597.9H1265.7C1262.5 597.9 1260.2 601.3 1260.2 606.4V612.9C1260.2 619.8 1263.1 623.9 1269.8 623.9H1274.2C1280.9 623.9 1285.7 619.3 1291.4 607.7C1295.4 600.7 1297.1 598.8 1299.3 598.8C1303.2 598.8 1305.7 604.9 1305.7 614C1305.7 628.3 1299.7 639 1291.5 639H1241L1240.8 639.2Z" fill="#E3DDCA"/>
<path d="M1310.5 630.9C1310.5 628.3 1311.6 626.2 1314.5 623C1316.6 620.8 1318.5 618 1318.5 611.8V577.1C1318.5 569.9 1316.9 566.2 1314.8 564C1311.9 561 1310.4 559.1 1310.4 555.9C1310.4 552.7 1314.3 547.5 1323.4 547.5H1331.9C1338.9 547.5 1343.1 550.6 1347.5 557.7L1375.7 605.4V575.6C1375.7 570.4 1374.2 565.6 1372.1 563.6C1369.2 560.7 1367.7 558.4 1367.7 555.2C1367.7 549.7 1371.4 546.2 1383 546.2C1394.6 546.2 1398.2 549.7 1398.2 555.2C1398.2 560.7 1396.6 560.7 1393.8 563.6C1391.6 565.8 1390.1 570.3 1390.1 575.6V628.4C1390.1 637.1 1386.5 640.8 1378.6 640.8C1370.7 640.8 1369.2 638.6 1364.9 631.9L1333.2 580.2V611.8C1333.2 617.9 1335.1 620.9 1337.2 623C1340.2 626.1 1341.3 628.1 1341.3 630.9C1341.3 636.6 1337.9 640.8 1325.8 640.8C1313.7 640.8 1310.5 637.3 1310.5 630.9Z" fill="#E3DDCA"/>
<path d="M1461.6 630C1455 609.8 1447.9 589.2 1442 572.2C1440.8 568.8 1438.9 566.2 1436.5 564.5C1432.9 561.8 1431.4 559.9 1431.4 556.5C1431.4 549.8 1438.6 546.3 1453.2 546.3C1467.8 546.3 1473.7 549 1473.7 555.3C1473.7 561.6 1472.3 560.5 1470.1 562.3C1468.1 563.9 1467 565.5 1467 567.4C1467 569.3 1467.6 571.9 1468.2 574.5C1470.7 583 1474.9 597.6 1480.2 615.1C1485.2 595.3 1492.1 569.1 1492.1 565.7C1492.1 562.3 1491.1 562.5 1489.2 561.2C1486.2 558.8 1485.2 557.3 1485.2 554.8C1485.2 549.2 1491.4 546.3 1503.8 546.3C1516.2 546.3 1521.9 549 1521.9 554.7C1521.9 560.4 1521.3 558.3 1518.7 560.4C1516.7 561.9 1516 563.6 1516 565.6C1516 568.7 1522.4 592.3 1528.9 615C1532.8 601.5 1537 584.9 1540.1 574.3C1541 571.1 1541.2 568.7 1541.2 566.7C1541.2 564.7 1540.2 562.8 1538 561C1535.6 559 1534.8 557.4 1534.8 555.4C1534.8 549.2 1540.3 546.3 1552.8 546.3C1565.3 546.3 1571.6 549.2 1571.6 555.7C1571.6 562.2 1570.1 561.4 1566.6 564.4C1562.5 567.9 1560.5 570.5 1559.2 574.4C1554.3 589.2 1546.7 612.5 1540.4 630.6C1538 637.7 1533.7 640.8 1526.4 640.8C1519.1 640.8 1514.9 637.4 1511.9 629.8C1508.4 619.4 1504 606.2 1500.2 593.6C1496.8 606.3 1493 619.7 1489.7 630.5C1487.1 637.7 1482.8 640.7 1475.7 640.7C1468.6 640.7 1464.1 637.5 1461.7 630H1461.6Z" fill="#E3DDCA"/>
<path d="M1569.1 594.4C1569.1 564.6 1587.3 546 1612.9 546C1638.5 546 1654.8 564.1 1654.8 592.3C1654.8 620.5 1636.7 640.7 1611 640.7C1585.3 640.7 1569.1 622.7 1569.1 594.4ZM1629.9 596.8C1629.9 574 1622.3 560.9 1610.9 560.9C1599.5 560.9 1594.2 571.4 1594.2 590.1C1594.2 608.8 1602.2 625.9 1613 625.9C1623.8 625.9 1629.8 615.5 1629.8 596.8H1629.9Z" fill="#E3DDCA"/>
<path d="M1744.3 614.5C1744.3 626.7 1738.7 640.7 1726.5 640.7C1714.3 640.7 1709.3 630.1 1699.2 606.9C1697 601.7 1695.5 600.3 1693.3 600.3C1691.1 600.3 1690.1 601.8 1690.1 604.9V612.3C1690.1 617.4 1692 620.5 1694.1 622.9C1696.7 625.6 1698.3 628 1698.3 631.1C1698.3 636.7 1693.4 640.7 1678.1 640.7C1662.8 640.7 1658.9 636.8 1658.9 631.1C1658.9 625.4 1660.4 625.4 1663.1 622.6C1665.3 620.6 1666.8 617.2 1666.8 609.9V578.7C1666.8 570.1 1665.3 566.7 1662.9 564.2C1660 561.2 1658.8 559 1658.8 556.3C1658.8 550.9 1662.7 547.4 1675.3 547.4H1703.3C1725 547.4 1735.9 556.9 1735.9 570.4C1735.9 583.9 1727 591.4 1716.6 596.5C1722.5 608.7 1724.7 611.6 1728.5 611.6C1732.3 611.6 1733.2 609.7 1735 607.6C1736.6 605.2 1737.9 604.2 1739.4 604.2C1742.6 604.2 1744.5 608.6 1744.5 614.4L1744.3 614.5ZM1710.9 572.2C1710.9 564.3 1705 560.5 1696.6 560.5C1688.2 560.5 1690.1 561.9 1690.1 564.7V587.4C1690.1 589.9 1691.5 590.8 1693.8 590.8C1700.9 590.8 1710.9 583.2 1710.9 572.2Z" fill="#E3DDCA"/>
<path d="M1837.5 616.4C1837.5 629.6 1829.4 640.7 1818.5 640.7C1807.6 640.7 1802.5 635 1795.3 619.5C1787.4 603 1782.7 596.3 1778.7 596.3H1777.6V609C1777.6 617.2 1779.3 620.6 1781.3 622.6C1784.3 625.7 1785.7 627.8 1785.7 631C1785.7 636.5 1781 640.7 1766 640.7C1751 640.7 1746.4 636.5 1746.4 631C1746.4 625.5 1747.8 625.8 1750.6 622.6C1752.7 620.5 1754.3 617.2 1754.3 609V577.7C1754.3 569.5 1752.7 565.7 1750.6 563.6C1747.7 560.6 1746.4 558.4 1746.4 555.2C1746.4 550.1 1751.3 546.2 1766 546.2C1780.7 546.2 1785.7 550.1 1785.7 555.2C1785.7 560.3 1784.3 560.6 1781.3 563.6C1779.3 565.6 1777.6 569.5 1777.6 577.7V590.9L1799.9 569.4C1801.5 567.8 1803.5 565.8 1803.5 564.9C1803.5 564 1802.1 562.8 1800.4 561.4C1798.7 559.7 1796.4 557.3 1796.4 553.9C1796.4 550.5 1801.8 546.2 1814.5 546.2C1827.2 546.2 1832.2 549.6 1832.2 554.2C1832.2 558.8 1824.8 564.1 1818.2 570.5L1801.7 587C1806.4 592.6 1811.4 599.6 1815.7 605.8C1819.9 612 1823.1 614.8 1825.8 614.8C1828.5 614.8 1828.3 614.1 1830 611.3C1831.1 609.7 1832 608.9 1833 608.9C1835.6 608.9 1837.4 612 1837.4 616.3L1837.5 616.4Z" fill="#E3DDCA"/>
</svg>
