<svg width="197" height="197" viewBox="0 0 197 197" fill="none" xmlns="http://www.w3.org/2000/svg">
<path d="M82.8607 180.892C128.623 189.27 172.513 158.964 180.892 113.201C189.27 67.4383 158.964 23.5484 113.201 15.1701C67.4383 6.7919 23.5484 37.098 15.1701 82.8607C6.7919 128.623 37.098 172.513 82.8607 180.892Z" fill="#21261A"/>
<path d="M79.9162 105.349C82.3539 94.9065 75.5617 93.1881 77.1478 81.0967C77.8557 75.7477 78.8497 70.6887 79.937 65.1208C81.1188 67.5592 82.5804 69.489 84.7492 70.2422C87.382 71.1483 89.7896 70.6901 92.0076 69.0438C94.3367 72.9982 99.2333 73.8608 102.872 71.0329C104.539 74.3403 107.407 75.8152 111.275 76.184C105.554 79.1735 101.527 83.6603 99.8436 89.7975C99.6307 90.5896 100.587 91.6637 101.218 91.8301C105.478 92.9321 101.978 81.8433 118.098 77.8234C118.988 77.5962 119.728 76.7987 119.905 76.017C120.055 75.3829 119.501 73.9586 118.749 73.804L109.854 72.1755C107.117 71.6573 105.467 69.4557 105.617 66.7862C105.744 64.3331 108.114 61.7648 110.887 62.2726L126.429 65.1179C129.914 65.7221 132.179 69.1899 131.542 72.6691L129.061 86.2248C128.473 89.34 126.736 92.1597 124.517 94.3656L116.628 102.25C114.284 104.586 112.8 107.689 112.336 111.149L106.368 156.717C105.928 160.046 102.858 161.808 99.7891 161.246L73.4982 156.432C70.5934 155.901 68.5868 153.057 69.2978 150.1L74.4979 128.46L79.9162 105.349Z" fill="#E3DDCA"/>
<path d="M154.175 140.452C143.413 146.521 129.913 143.083 122.952 133.022C119.785 128.457 118.497 122.895 119.407 117.277L147.283 73.0403C147.471 72.7525 147.704 72.2186 147.675 72.0096C147.645 71.8007 147.237 71.251 146.998 71.0717L139.034 65.4749C136.028 63.3641 132.945 61.7651 129.634 60.0226L131.271 51.4515C138.137 54.2519 143.876 58.203 149.689 62.4899C153.528 65.3299 157.621 67.2495 162.305 68.158C164.715 68.6161 166.062 70.7965 165.784 72.9674C165.498 75.0861 163.833 77.1389 161.374 76.8583C159.266 76.608 157.328 75.9819 155.087 75.436L165.136 125.514C163.897 132.004 160.015 137.179 154.172 140.468L154.175 140.452ZM159.785 122.872L157.43 110.534L150.498 76.9704L132.226 105.53L125.393 116.542L159.808 122.842L159.785 122.872Z" fill="#E3DDCA"/>
<path d="M25.4071 107.362C24.9547 105.108 24.7718 102.123 25.6635 100.217C27.6205 96.0126 30.1094 92.5162 32.5526 88.6214L52.5462 56.6799L47.3658 56.0707C44.877 55.7677 43.2544 53.7914 43.3408 51.4666C43.421 49.3611 45.1908 46.9204 47.7137 47.3144C52.7134 48.0771 57.4098 47.9023 62.3643 46.5026C69.4103 44.5191 76.4229 42.9025 84.0264 42.5984C83.0589 45.4744 82.4423 48.194 81.9089 51.2003C79.0103 51.6534 76.0524 51.8751 73.2042 52.6088L60.4816 55.8599L71.0932 108.331C69.5408 116.069 64.2676 121.803 57.1326 124.551C43.578 129.753 28.3022 121.936 25.4011 107.394L25.4071 107.362ZM65.7646 105.659L62.7049 90.2236L56.3477 59.8183L41.4444 83.0407L31.262 99.3761L65.7586 105.692L65.7646 105.659ZM56.0772 120.033C60.6593 118.073 64.1239 114.806 65.8888 110.261L29.7347 103.642C29.4939 106.532 30.3963 109.293 31.8348 111.812C36.6936 120.385 46.88 123.946 56.0772 120.033Z" fill="#E3DDCA"/>
<path d="M102.092 65.5642C101.638 68.0423 99.8027 69.4532 97.5932 69.0148C95.515 68.6004 94.2101 66.6484 94.6338 64.3344L98.5067 43.1802C98.9047 41.099 101.149 40.0512 102.799 40.3024C104.915 40.6049 106.24 42.6286 105.838 44.8277L102.089 65.5806L102.092 65.5642Z" fill="#E3DDCA"/>
<path d="M90.9782 63.9196C90.5846 66.0695 88.6715 67.3475 86.7155 67.0064C84.858 66.6833 83.2127 64.9234 83.6093 62.7571L86.653 46.1325C87.0436 43.999 89.2267 42.8213 91.0782 43.1772C93.0087 43.5646 94.3838 45.4107 93.9902 47.5606L90.9976 63.9062L90.9782 63.9196Z" fill="#E3DDCA"/>
<path d="M114.69 59.1014C111.902 58.4892 109.642 58.1432 106.947 59.0576L110.366 40.7546C110.708 38.8837 113.127 37.9018 114.637 38.1782C116.114 38.4486 118.038 40.2596 117.715 42.1171L114.69 59.1014Z" fill="#E3DDCA"/>
<path d="M125.758 61.0938L118.216 59.7639L120.757 46.253C121.136 44.1852 123.387 43.1896 125.11 43.5051C126.784 43.8116 128.467 45.6461 128.12 47.6349L125.755 61.1102L125.758 61.0938Z" fill="#E3DDCA"/>
<path d="M141.076 100.179C141.546 103.352 144.16 104.916 147.008 104.742C149.702 104.573 151.655 102.336 151.891 99.5635C152.094 96.9717 150.274 94.5013 147.46 93.9353C145.611 93.5629 143.766 94.1919 142.613 95.3037C141.459 96.4155 140.806 98.3144 141.092 100.182L141.076 100.179ZM144.96 110.185C148.506 111.105 150.481 113.841 150.476 117.3C150.471 118.623 151.567 119.586 152.674 119.653C153.967 119.721 155.004 118.689 155.046 117.255C155.201 111.313 150.826 106.492 145.003 105.596C139.363 104.716 134.034 107.607 132.01 112.919C131.486 114.299 131.926 115.6 133.191 116.103C134.267 116.521 135.657 116.063 136.114 114.773C137.412 111.109 140.977 109.15 144.976 110.188L144.96 110.185Z" fill="#E3DDCA"/>
<path d="M51.7757 76.638C48.4983 76.937 46.3905 79.9264 46.9241 82.9414C47.4012 85.7087 49.9325 87.8174 52.9025 87.53C55.7874 87.244 58.0142 84.5308 57.758 81.6683C57.4871 78.7014 55.0501 76.3555 51.7891 76.6575L51.7757 76.638ZM50.6022 92.9606C54.2767 93.7351 56.4401 96.5566 56.482 100.126C56.4968 101.435 57.4715 102.411 58.6504 102.457C62.4913 102.6 61.1002 95.561 58.1449 92.34C54.5399 88.4065 48.9365 87.1431 44.0781 89.2219C40.9875 90.5388 38.7043 93.0042 37.8766 96.228C37.5378 97.5229 38.3452 98.6714 39.4461 98.9578C40.6754 99.2846 41.7282 98.6293 42.1923 97.3913C43.471 93.9278 46.8621 92.174 50.5992 92.977L50.6022 92.9606Z" fill="#E3DDCA"/>
<path d="M144.96 110.185C140.96 109.147 137.396 111.107 136.098 114.77C135.641 116.06 134.251 116.518 133.174 116.101C131.906 115.614 131.469 114.296 131.993 112.916C134.02 107.588 139.33 104.71 144.986 105.593C150.826 106.493 155.185 111.31 155.03 117.252C154.988 118.686 153.964 119.737 152.657 119.651C151.55 119.584 150.455 118.62 150.459 117.298C150.484 113.825 148.489 111.102 144.943 110.182L144.96 110.185Z" fill="#E3DDCA"/>
<path d="M141.076 100.179C140.806 98.3145 141.353 96.5319 142.596 95.3008C143.839 94.0697 145.595 93.56 147.443 93.9323C150.274 94.5014 152.094 96.9718 151.875 99.5606C151.655 102.336 149.702 104.573 146.992 104.739C144.144 104.913 141.533 103.332 141.059 100.176L141.076 100.179Z" fill="#E3DDCA"/>
<path d="M50.6022 92.9602C46.8621 92.1737 43.4904 93.914 42.1954 97.3745C41.7282 98.6289 40.6784 99.2678 39.4492 98.941C38.3482 98.6546 37.5438 97.4897 37.8796 96.2112C38.7073 92.9874 40.9711 90.5354 44.0811 89.2051C48.9395 87.1264 54.5593 88.3927 58.1479 92.3232C61.0868 95.5412 62.4943 102.583 58.6534 102.44C57.4746 102.394 56.5162 101.421 56.485 100.109C56.4431 96.5398 54.2798 93.7183 50.6052 92.9438L50.6022 92.9602Z" fill="#E3DDCA"/>
<path d="M51.7756 76.638C55.0366 76.3361 57.4706 78.6983 57.7446 81.6489C58.0007 84.5114 55.7769 87.2082 52.889 87.5106C49.9324 87.8174 47.4042 85.6923 46.9106 82.922C46.3771 79.907 48.4818 76.9339 51.7622 76.6186L51.7756 76.638Z" fill="#E3DDCA"/>
</svg>
