<svg width="1920" height="1080" viewBox="0 0 1920 1080" fill="none" xmlns="http://www.w3.org/2000/svg">
<path d="M1780 489.5L1779.8 488.7C1779.3 478.4 1779.8 463.7 1780.4 450.7C1780.7 443.6 1780.9 436.9 1781 431.3C1781.2 425 1781.4 418.6 1781.6 412.5C1781.8 406.7 1781.9 400.7 1782.1 394.8C1784 370 1778.3 360.7 1773.9 355.9C1769.2 350.9 1762.9 348.2 1755.4 348.2C1747.9 348.2 1748.1 348.8 1744.1 350C1744 350 1743.9 350 1743.8 350C1718 358.3 1710.3 371.6 1704.6 381.4C1701.2 387.1 1699.2 390.3 1695 392.6C1693.9 393 1692.7 393.4 1691.4 393.8C1687.1 395.2 1682.3 396.7 1677.7 400C1669.9 404.9 1663.8 413.5 1658.8 421.8C1653 407.8 1642.4 396.6 1628.4 396.6C1624 396.6 1619.6 397.7 1615.3 400C1612.6 401.3 1610.4 403.1 1608.4 404.8C1605 402 1600.7 399.1 1595 398.3C1594.8 398.3 1594.6 398.3 1594.4 398.3C1593.3 398.3 1592.2 398.2 1591 398.2C1581.4 398.2 1571.3 401.4 1561.8 407.4C1557.3 410.2 1553.2 413.6 1549.6 417.3C1548.2 413.9 1546.3 410.9 1544 408.5C1539.3 403.6 1533.2 400.9 1526.2 400.9C1523.3 400.9 1520.2 401.4 1517 402.3C1513.5 403.3 1510.2 404.7 1507.1 406.1C1503.7 407.6 1500.2 409.2 1497.8 409.3C1497.7 409.3 1497.6 409.3 1497.5 409.3C1495.9 409.3 1493.6 408.4 1491 407.4C1488.5 406.4 1485.6 405.2 1482.3 404.5C1478.6 403.6 1474.8 403.1 1471.1 403.1C1467.4 403.1 1467.2 403.2 1465.3 403.5C1448.5 405.7 1437.9 416.3 1429.9 428C1429.9 424.1 1430.1 420 1430.3 415.6C1430.5 409.1 1430.8 402.4 1430.8 396.5C1431 386.3 1427.9 377.4 1422 371.3C1417.1 366.3 1410.6 363.6 1403.4 363.6C1399.9 363.6 1396.3 364.2 1392.6 365.4C1377.2 370 1363.6 379.7 1356.3 391.4C1354.7 393.7 1353.4 396 1352.1 398.2C1350.2 401.4 1348.5 404.5 1346.5 406.3C1345.1 407.6 1342.4 408.5 1339.4 409.4C1338.2 409.8 1337 410.1 1335.7 410.6C1320.5 416 1312 429.6 1305.7 440C1304.4 434 1302.2 428.7 1299.1 424.4C1293.2 416.2 1284.2 411.7 1273.8 411.7C1270.1 411.7 1266.2 412.3 1262.1 413.3C1257.4 414.3 1253.5 416.2 1250 417.9C1247.5 419.1 1245.2 420.2 1243.4 420.6C1240.2 420.1 1237.9 419.1 1235.1 417.8C1231.2 416 1226.4 413.8 1219.8 413.8C1214.7 413.8 1209.4 415 1203 417.7C1193.4 421.5 1185.3 426.8 1179.1 433.2C1177.7 429.8 1175.7 426.7 1173.3 424.2C1168.7 419.4 1162.6 416.8 1155.9 416.8C1155.4 416.8 1154.9 416.8 1154.4 416.8C1147.6 417 1141.8 419.6 1136.7 421.9C1133.3 423.4 1130 424.9 1127.4 425.1C1125 424.9 1122 423.9 1118.9 422.7C1114 420.9 1108.5 418.9 1102.1 418.9C1101.6 418.9 1101.1 418.9 1100.6 418.9C1100.4 418.9 1100.3 418.9 1100.1 418.9C1082.4 418.9 1070 429.3 1061.3 441C1061.1 440.5 1061 440.1 1060.8 439.6C1059.4 436.1 1057.6 433.3 1055.9 430.9C1054.9 429.5 1054 428.1 1053.5 427C1052.8 425.4 1052.7 423.2 1052.5 420.3C1052.3 417.3 1052.1 413.9 1051.2 410.2C1049.3 399.5 1040.5 391.5 1030.6 391.5C1025.5 391.5 1020.6 393.5 1016.6 397.4C1010.7 402.9 1006.8 409.7 1003.3 415.6C1001.3 419 999.5 422.2 997.4 424.9C997.4 424.9 997.3 425.1 997.2 425.2C995.8 427.2 993.1 428.8 990 430.7C989 431.3 988 431.9 987 432.5C986.3 427 984.4 421.8 981.4 416.9C976 406.7 966.8 398.2 954.8 392.3C943.7 386.9 931.1 384 918.2 384C912.7 384 907.4 384.5 902.3 385.6L905.1 380.9C905.5 380.3 905.8 379.7 906.2 379C910.1 372.4 914.9 364.2 914.6 354.5C914.6 345.5 909.2 339.8 904.4 336.2C905.1 334.9 905.9 333.6 906.6 332.6C909 328.8 911.2 325.1 912.2 321.4C918.2 303.8 915.7 285.9 905 270.7C892.9 253.6 872.3 243 851.2 243C842.9 243 835 244.6 827.6 247.8C809.1 254.2 797.1 267.8 787.6 282.3C785.1 257 769.2 247.8 754.4 247.8C748.9 247.8 742.9 249 736.7 251.3C736.7 251.3 736.6 251.3 736.5 251.3C734.6 252 732.8 252.9 731.1 253.7C730.5 254 729.8 254.3 729.1 254.6C729.4 240.4 729.7 224.3 720.1 214.6C717 211.4 711.3 207.6 702.3 207.6C698.2 207.6 693.8 208.4 688.9 209.9C675.2 214.1 663.9 222.4 654.7 235.1C650.4 224.7 642.4 222.6 638 222.4C637.8 222.4 637.5 222.4 637.3 222.4C637.1 222.4 637.1 222.4 637 222.4C622 222.8 614.3 236.6 608.7 246.7C606.7 250.2 604.7 253.9 603.1 255.7C599.7 259.1 597 260.8 594.1 262.6C586.9 267.1 581.2 271.4 574.7 284.2C570.9 290.7 567 297.2 563.2 303.7C556.9 314.3 550.7 324.9 544.4 335.5C541.7 340.2 538.8 345.9 538.1 352.8C537.1 361.4 540 369.3 542.2 375.7C542.8 377.4 543.4 379.1 543.8 380.4C544.4 382.4 544.4 383.7 544.2 388.4C544.2 389.3 544.2 390.3 544.2 391.4C543.9 398.2 543.7 406.2 543.5 414.8C543.3 424.7 543.1 434.9 542.6 442.8C540.8 442.8 538.7 442.9 536.6 443.3C528.5 444.1 520.4 446.4 513.1 449.8C505 453.6 497.7 458.8 491.3 465.3C491.3 465.3 491.1 465.5 491 465.6C480.6 476.9 473 490.5 465.5 503.6C465.5 503.7 465.4 503.8 465.3 503.9C465.5 493.8 465.8 483.3 466.8 475.6C468.3 473.4 470.1 471.1 472 468.6C475.4 464.3 479.3 459.4 482 453.9C486.4 445.9 491.4 437.8 496.2 430C504.4 416.6 512.9 402.7 519.7 388C519.7 387.8 519.9 387.6 519.9 387.5C524.9 374.7 518.7 364.3 514.2 356.8C513.2 355.2 512.3 353.7 511.6 352.3C511.3 350.4 511.4 345.6 511.6 342.7C511.6 341.6 511.6 340.5 511.7 339.4C511.8 336.9 511.9 334.4 511.9 331.9C511.9 327 512 322.4 513 318.8C514.3 315.9 515.9 313 517.4 310.3C523.7 298.9 531.5 284.6 516.1 265.2C515.1 263.6 514.9 261.3 514.7 257.5C514.5 254.4 514.2 251 513.3 247.1C511.3 236.6 502.6 228.6 492.8 228.6C488.9 228.6 485.1 229.9 481.7 232.2C474.5 237.3 470.2 244.7 466.4 251.2C465.4 252.9 464.5 254.4 463.6 255.9C463.4 256.3 463.2 256.6 463 257C460.3 262.6 457.4 264.5 452.6 267.5C449.1 269.7 444.8 272.5 440.5 276.9C438.4 279.1 436.8 281.6 435.4 283.9C423.4 270.7 406.8 263.5 388.3 263.5C366.6 263.5 345.6 273.5 332.1 290.3C325.8 298 320.9 306.5 316.1 314.7C314.9 316.8 313.7 318.9 312.5 320.9C312 320.2 311.5 319.5 311.4 319C311.5 318.6 311.9 317.4 313.3 315.1C313.9 314.1 314.5 313.1 315.1 312.1C320.3 303.3 326.3 293.4 326.4 280.9C326.4 280.7 326.4 280.6 326.4 280.4C325.9 264.7 317.5 250.4 302.7 240.2C290 231.4 273.2 226.4 256.8 226.4C246.2 226.4 236 228.5 227.2 232.5C208.7 240.2 199.6 256.1 192.9 267.8L176.8 295L165.4 314.4C149.7 338.2 145.2 361.5 152.4 381.8C152.4 381.8 152.4 381.9 152.4 382C152.9 383.4 153.4 384.7 153.9 385.9C158.4 397.3 158.5 397.7 152.3 406.9C152.3 406.9 152.2 407.1 152.1 407.2C145.3 417.9 134 435.6 140.2 455.2C143.7 469.5 153.1 481.6 167.4 490.2C180.1 497.9 195.8 502.1 211.7 502.1C227.6 502.1 242.9 497.8 255.1 489.7C267.8 481.6 275.1 470.2 281 460.1C281.3 459.7 281.6 459.2 281.9 458.8C284.5 463 285.4 465.6 284.7 467C281.5 473.1 277.9 479 274.2 485.3C271.8 489.3 269.3 493.5 266.9 497.7C258.1 512 257.9 526 266.5 535C266.5 535 266.6 535.1 266.7 535.2C270 538.5 274.1 540 277.1 541.1C277.8 541.3 278.6 541.7 279.3 541.9C279.3 542.6 279.3 543.4 279.3 544C279.3 544.4 279.3 544.9 279.3 545.3C279.2 548.1 279.1 550.8 279 553.7C279 556.6 278.9 559.6 278.7 563.2C278.5 570.8 278.2 578.9 278 586.9C277.8 594 277.6 601.1 277.4 607.9C277.2 610.3 277.2 612.7 277.2 615C277.2 618.5 277.2 623.8 276.2 625.6C276.2 625.7 276.1 625.8 276 626C275.1 627.9 273.9 629.8 272.7 631.9C269.6 637 266.2 642.7 264.9 649.9V650.1C263.4 660.2 266.9 666.7 270.1 670.4C275 676 282.6 679.1 291.6 679.1C300.6 679.1 295 679 296.7 678.8C298.7 678.7 300.8 678.6 303.1 678.5C307 678.4 311.2 678.3 315.4 677.7C315.1 678.2 314.8 678.7 314.5 679.2C306.1 692.5 303.1 707.2 305.7 721.9C305.7 722.2 305.8 722.4 305.9 722.7C307.7 729.5 306.1 733 303.7 738.3C300 746.3 295 757.3 305.6 775.5C307 778 306.9 780.8 306.7 785.9C306.7 787.5 306.6 789.2 306.5 791C306.4 794.9 306.3 798.9 306.1 803C306 806.7 305.9 810.4 305.8 814C305.8 814.4 305.8 814.8 305.8 815.1C306.1 819.1 305.4 823.6 304.6 828.4C302.8 839.2 300.6 852.7 311.2 863.8C311.4 864.1 311.7 864.3 312 864.5C317.5 869.3 325 871.9 333.1 871.9C341.2 871.9 346.6 870.1 352.3 866.9C362.9 861 368.5 851.5 373.4 843.2C373.7 842.7 374 842.2 374.3 841.6C375.7 839.7 377 837.2 379.1 833.5C379.5 832.8 379.9 832 380.4 831.1C393.1 854.2 414.3 867.8 438 867.8C461.7 867.8 447.8 867.2 452.6 866.1C474.8 861.6 488.4 846.8 499.2 830.6C499.4 833.8 499.8 837 500.5 840C504 854.4 513.9 860.1 521.6 862.4C521.7 862.4 521.9 862.4 522 862.5C524.5 863.1 527 863.4 529.6 863.4C540.1 863.4 549.1 858.3 555.8 853.8C555.9 853.8 556 853.7 556.1 853.6C569.9 843.6 577.6 829.8 585 816.4C588 811 590.8 806 593.9 801.3C594.1 801 594.2 800.8 594.4 800.5C596.7 796.1 600.7 792.3 604.9 788.3C605.7 787.6 606.4 786.8 607.2 786.1C607.5 785.8 607.8 785.5 608.1 785.1C618 772.5 625.9 758.5 633.6 745C638 737.2 642.5 729.2 647.3 721.7C647.3 721.7 647.3 721.7 647.3 721.6C653.4 711.7 659.2 700.7 659.6 687.1C660.1 679.6 659.6 672.5 658.1 665.8C663 667.2 668 667.8 673.1 667.8C684.7 667.8 696.3 664.1 706.8 657.6C705.9 659.2 704.9 660.7 703.9 662.3C703.9 662.3 703.9 662.4 703.8 662.5C702.5 664.6 701.3 666.7 700 668.7C677.8 705.3 658.6 736.9 671.7 787.7C681.6 826.7 713.8 853.9 750 854C750.6 854 751.2 854 751.8 854C760.7 854 769.2 851.7 777.4 849.4C782.7 847.9 787.7 846.6 792.3 846C792.8 846 793.3 846 793.8 846C796.4 846 799.3 846.8 802.7 847.8C806.6 848.9 811 850.1 816 850.4C816.6 850.4 817.2 850.4 817.8 850.4C834.3 850.4 842.5 836.2 846.6 828.9C847.5 827.6 848.2 826.2 849 824.9C861.9 839.6 878.9 847.7 896.9 847.7C914.9 847.7 902 847.5 904.5 847.2C932.5 844.2 949.5 825.3 962.8 803.4C975 827.4 996.3 841.8 1020.6 842.3C1020.9 842.3 1021.2 842.3 1021.5 842.3C1038.7 842.3 1054.1 836.1 1067.1 824C1075.2 816.4 1081.1 807.9 1085.6 800.5C1094.2 824.3 1107.6 837.3 1124.1 837.3C1140.6 837.3 1134.7 835.9 1140.1 833.3C1140.2 833.3 1140.4 833.2 1140.5 833.1L1141.2 832.7C1143.7 831.3 1146.5 829.8 1147.8 829.8C1149.1 829.8 1148.1 829.8 1148.6 830C1154.9 833.5 1161.6 835.3 1168.4 835.3C1189.6 835.3 1206.6 817.9 1215.6 801.5L1220.9 792.5C1229.8 777.5 1238.6 762.5 1247.5 747.5C1250.1 743 1253.7 736.9 1255.1 729.9C1257 721.5 1254.8 713.2 1253.1 706.6C1252.7 705 1252.3 703.4 1252 702.1C1251.3 699 1251.4 696.1 1251.5 692.1C1251.5 691.2 1251.5 690.3 1251.5 689.3L1252.9 642.5C1252.9 642.3 1252.9 642.1 1252.9 641.9C1252.7 635.4 1253.7 632.2 1256.9 628.8C1260.5 624.9 1264.2 620.7 1267.4 615.9C1275.5 631.2 1287.7 639.9 1301.1 639.9C1314.5 639.9 1312.6 638.3 1318.1 635.1C1318.3 635 1318.6 634.8 1318.8 634.7C1321.8 632.7 1323.3 632.7 1323.8 632.7C1325.4 632.7 1327.5 633.6 1329.9 634.6C1334 636.3 1339.1 638.3 1345.7 638.3C1355.5 638.3 1365.4 633.7 1376.9 623.9C1377 623.9 1377.1 623.7 1377.2 623.6C1381 620 1384.2 616.1 1386.9 612.1C1394.8 626.5 1407.1 634.6 1421.4 634.6C1435.7 634.6 1437.2 632.1 1444.9 627.2C1445.1 627.1 1445.3 627.1 1445.5 627.1C1446.9 627.1 1449.4 628.1 1451.9 629.1C1454.7 630.2 1457.9 631.5 1461.4 632.2C1463.7 632.6 1466 632.8 1468.3 632.8C1478.2 632.8 1488.1 628.8 1497.1 621.2C1500.3 618.5 1503.4 615.3 1506.3 611.9C1506.9 613.3 1507.6 614.7 1508.4 616.1C1513.5 624.9 1522.7 630 1533.6 630C1544.5 630 1549.6 627.4 1556.2 622.9C1572.4 613.2 1580.9 597.9 1589.1 583.1C1594.6 573.1 1599.9 563.6 1607.1 556.7C1609.1 575.9 1615 600.7 1628.7 614.5C1635.5 621.3 1643.8 624.9 1652.7 624.9C1661.6 624.9 1655.8 624.8 1657.4 624.6C1662.4 623.9 1666.6 621.7 1670.3 619.8C1672.1 618.8 1674.1 617.8 1675.4 617.4C1676.7 617.6 1678.9 618.5 1680.9 619.3C1684.2 620.7 1688.4 622.5 1693.2 622.9C1694.4 623 1695.5 623.1 1696.7 623.1C1706.6 623.1 1716.6 619.1 1725.6 611.6C1734.1 604.5 1740 595.8 1743.3 589.8C1743.3 589.7 1744.9 587.1 1744.9 587.1C1755.1 569.8 1765.4 552.5 1775.6 535.2C1787.3 517.3 1784.1 505 1780.1 489.6L1780 489.5Z" fill="#8C001C"/>
<path d="M317.5 362.1C316.8 345.5 310.5 332.1 299.5 323L256.7 287.6C253.8 285.2 251.8 281.1 251.6 276.6C251.4 272 254.6 268.7 259.1 268.5C279.1 267.6 273.9 305.5 298.7 304.4C310.7 303.9 316.9 293.1 316.3 279.7C315.7 266.8 298.5 235.7 254.6 237.6C210.4 239.5 200.5 274.7 201.3 293.2C202.2 313.9 215.6 332.8 222.9 338.9L256.3 366.5C260.4 369.9 261.7 373.9 261.8 377C262 381.8 259.6 387.8 252.7 388.1C229.8 389.1 234.1 348.6 208.4 349.8C197.8 350.3 190.1 358.5 190.7 372.6C191.6 394.4 212.3 423.2 256.8 421.3C301.3 419.4 318.5 384.6 317.5 362.1Z" fill="#E3DDCA"/>
<path d="M388.1 415.5C415.8 414.3 441.8 389.3 441.1 374.8C440.8 367.8 436 361.9 428.5 362.2C417.4 362.7 409.2 387.2 392.2 387.9C383.1 388.3 376.8 383.9 376.6 378.4C375.6 355.2 443.1 370.2 441.1 322.8C439.8 291.7 410.4 273.1 387.2 274.1C345.6 275.9 321.3 313.8 322.7 347.6C324.6 391.2 356.7 416.9 388.1 415.5ZM383 306.1C387.1 305.9 391.2 310.8 391.7 321.4C392.2 332.3 387.5 342.2 382.2 342.4C377 342.6 374 336.9 373.7 329.6C373.3 320.3 376.1 306.4 383 306.1Z" fill="#E3DDCA"/>
<path d="M451.1 388.8C450.5 399.5 455.7 412.6 471.2 411.9C484.1 411.3 513.2 394.3 512.4 375.9C511.9 364.1 500.3 362.7 500.5 355.1L501.8 311.4C502 304.1 516.4 301 515.8 286.5C515.3 274.5 504.2 274.6 503.9 267.1C503.8 264 504.4 258.8 504.1 251.9C503.7 243.1 498.8 238.1 492.3 238.3C478.6 238.9 472 276.5 459.4 277.1C452.8 277.4 445.1 282.7 445.6 292.3C446 301.9 453.5 311.6 453.4 317L451.2 388.8H451.1Z" fill="#E3DDCA"/>
<path d="M594.3 382.6C593.7 393.3 598.9 406.4 614.4 405.7C627.3 405.1 656.4 388.1 655.6 369.7C655.1 357.9 643.5 356.5 643.7 348.9L645 305.2C645.2 297.9 659.6 294.8 659 280.3C658.5 268.3 647.4 268.4 647.1 260.9C647 257.8 647.6 252.6 647.3 245.7C646.9 236.9 642 231.9 635.5 232.1C621.8 232.7 615.2 270.3 602.6 270.9C596 271.2 588.3 276.5 588.8 286.1C589.2 295.7 596.7 305.5 596.6 310.8L594.4 382.6H594.3Z" fill="#E3DDCA"/>
<path d="M665.2 393C665.2 395.4 666.9 397.4 669.1 397.3L710 395.5C711.9 395.5 713.5 393.7 713.5 391.5L715.8 318.6C716.1 310.8 718.5 304.9 723.2 304.7C727 304.5 727.5 311.8 727.5 316.2L725.6 376.9C725 387.6 730.6 400.7 746.1 400C757.4 399.5 784.1 384.5 783.3 366C782.9 356.9 775.1 352.4 775.4 344.8L776.9 294.5C777.3 281.3 776.1 257.3 754.1 258.2C737.1 258.9 728.8 269.1 723.6 269.3C722.8 269.3 722.1 269.3 721.4 269C719 268.1 717.5 265.6 717.7 261.8L718.4 240.6C718.6 233 716.9 217.5 703.5 218.1C690.1 218.7 660.8 232.2 661.5 249.1C661.9 258.1 669.3 264.3 669 271.9L665.3 392.9L665.2 393Z" fill="#E3DDCA"/>
<path d="M851.6 395.5C879.3 394.3 905.3 369.3 904.6 354.8C904.3 347.8 899.5 341.9 892 342.2C880.9 342.7 872.7 367.2 855.7 367.9C846.6 368.3 840.3 363.9 840.1 358.4C839.1 335.2 906.6 350.2 904.6 302.8C903.3 271.7 873.9 253.1 850.7 254.1C809.1 255.9 784.7 293.8 786.2 327.6C788.1 371.2 820.2 396.9 851.6 395.5ZM846.5 286.1C850.6 285.9 854.7 290.8 855.2 301.4C855.7 312.3 851 322.2 845.7 322.4C840.5 322.6 837.5 316.9 837.2 309.6C836.8 300.3 839.6 286.4 846.5 286.1Z" fill="#E3DDCA"/>
<path d="M371.6 583.6C371 570.4 357.9 568.9 358.2 560.3L359.9 504C359.9 501.5 362.9 500.8 364 502.9L402.6 576.8C405.9 583.1 414.4 600.2 429.5 599.6C453.7 598.6 476.2 580.1 475.4 561.8C475 553.3 469.7 549.9 467 550C462.4 550.2 462 551.6 458.8 551.7C454.4 551.9 453.4 547.9 453.6 541.9L456.2 456.8C456.5 447.5 471.6 446.8 471 432.9C470.6 423.1 463.5 420 457.2 420.3L426.2 421.6C416.7 422 413 427.2 413.3 434.5C413.9 447.7 430.5 449 430.1 457.6L428.8 499.4C428.8 501.8 425.8 502.6 424.7 500.5L386.5 429.4C383.1 423.5 376.6 419.1 364.6 419.6C334.9 420.9 310.4 431.2 311.2 449.5C311.6 458 316.9 461 320 460.9C323.4 460.8 324 460.3 327.2 460.2C331.2 460 331.9 465.6 331.7 468.9L328.8 561.4C328.5 570.7 314.6 571.3 315.2 585.3C315.6 595.1 322.7 598.2 329 597.9L358.6 596.6C368.1 596.2 371.8 591 371.5 583.7L371.6 583.6Z" fill="#E3DDCA"/>
<path d="M595.8 553.9C595.5 546.9 590.7 541 583.2 541.3C572.1 541.8 563.9 566.3 546.9 567C537.8 567.4 531.5 563 531.3 557.5C530.3 534.3 597.8 549.3 595.8 501.9C594.5 470.8 565.1 452.2 541.9 453.2C500.3 455 475.9 492.9 477.4 526.7C479.3 570.3 511.4 596 542.8 594.6C570.5 593.4 596.5 568.4 595.8 553.9ZM537.7 485.2C541.8 485 545.9 489.9 546.4 500.5C546.9 511.4 542.2 521.3 536.9 521.5C531.7 521.7 528.7 516 528.4 508.7C528 499.4 530.8 485.5 537.7 485.2Z" fill="#E3DDCA"/>
<path d="M780.1 502.5C778.7 470.4 757.7 443.9 739.9 444.6C731.7 445 727.5 455.9 727.9 466.7C728.7 484.8 755.1 480.8 756.2 504.9C757.3 530.5 743.5 552.4 728.4 553C722.6 553.3 716.8 548.6 717.1 540.7L719.7 456.1C719.7 453.7 718 451.7 715.8 451.8L674.9 453.6C673 453.6 671.4 455.4 671.4 457.6L669.2 536.9C668.9 544.7 665.3 550.6 660.6 550.8C656.3 551 655.7 544.8 655.8 539.3L657.6 472.3C658.2 461.6 652.6 448.5 637.1 449.2C625.8 449.7 599.1 464.7 599.9 483.1C600.3 492.2 608.1 496.7 607.8 504.3L606.3 554.6C605.9 567.8 613.8 591.6 638.8 590.5C656.6 589.7 669.2 575.1 677.4 574.7C684.4 574.4 694.2 588.1 716.9 587.1C753.1 585.5 781.8 542.4 780.1 502.5Z" fill="#E3DDCA"/>
<path d="M862.4 450.5C863.3 471.2 876.7 490.1 884 496.2L917.4 523.8C921.5 527.2 922.8 531.2 922.9 534.3C923.1 539.1 920.7 545.1 913.8 545.4C890.9 546.4 895.2 505.9 869.5 507.1C858.9 507.6 851.2 515.8 851.8 529.9C852.7 551.7 873.4 580.5 917.9 578.6C962.4 576.7 979.6 541.9 978.6 519.4C977.9 502.8 971.6 489.4 960.6 480.3L917.8 444.9C914.9 442.5 912.9 438.4 912.7 433.9C912.5 429.3 915.7 426 920.2 425.8C940.2 424.9 935 462.8 959.8 461.7C971.8 461.2 978 450.4 977.4 437C976.8 424.1 959.6 393 915.7 394.9C871.5 396.8 861.6 432 862.4 450.5Z" fill="#E3DDCA"/>
<path d="M989.1 551.3C988.5 562 993.7 575.1 1009.2 574.4C1022.1 573.8 1051.2 556.8 1050.4 538.4C1049.9 526.6 1038.3 525.2 1038.5 517.6L1039.8 473.9C1040 466.6 1054.4 463.5 1053.8 449C1053.3 437 1042.2 437.1 1041.9 429.6C1041.8 426.5 1042.4 421.3 1042.1 414.4C1041.7 405.6 1036.8 400.6 1030.3 400.8C1016.6 401.4 1010 439 997.4 439.6C990.8 439.9 983.1 445.2 983.6 454.8C984 464.4 991.5 474.1 991.4 479.5L989.2 551.3H989.1Z" fill="#E3DDCA"/>
<path d="M1096.2 570.7C1105.9 570.3 1110 560.8 1116.4 560.5C1122.5 560.2 1127.9 569.3 1139.2 568.9C1139.6 568.9 1140 568.9 1140.4 568.9C1151.7 568.4 1176 553.2 1175.3 537C1174.9 527.9 1169.5 521.4 1169.7 513.8L1171.7 449.3C1171.9 441.7 1170.2 426.2 1156.8 426.8C1150.1 427.1 1138.7 432.4 1129.8 437.9C1120.6 438.3 1114.7 428.6 1100.4 429.2C1069.3 430.5 1054.8 468 1056.3 501.8C1058.2 546 1070.5 571.9 1096.4 570.8L1096.2 570.7ZM1103.7 499C1104 474 1108.4 461.5 1114.4 461.7C1120.4 461.8 1123 474.5 1122.7 499.5C1122.4 524.5 1118 537 1112 536.8C1107.5 536.7 1103.3 530.1 1103.7 499Z" fill="#E3DDCA"/>
<path d="M1294.7 508.2L1296.2 457.9C1296.6 444.7 1295.4 420.7 1273.4 421.6C1256.4 422.3 1249.4 432.4 1242.9 432.7C1237.8 432.9 1234.2 430.7 1230.9 427.3C1230.9 427.3 1230.8 427.2 1230.7 427.1C1228.5 425 1225.5 423.7 1221.5 423.9C1208.1 424.5 1178.8 438 1179.5 454.9C1179.9 463.9 1187.3 470.1 1187 477.7L1184.6 556.3C1184.6 558.7 1186.3 560.7 1188.5 560.6L1229.4 558.8C1231.3 558.8 1232.9 557 1232.9 554.8L1235.2 480.9C1235.5 473.1 1237.9 467.2 1242.6 467C1246.4 466.8 1246.9 474.1 1246.9 478.5L1245 540.1C1244.4 550.8 1250 563.9 1265.5 563.2C1276.8 562.7 1303.5 547.7 1302.7 529.2C1302.3 520.1 1294.5 515.6 1294.8 508L1294.7 508.2Z" fill="#E3DDCA"/>
<path d="M1416.8 502.9L1418.8 438.4C1418.8 438.1 1418.8 437.7 1418.8 437.4L1420.1 396C1420.3 388.4 1418.6 372.9 1405.2 373.5C1391.8 374.1 1362.5 387.6 1363.2 404.5C1363.6 413 1370.1 418.9 1370.7 425.9C1364.3 423.4 1358.1 417.9 1347.1 418.3C1320.6 419.4 1305.3 456.9 1306.7 490.8C1308.6 535 1324 560.8 1345.2 559.9C1355.4 559.5 1358.5 550 1364.5 549.7C1370.6 549.4 1375.1 558.6 1386.3 558.1C1386.7 558.1 1387.1 558.1 1387.5 558.1C1398.8 557.6 1423.1 542.4 1422.4 526.2C1422 517.1 1416.6 510.6 1416.8 503V502.9ZM1369.9 488.8C1369.6 513.8 1365.2 526.3 1359.2 526.1C1354.7 526 1350.5 519.4 1350.9 488.3C1351.2 463.3 1355.6 450.8 1361.6 451C1367.6 451.1 1370.2 463.8 1369.9 488.8Z" fill="#E3DDCA"/>
<path d="M1539.9 497.6L1541.9 433.1C1542.1 425.5 1540.4 410 1527 410.6C1520.3 410.9 1508.9 416.2 1500 421.7C1490.8 422.1 1484.9 412.4 1470.6 413C1439.5 414.3 1425 451.8 1426.5 485.6C1428.4 529.8 1440.7 555.7 1466.6 554.6C1476.3 554.2 1480.4 544.7 1486.8 544.4C1492.9 544.1 1498.3 553.2 1509.6 552.8C1510 552.8 1510.4 552.8 1510.8 552.8C1522.1 552.3 1546.4 537.1 1545.7 520.9C1545.3 511.8 1539.9 505.3 1540.1 497.7L1539.9 497.6ZM1493 483.5C1492.7 508.5 1488.3 521 1482.3 520.8C1477.8 520.7 1473.6 514.1 1474 483C1474.3 458 1478.7 445.5 1484.7 445.7C1490.7 445.8 1493.3 458.5 1493 483.5Z" fill="#E3DDCA"/>
<path d="M1626.6 406.4C1612.8 407 1610.9 420.5 1607.2 420.6C1606 420.6 1605.4 419.7 1604.9 418.4C1603.1 412.6 1599.3 407.5 1591.5 407.9C1578.1 408.5 1548.8 422 1549.5 438.9C1549.9 447.9 1557.3 454 1557.1 461.7L1555.2 526.9C1554.6 537.6 1559.8 550.7 1575.3 550C1586.6 549.5 1613.3 534.5 1612.5 516C1612.1 506.9 1604.3 502.4 1604.6 494.8L1605.6 464.1C1605.7 460.5 1606.5 457.1 1607.9 457C1610.7 456.9 1616.5 481.4 1634.1 480.6C1651.7 479.8 1653.9 460.8 1653.2 444.3C1652.5 427.8 1642.6 405.7 1626.8 406.4H1626.6Z" fill="#E3DDCA"/>
<path d="M1768 487.8L1770 423.3C1770 423 1770 422.6 1770 422.3L1771.3 380.9C1771.5 373.3 1769.8 357.8 1756.4 358.4C1743 359 1713.7 372.5 1714.4 389.4C1714.8 397.9 1721.3 403.8 1721.9 410.8C1715.5 408.3 1709.3 402.8 1698.3 403.2C1671.8 404.3 1656.5 441.8 1657.9 475.7C1659.8 519.9 1675.2 545.7 1696.4 544.8C1706.6 544.4 1709.7 534.9 1715.7 534.6C1721.8 534.3 1726.3 543.5 1737.5 543C1737.9 543 1738.3 543 1738.7 543C1750 542.5 1774.3 527.3 1773.6 511.1C1773.2 502 1767.8 495.5 1768 487.9V487.8ZM1721.1 473.6C1720.8 498.6 1716.4 511.1 1710.4 510.9C1705.9 510.8 1701.7 504.2 1702.1 473.1C1702.4 448.1 1706.8 435.6 1712.8 435.8C1718.8 435.9 1721.4 448.6 1721.1 473.6Z" fill="#E3DDCA"/>
<path d="M392.8 662.9C404.4 662.1 418 655.6 417.2 636.4C416.7 624.4 404.8 606 384.5 606.9C364.2 607.8 355.8 624.1 356.6 642.3C357.1 654.5 361 659.4 361.3 665.4C361.6 673 349.3 672.2 349.8 683.7C350.3 695.7 359.5 697.8 359.2 705.4L357.7 753.8C357.4 760.4 354.4 767.1 354.8 774.8C355.1 782.5 360.6 791.8 375.1 791.1C395.1 790.2 405.3 772.1 405.8 759.6L407.4 708.5C407.8 702.1 417.4 693.2 417 683.4C416.6 674.1 407.8 668 393.2 668.6C391.5 668.6 390.8 667.6 390.7 666C390.7 664.5 391.3 663 392.8 662.9Z" fill="#E3DDCA"/>
<path d="M482.2 645C444.1 646.6 419.7 684.5 421.2 718.3C423.1 762.5 452.5 787.7 481.3 786.4C519.4 784.8 543.8 746.9 542.3 713C540.8 679.2 520.2 643.2 482.2 644.9V645ZM491.2 716C490.9 741 486.6 757.4 480.6 757.2C476.1 757.1 471.8 746.6 472.2 715.5C472.5 690.5 476.8 674.1 482.8 674.3C488.8 674.4 491.6 691 491.2 716Z" fill="#E3DDCA"/>
<path d="M622.5 638.9C608.7 639.5 606.8 653 603.1 653.1C601.9 653.1 601.3 652.2 600.8 650.9C599 645.1 595.2 640 587.3 640.4C573.9 641 544.6 654.5 545.3 671.4C545.7 680.4 553.1 686.5 552.9 694.2L551 759.4C550.4 770.1 555.6 783.2 571.1 782.5C582.4 782 609.1 767 608.3 748.5C607.9 739.4 600.1 734.9 600.4 727.3L601.4 696.6C601.5 693 602.3 689.6 603.7 689.5C606.5 689.4 612.3 713.9 629.9 713.1C647.5 712.3 649.7 693.3 649 676.8C648.3 660.3 638.4 638.2 622.6 638.9H622.5Z" fill="#E3DDCA"/>
<path d="M863.1 726.8C862.4 710.9 875 711.2 874.3 696.3C873.6 680.6 855.7 676.8 829.9 677.9C804.1 679 790.6 686.5 791.2 699.6C791.8 713.9 804 711.6 804.7 726.1C805 733.9 802.6 738.7 798.9 738.9C790.1 739.3 780.8 720 779.3 685C777.9 652.4 794 622.8 817.7 621.8C826.7 621.4 833.3 625.8 833.6 632.4C833.9 640.3 830.3 639.9 830.8 652.3C831.3 664.5 839.9 670.8 848 670.4C860 669.9 873.5 654.2 872.2 623C871.4 604.4 858.5 586.5 845.6 587C839.8 587.2 837.2 592.6 830.5 592.9C823.9 593.2 812.7 588.4 800.6 588.9C751.1 591 718.2 641.8 720.3 690.1C722.4 738.4 753.4 774.7 797.1 772.9C808.6 772.4 826.5 764.2 836.7 763.8C844.9 763.4 851.8 770.5 861.4 770.1C871 769.7 876 762.3 875.6 753.4C875.2 744.4 863.8 738.5 863.3 726.9L863.1 726.8Z" fill="#E3DDCA"/>
<path d="M941.4 625.1C903.3 626.7 878.9 664.6 880.4 698.4C882.3 742.6 911.7 767.8 940.5 766.5C978.6 764.9 1003 727 1001.5 693.1C1000 659.3 979.4 623.3 941.4 625V625.1ZM950.5 696.1C950.2 721.1 945.9 737.5 939.9 737.3C935.4 737.2 931.1 726.7 931.5 695.6C931.8 670.6 936.1 654.2 942.1 654.4C948.1 654.5 950.9 671.1 950.5 696.1Z" fill="#E3DDCA"/>
<path d="M1065.8 619.7C1027.7 621.3 1003.3 659.2 1004.8 693C1006.7 737.2 1036.1 762.4 1064.9 761.1C1103 759.5 1127.4 721.6 1125.9 687.7C1124.4 653.9 1103.8 617.9 1065.8 619.6V619.7ZM1074.9 690.7C1074.6 715.7 1070.3 732.1 1064.3 731.9C1059.8 731.8 1055.5 721.3 1055.9 690.2C1056.2 665.2 1060.5 648.8 1066.5 649C1072.5 649.1 1075.3 665.7 1074.9 690.7Z" fill="#E3DDCA"/>
<path d="M1240.3 699.7L1242.3 635.2C1242.3 634.9 1242.3 634.5 1242.3 634.2L1243.6 592.8C1243.8 585.2 1242.1 569.7 1228.7 570.3C1215.3 570.9 1186 584.4 1186.7 601.3C1187.1 609.8 1193.6 615.7 1194.2 622.7C1187.8 620.2 1181.6 614.7 1170.6 615.1C1144.1 616.2 1128.8 653.7 1130.2 687.6C1132.1 731.8 1147.5 757.6 1168.7 756.7C1178.9 756.3 1182 746.8 1188 746.5C1194.1 746.2 1198.6 755.4 1209.8 754.9C1210.2 754.9 1210.6 754.9 1211 754.9C1222.3 754.4 1246.6 739.2 1245.9 723C1245.5 713.9 1240.1 707.4 1240.3 699.8V699.7ZM1193.4 685.6C1193.1 710.6 1188.7 723.1 1182.7 722.9C1178.2 722.8 1174 716.2 1174.4 685.1C1174.7 660.1 1179.1 647.6 1185.1 647.8C1191.1 647.9 1193.7 660.6 1193.4 685.6Z" fill="#E3DDCA"/>
</svg>
