<svg width="568" height="311" viewBox="0 0 568 311" fill="none" xmlns="http://www.w3.org/2000/svg">
<path d="M420.498 0.242362C392.53 -1.29781 366.107 4.56951 342.923 15.9374C305.829 34.1995 261.816 34.1995 224.648 15.9374C201.537 4.56951 175.115 -1.22447 147.147 0.242362C68.6887 4.49617 4.58292 68.3766 0.240509 146.559C-4.69071 236.329 66.8487 310.624 155.831 310.624C179.383 310.624 201.758 305.416 221.777 296.029C261.3 277.547 306.27 277.547 345.867 296.029C365.886 305.343 388.187 310.624 411.813 310.624C500.796 310.624 572.335 236.329 567.404 146.559C563.061 68.3766 498.956 4.49617 420.498 0.242362Z" fill="#D17DD0"/>
<path d="M141.068 136.404C133.792 136.404 129.289 126.357 129.289 117.782C129.289 111.892 130.934 107.475 134.139 107.475C136.997 107.475 138.643 110.68 140.548 114.491C145.312 124.191 149.989 128.002 156.745 128.002C162.288 128.002 166.099 124.625 166.099 119.254C166.099 114.924 162.895 112.412 152.414 108.774C137.603 103.491 132.233 98.034 132.233 88.7663C132.233 79.2388 139.422 70.664 152.414 70.664C160.21 70.664 164.454 73.6955 166.273 75.8609C168.265 73.2625 170.603 70.664 173.721 70.664C178.312 70.664 181.603 78.1994 181.603 86.0813C181.603 91.0183 179.958 94.223 177.013 94.223C173.895 94.223 171.643 91.1915 168.958 87.1207C165.147 81.4042 162.115 77.2467 156.485 77.2467C151.722 77.2467 148.95 80.105 148.95 84.1758C148.95 88.853 152.241 91.4514 163.241 95.4356C178.312 100.979 183.769 106.436 183.769 115.617C183.769 126.01 175.281 136.404 162.548 136.404C157.178 136.404 153.107 133.892 149.556 133.892C146.178 133.892 144.273 136.404 141.068 136.404ZM240.704 124.451C242.869 124.798 244.428 125.491 244.428 128.002C244.428 132.766 239.838 136.404 231.609 136.404C224.334 136.404 220.956 133.546 220.956 127.743C220.956 122.546 222.342 112.499 222.342 107.302C222.342 102.365 220.263 99.9395 216.625 99.9395C212.901 99.9395 209.609 102.798 208.483 106.176V120.727C208.483 123.412 209.609 124.278 211.428 125.231C213.853 126.703 214.72 127.916 214.72 129.648C214.72 134.152 210.302 136.404 201.035 136.404C191.68 136.404 187.003 134.239 187.003 130.081C187.003 128.089 187.783 127.05 190.381 125.404C192.027 124.451 193.499 123.325 193.499 120.9V86.0813C193.499 83.5695 192.633 82.7034 190.208 82.1837C187.35 81.5774 186.483 80.7979 186.483 78.4593C186.483 73.5223 191.94 70.8373 200.082 70.8373C207.79 70.8373 209.956 73.3491 209.956 77.5065C209.956 82.0105 208.483 86.0813 208.483 95.349V98.6403C211.602 91.7112 216.712 87.0341 224.334 87.0341C233.515 87.0341 237.846 92.9238 237.846 101.499C237.846 108.081 237.412 116.483 237.412 121.593C237.412 123.499 238.798 124.105 240.704 124.451ZM297.02 121.073C298.232 121.073 299.098 122.373 299.098 124.191C299.098 129.302 293.642 136.404 286.106 136.404C280.476 136.404 277.272 132.506 277.272 126.443C277.272 125.317 277.358 124.105 277.445 123.152L276.492 122.979C274.847 131.813 268.784 136.404 261.854 136.404C253.886 136.404 247.996 131.034 247.996 122.286C247.996 112.585 254.925 108.341 265.492 108.341C268.437 108.341 272.335 108.601 275.626 109.38C275.713 108.428 275.799 106.955 275.799 105.916C275.799 99.6797 273.547 97.5143 268.697 97.5143C264.28 97.5143 261.595 100.632 260.555 105.396C260.295 106.262 259.343 106.609 258.13 106.609C253.973 106.609 249.729 103.491 249.729 99.9395C249.729 92.4041 257.524 87.0341 271.122 87.0341C285.76 87.0341 292.256 93.7033 292.256 103.231C292.256 107.302 291.476 111.806 291.476 115.443C291.476 119.861 293.122 121.333 295.114 121.333C295.807 121.333 296.413 121.073 297.02 121.073ZM268.61 125.924C272.421 125.924 275.453 122.546 275.453 115.963V115.097C274.154 114.837 272.508 114.751 271.209 114.751C265.752 114.751 263.76 117.002 263.76 120.467C263.76 123.672 265.579 125.924 268.61 125.924ZM331.466 87.0341C336.317 87.0341 339.088 93.0104 339.088 100.199C339.088 106.522 337.183 110.593 333.285 110.593C330.687 110.593 329.474 109.121 327.829 105.743C326.183 102.365 325.923 101.932 324.97 101.932C323.758 101.932 322.459 104.79 322.459 107.995V121.333C322.459 122.979 322.978 123.758 325.49 125.404C327.655 126.79 328.608 128.002 328.608 129.821C328.608 134.412 324.537 136.404 315.096 136.404C305.655 136.404 301.585 134.325 301.585 130.254C301.585 128.176 302.537 126.703 304.443 125.404C306.262 124.105 307.474 122.979 307.474 121.16V105.05C307.474 102.798 306.781 101.758 305.396 101.758C304.356 101.758 303.75 102.105 302.711 102.105C301.238 102.105 300.285 101.152 300.285 98.6403C300.285 92.9238 305.829 87.0341 313.884 87.0341C318.907 87.0341 321.073 89.6325 321.073 96.1285C321.073 97.7742 320.986 99.8529 320.986 101.239L321.939 101.412C324.104 90.1522 327.222 87.0341 331.466 87.0341ZM387.313 106.609C387.313 109.554 386.88 111.892 386.447 113.711L358.73 113.884C359.25 120.813 364.533 124.018 369.903 124.018C374.667 124.018 379.517 121.333 382.116 118.215C382.982 117.262 383.415 116.829 383.935 116.829C385.147 116.829 386.273 118.995 386.273 122.113C386.273 129.215 378.651 136.404 366.006 136.404C352.581 136.404 342.36 128.002 342.36 112.325C342.36 98.7269 351.801 87.0341 366.872 87.0341C378.651 87.0341 387.313 93.79 387.313 106.609ZM358.557 108.081L372.415 107.128C372.502 106.609 372.588 105.829 372.588 104.963C372.588 98.8136 369.817 95.6088 366.352 95.6088C361.935 95.6088 358.73 100.199 358.557 108.081ZM409.763 136.404C399.802 136.404 393.219 128.089 393.219 112.152C393.219 98.1206 399.889 87.0341 410.369 87.0341C416.778 87.0341 421.715 90.4986 423.274 97.7742L424.054 97.601V86.2545C424.054 83.4829 423.015 82.7034 420.503 82.2703C418.337 81.8372 416.172 81.2309 416.172 78.3727C416.172 74.042 420.936 70.8373 430.463 70.8373C437.652 70.8373 440.424 72.8294 440.424 77.3333C440.424 82.3569 439.038 86.5144 439.038 94.9159V115.184C439.038 119.514 440.337 121.16 442.762 121.16C443.542 121.16 444.148 120.9 444.755 120.9C446.14 120.9 446.92 122.199 446.92 124.191C446.92 129.215 441.463 136.404 433.928 136.404C428.038 136.404 425.007 132.16 425.007 125.404C425.007 123.932 425.093 122.719 425.266 121.766L424.4 121.593C421.975 132.247 415.826 136.404 409.763 136.404ZM416.172 126.357C419.896 126.357 423.534 119.861 423.534 109.987C423.534 102.018 420.416 95.349 416.605 95.349C412.448 95.349 409.503 103.058 409.503 111.806C409.503 120.38 412.274 126.357 416.172 126.357ZM92.4005 217.404C82.1801 217.404 78.8021 214.459 78.8021 210.648C78.8021 208.483 79.7549 207.01 81.747 204.845C83.2194 203.373 84.3454 201.121 84.3454 195.404V173.664C84.3454 167.947 83.2194 165.349 81.747 163.877C79.7549 161.798 78.8021 160.239 78.8021 158.073C78.8021 154.522 82.1801 151.837 92.4005 151.837C102.708 151.837 106.085 154.522 106.085 158.073C106.085 160.239 105.133 161.798 103.054 163.877C101.668 165.262 100.456 167.947 100.456 173.664V195.404C100.456 201.121 101.668 203.459 103.054 204.845C105.133 207.01 106.085 208.483 106.085 210.648C106.085 214.459 102.794 217.404 92.4005 217.404ZM124.22 217.404C115.386 217.404 110.622 215.325 110.622 211.341C110.622 209.262 111.661 207.79 114 206.404C116.512 204.932 117.291 203.806 117.291 201.9V186.05C117.291 183.798 116.512 182.758 115.126 182.758C114.086 182.758 113.653 183.105 112.527 183.105C110.795 183.105 109.756 181.546 109.756 179.207C109.756 173.751 114.606 168.034 123.181 168.034C128.724 168.034 130.89 170.632 130.89 177.129C130.89 178.774 130.803 181.026 130.803 182.499H131.669C134.787 174.097 140.071 168.034 148.559 168.034C157.826 168.034 162.157 173.924 162.157 182.499C162.157 189.081 161.637 197.483 161.637 202.593C161.637 204.152 162.59 205.018 165.015 205.451C167.7 205.971 168.74 206.924 168.74 209.002C168.74 214.026 163.63 217.404 155.834 217.404C148.645 217.404 145.181 214.632 145.181 208.743C145.181 203.546 146.653 193.499 146.653 188.302C146.653 183.365 144.488 180.94 140.85 180.94C136.26 180.94 132.189 185.357 132.189 190.467V202.073C132.189 203.979 132.795 204.758 135.307 206.404C137.472 207.79 138.338 209.002 138.338 210.821C138.338 215.498 134.181 217.404 124.22 217.404ZM185.725 217.404C176.197 217.404 171.78 215.152 171.78 211.081C171.78 209.089 172.56 208.05 175.071 206.404C176.977 205.365 178.276 204.152 178.276 201.9V183.191L174.812 182.758C172.646 182.585 171.78 181.892 171.78 180.68C171.78 178.601 174.552 176.089 177.323 174.877C176.371 172.451 175.764 169.766 175.764 167.081C175.764 158.42 181.308 151.837 191.528 151.837C200.623 151.837 204.347 157.64 204.347 163.27C204.347 167.081 202.528 169.766 200.016 169.766C196.292 169.766 195.512 161.451 190.749 161.451C189.016 161.451 187.717 163.184 187.717 165.262C187.717 167.514 188.93 169.94 192.308 172.625C193.087 172.451 194.3 172.278 195.426 172.278C201.142 172.278 203.827 176.349 203.827 179.554C203.827 182.325 202.355 183.451 200.536 183.451C198.63 183.451 195.079 183.365 193.26 183.191V201.727C193.26 204.412 194.3 205.278 196.205 206.231C198.63 207.703 199.41 208.916 199.41 210.648C199.41 215.065 195.252 217.404 185.725 217.404ZM218.032 217.404C208.678 217.404 204 215.239 204 211.081C204 209.089 204.867 208.05 207.378 206.404C209.024 205.451 210.583 204.325 210.583 201.9V167.081C210.583 164.656 210.063 163.357 208.418 161.884C207.205 160.672 206.859 159.892 206.859 158.42C206.859 155.475 209.457 151.837 217.079 151.837C224.788 151.837 226.953 154.349 226.953 158.507C226.953 163.01 225.481 167.081 225.481 176.349V201.727C225.481 204.412 226.607 205.278 228.512 206.231C230.851 207.703 231.717 208.916 231.717 210.648C231.717 215.152 227.3 217.404 218.032 217.404ZM251.101 217.404C243.392 217.404 238.109 212.554 238.109 202.939C238.109 197.396 238.628 186.05 238.628 182.758C238.628 180.94 237.589 180.16 235.51 179.727C233.085 179.294 231.439 178.514 231.439 175.743C231.439 171.758 235.77 168.034 245.124 168.034C253.266 168.034 255.172 171.066 255.172 175.483C255.172 181.459 253.699 192.199 253.699 197.05C253.699 202.333 256.038 204.412 259.329 204.412C263.833 204.412 267.817 200.688 267.817 195.144V183.191C267.817 180.073 266.778 179.207 264.613 178.514C262.88 177.995 261.841 177.042 261.841 174.79C261.841 170.806 265.046 168.034 274.746 168.034C282.109 168.034 283.928 170.459 283.928 173.924C283.928 177.735 282.802 179.034 282.802 183.105V196.01C282.802 200.514 283.841 202.16 285.92 202.16C286.699 202.16 287.392 201.727 288.085 201.727C289.298 201.727 290.077 203.026 290.077 204.932C290.077 209.695 284.88 217.404 276.739 217.404C271.975 217.404 269.03 213.939 269.03 208.396C269.03 206.837 269.29 205.191 269.463 203.719L268.424 203.546C265.046 214.459 257.597 217.404 251.101 217.404ZM337.821 187.609C337.821 190.554 337.388 192.892 336.955 194.711L309.238 194.884C309.758 201.813 315.042 205.018 320.412 205.018C325.175 205.018 330.026 202.333 332.624 199.215C333.49 198.262 333.923 197.829 334.443 197.829C335.656 197.829 336.782 199.995 336.782 203.113C336.782 210.215 329.16 217.404 316.514 217.404C303.089 217.404 292.868 209.002 292.868 193.325C292.868 179.727 302.309 168.034 317.38 168.034C329.16 168.034 337.821 174.79 337.821 187.609ZM309.065 189.081L322.923 188.128C323.01 187.609 323.097 186.829 323.097 185.963C323.097 179.814 320.325 176.609 316.86 176.609C312.443 176.609 309.238 181.199 309.065 189.081ZM357.246 217.404C348.411 217.404 343.647 215.325 343.647 211.341C343.647 209.262 344.686 207.79 347.025 206.404C349.537 204.932 350.316 203.806 350.316 201.9V186.05C350.316 183.798 349.537 182.758 348.151 182.758C347.112 182.758 346.679 183.105 345.553 183.105C343.82 183.105 342.781 181.546 342.781 179.207C342.781 173.751 347.631 168.034 356.206 168.034C361.749 168.034 363.915 170.632 363.915 177.129C363.915 178.774 363.828 181.026 363.828 182.499H364.694C367.812 174.097 373.096 168.034 381.584 168.034C390.852 168.034 395.182 173.924 395.182 182.499C395.182 189.081 394.663 197.483 394.663 202.593C394.663 204.152 395.615 205.018 398.041 205.451C400.726 205.971 401.765 206.924 401.765 209.002C401.765 214.026 396.655 217.404 388.86 217.404C381.671 217.404 378.206 214.632 378.206 208.743C378.206 203.546 379.679 193.499 379.679 188.302C379.679 183.365 377.513 180.94 373.875 180.94C369.285 180.94 365.214 185.357 365.214 190.467V202.073C365.214 203.979 365.82 204.758 368.332 206.404C370.497 207.79 371.364 209.002 371.364 210.821C371.364 215.498 367.206 217.404 357.246 217.404ZM427.694 217.404C413.922 217.404 404.221 207.53 404.221 192.632C404.221 178.428 412.883 168.034 423.883 168.034C428.04 168.034 431.851 169.593 433.93 172.278C435.835 169.766 438.174 167.947 440.08 167.947C443.544 167.947 446.316 173.231 446.316 181.026C446.316 187.176 444.41 191.073 441.812 191.073C439.82 191.073 438.261 189.514 436.095 184.231C433.237 177.648 430.812 175.396 427.78 175.396C423.45 175.396 420.505 180.42 420.505 188.735C420.505 198.262 424.576 204.845 431.505 204.845C437.048 204.845 441.032 201.121 443.284 197.829C444.064 196.703 444.583 196.184 445.19 196.184C446.056 196.184 446.749 197.569 446.749 199.735C446.749 209.176 438.52 217.404 427.694 217.404ZM497.069 187.609C497.069 190.554 496.636 192.892 496.203 194.711L468.486 194.884C469.006 201.813 474.289 205.018 479.659 205.018C484.423 205.018 489.274 202.333 491.872 199.215C492.738 198.262 493.171 197.829 493.691 197.829C494.903 197.829 496.029 199.995 496.029 203.113C496.029 210.215 488.407 217.404 475.762 217.404C462.337 217.404 452.116 209.002 452.116 193.325C452.116 179.727 461.557 168.034 476.628 168.034C488.407 168.034 497.069 174.79 497.069 187.609ZM468.313 189.081L482.171 188.128C482.258 187.609 482.344 186.829 482.344 185.963C482.344 179.814 479.573 176.609 476.108 176.609C471.691 176.609 468.486 181.199 468.313 189.081Z" fill="#21261A"/>
</svg>
