<svg width="220" height="67" viewBox="0 0 220 67" fill="none" xmlns="http://www.w3.org/2000/svg">
<path d="M212.3 58.9688C221.341 49.8775 221.3 35.1785 212.209 26.1375L192.836 6.87189C188.291 2.3514 182.343 0.101343 176.402 0.117815C170.46 0.134285 164.525 2.41728 160.005 6.9629C160.005 6.96292 160.005 6.96289 160.005 6.9629L140.739 26.3356C131.698 35.4269 131.739 50.1259 140.83 59.1669C149.921 68.2079 164.621 68.1672 173.661 59.0759L176.557 56.1644L179.468 59.0598C188.56 68.1008 203.259 68.06 212.3 58.9688Z" fill="#F2EEED"/>
<path fill-rule="evenodd" clip-rule="evenodd" d="M87.7768 0.291335C76.3732 0.355056 67.1415 9.65128 67.1572 21.055L67.1903 45.0926C67.1932 47.1653 67.5013 49.165 68.0721 51.0493C70.5935 59.5262 78.4594 65.6781 87.7638 65.6261L87.8667 65.6256L112.252 65.4895C123.58 65.4263 132.75 56.1923 132.734 44.8648C132.718 33.5374 123.523 24.4059 112.196 24.4691L108.458 24.4899L108.453 20.8243C108.438 9.42052 99.1803 0.227614 87.7768 0.291335Z" fill="#F2EEED"/>
<path d="M44.9808 65.8168C33.5774 65.8804 24.3202 56.6877 24.3044 45.2842L24.2994 41.6182L20.566 41.6381C9.23894 41.7011 0.0440878 32.5697 0.0284665 21.2424C0.0129142 9.915 9.1826 0.680911 20.5098 0.617637L44.9987 0.481312C54.5827 0.427901 62.6398 6.9568 64.9024 15.8288C65.334 17.4849 65.5652 19.2229 65.5677 21.0155L65.6006 45.0536C65.6161 56.4572 56.3842 65.7531 44.9808 65.8168Z" fill="#F2EEED"/>
</svg>
