<svg width="220" height="67" viewBox="0 0 220 67" fill="none" xmlns="http://www.w3.org/2000/svg">
<path d="M212.3 58.9687C221.341 49.8775 221.3 35.1784 212.209 26.1374L192.836 6.87183C188.291 2.35134 182.343 0.101282 176.402 0.117754C170.46 0.134224 164.525 2.41722 160.005 6.96284C160.005 6.96286 160.005 6.96283 160.005 6.96284L140.739 26.3355C131.698 35.4268 131.739 50.1259 140.83 59.1669C149.921 68.2078 164.621 68.1671 173.661 59.0759L176.557 56.1643L179.468 59.0597C188.56 68.1007 203.259 68.06 212.3 58.9687Z" fill="black"/>
<path fill-rule="evenodd" clip-rule="evenodd" d="M87.7579 0.257053C76.3648 0.301875 67.1469 9.57423 67.1691 20.9674L67.2163 45.1116C67.2216 47.8662 67.7666 50.4925 68.751 52.8909C71.8077 60.3838 79.1626 65.656 87.75 65.6598C87.7952 65.6599 87.8404 65.6599 87.8857 65.6597C87.9189 65.6596 87.9522 65.6594 87.9854 65.6591L112.198 65.5639C123.555 65.5192 132.744 56.2761 132.722 44.9188C132.7 33.5615 123.475 24.3908 112.118 24.4354L108.434 24.4499L108.427 20.8051C108.405 9.41192 99.1511 0.212227 87.7579 0.257053Z" fill="black"/>
<path d="M44.9992 65.8511C33.6062 65.8957 24.3525 56.6957 24.3302 45.3026L24.3231 41.6571L20.6444 41.6716C9.28721 41.7162 0.0622567 32.5455 0.0400697 21.1882C0.0179914 9.83117 9.20635 0.588636 20.5633 0.543731L44.9205 0.44771C54.3256 0.410885 62.2686 6.69346 64.7337 15.3043L64.7474 15.3521C65.2607 17.1449 65.5378 19.0382 65.5416 20.9964L65.5887 45.1409C65.6108 56.534 56.3923 65.8063 44.9992 65.8511Z" fill="black"/>
</svg>
