<svg width="504" height="169" viewBox="0 0 504 169" fill="none" xmlns="http://www.w3.org/2000/svg">
<path d="M378.365 43.1689H385.223V60.3532H388.293V43.1689H395.179V40.3768H378.365V43.1689Z" fill="white"/>
<path d="M398.439 60.3532H401.509V51.3725H412.096V60.3532H415.138V40.3768H412.096V48.6092H401.509V40.3768H398.439V60.3532Z" fill="white"/>
<path d="M419.551 60.3532H434.069V57.6187H422.621V51.4588H432.864V48.8107H422.621V43.0826H433.897V40.3768H419.551V60.3532Z" fill="white"/>
<path d="M380.087 87.1228H393.6V84.3307H383.157V67.1464H380.087V87.1228Z" fill="white"/>
<path d="M414.643 77.1346C414.643 70.9459 410.798 66.8297 404.917 66.8297C399.035 66.8297 395.19 70.9459 395.19 77.1346C395.19 83.3232 399.035 87.4394 404.917 87.4394C410.798 87.4394 414.643 83.3232 414.643 77.1346ZM411.429 77.1346C411.429 81.884 408.618 84.7912 404.917 84.7912C401.215 84.7912 398.432 81.884 398.432 77.1346C398.432 72.3851 401.215 69.4779 404.917 69.4779C408.618 69.4779 411.429 72.3851 411.429 77.1346Z" fill="white"/>
<path d="M419.262 67.1464H415.991L423.164 87.1228H427.066L434.325 67.1464H431.14L425.143 83.9565L419.262 67.1464Z" fill="white"/>
<path d="M437.414 87.1228H440.484V67.1464H437.414V87.1228Z" fill="white"/>
<path d="M445.455 87.1228H459.973V84.3882H448.525V78.2284H458.768V75.5802H448.525V69.8521H459.801V67.1464H445.455V87.1228Z" fill="white"/>
<path d="M394.49 113.892H397.732L389.899 93.9159H386.083L378.279 113.892H381.435L383.444 108.769H392.51L394.49 113.892ZM387.977 96.6504L391.592 106.149H384.362L387.977 96.6504Z" fill="white"/>
<path d="M419.809 113.892L425.059 93.9159H421.989L417.657 110.697L413.066 93.9159H409.394L404.803 110.668L400.499 93.9159H397.343L402.622 113.892H406.582L411.201 97.0534L415.849 113.892H419.809Z" fill="white"/>
<path d="M440.905 113.892H444.147L436.314 93.9159H432.498L424.694 113.892H427.85L429.858 108.769H438.925L440.905 113.892ZM434.392 96.6504L438.007 106.149H430.777L434.392 96.6504Z" fill="white"/>
<path d="M447.32 113.892H450.39V105.746H455.64L460.518 113.892H463.989L458.825 105.257C461.436 104.537 463.1 102.666 463.1 99.7591C463.1 95.9596 460.575 93.9159 456.013 93.9159H447.32V113.892ZM450.39 103.156V96.5065H455.726C458.337 96.5065 459.915 97.3988 459.915 99.8455C459.915 102.263 458.337 103.156 455.726 103.156H450.39Z" fill="white"/>
<path d="M484.907 103.904C484.907 98.0896 481.407 93.9159 474.922 93.9159H467.549V113.892H474.922C481.407 113.892 484.907 109.747 484.907 103.904ZM481.665 103.904C481.665 108.394 479.111 111.215 474.836 111.215H470.619V96.5929H474.836C479.111 96.5929 481.665 99.4137 481.665 103.904Z" fill="white"/>
<path d="M495.904 114.209C500.781 114.209 503.794 111.849 503.794 108.366C503.794 105.458 502.015 103.674 499.117 103.041L493.895 101.832C491.944 101.4 491.227 100.421 491.227 99.1547C491.227 97.37 493.006 96.1323 495.588 96.1323C498.084 96.1323 499.949 97.2261 500.15 99.7016H503.335C503.306 95.7581 499.892 93.5993 495.559 93.5993C491.313 93.5993 488.186 95.8732 488.186 99.2698C488.186 102.206 489.965 103.933 492.834 104.595L498.056 105.804C500.035 106.264 500.753 107.214 500.753 108.481C500.753 110.381 498.859 111.676 495.99 111.676C493.063 111.676 490.969 110.208 490.797 107.79H487.612C487.755 111.935 490.911 114.209 495.904 114.209Z" fill="white"/>
<path d="M341.432 85.023C354.468 71.915 354.409 50.7214 341.301 37.6859L313.369 9.9082C306.815 3.39042 298.239 0.146221 289.673 0.16997C281.107 0.193718 272.55 3.48541 266.032 10.0394C266.032 10.0394 266.032 10.0394 266.032 10.0394L238.254 37.9716C225.218 51.0796 225.277 72.2732 238.385 85.3087C251.493 98.3443 272.687 98.2856 285.722 85.1775L289.897 80.9795L294.095 85.1543C307.203 98.1898 328.397 98.1311 341.432 85.023Z" fill="white"/>
<path fill-rule="evenodd" clip-rule="evenodd" d="M161.824 0.336239C145.419 0.381714 132.156 13.718 132.201 30.1236L132.298 65.0825C132.344 81.4881 145.68 94.7506 162.086 94.7051C162.128 94.705 162.171 94.7048 162.213 94.7045L197.047 94.6079C213.452 94.5624 226.715 81.2262 226.669 64.8206C226.624 48.415 213.287 35.1525 196.882 35.198L191.626 35.2125L191.611 29.9589C191.566 13.5533 178.23 0.290763 161.824 0.336239Z" fill="white"/>
<path d="M100.251 94.9794C83.8456 95.0248 70.5093 81.7623 70.4638 65.3568L70.4492 60.102L65.2002 60.1165C48.7946 60.162 35.4584 46.8995 35.4129 30.4939C35.3676 14.0884 48.6301 0.752058 65.0355 0.706576L99.9944 0.609675C116.4 0.564203 129.736 13.8269 129.782 30.2323C129.782 30.3603 129.779 30.4885 129.778 30.6161L129.874 65.1921C129.919 81.5977 116.657 94.934 100.251 94.9794Z" fill="white"/>
<path d="M43.2148 10.4098L11.7559 36.7685L83.4984 118.157L138.36 73.2426L116.958 12.9548L43.2148 10.4098Z" fill="white"/>
<path d="M142.579 7.5708L107.916 36.7684L180.563 117.554L234.52 73.2426L192.018 42.1944L142.579 7.5708Z" fill="white"/>
<path d="M267.492 8.83252L234.52 36.7684L302.645 117.856L338.466 87.6922L318.621 42.1943L267.492 8.83252Z" fill="white"/>
<path d="M306.102 114.859C319.138 101.751 319.079 80.5576 305.971 67.5221L278.039 39.7444C271.485 33.2266 262.909 29.9824 254.343 30.0062C245.777 30.0299 237.219 33.3216 230.702 39.8756C230.702 39.8756 230.702 39.8756 230.702 39.8756L202.924 67.8077C189.888 80.9158 189.947 102.109 203.055 115.145C216.163 128.18 237.357 128.122 250.392 115.014L254.567 110.816L258.765 114.99C271.873 128.026 293.067 127.967 306.102 114.859Z" fill="#FF6000"/>
<path fill-rule="evenodd" clip-rule="evenodd" d="M126.494 30.1738C110.088 30.2192 96.8259 43.5555 96.8714 59.9611L96.9683 94.92C97.0138 111.326 110.35 124.588 126.756 124.543C126.798 124.542 126.841 124.542 126.883 124.542L161.717 124.445C178.122 124.4 191.385 111.064 191.339 94.6581C191.294 78.2525 177.957 64.99 161.552 65.0355L156.296 65.0501L156.281 59.7964C156.236 43.3908 142.9 30.1283 126.494 30.1738Z" fill="#FF6000"/>
<path d="M64.922 124.818C48.5164 124.864 35.1802 111.601 35.1347 95.1954L35.1201 89.9396L29.8701 89.9542C13.4646 89.9996 0.12844 76.737 0.0828345 60.3315C0.0373612 43.9259 13.2999 30.5897 29.7055 30.5442L64.6643 30.4473C81.0699 30.4019 94.4061 43.6644 94.4516 60.0699C94.4519 60.1723 94.4493 60.2745 94.4486 60.3766L94.5446 95.0308C94.5901 111.436 81.3274 124.772 64.922 124.818Z" fill="#FF6000"/>
<path d="M15.4614 156.686C15.4614 159.21 13.8398 160.313 11.1481 160.313H8.35617V164.643H6.56731V153.041H11.1481C13.8398 153.041 15.4614 154.144 15.4614 156.686ZM13.6057 156.686C13.6057 155.198 12.8534 154.546 11.0645 154.546H8.35617V158.809H11.0645C12.8534 158.809 13.6057 158.157 13.6057 156.686ZM29.1761 164.643V153.041H34.2418C36.9 153.041 38.3712 154.228 38.3712 156.435C38.3712 158.123 37.4015 159.21 35.8802 159.628L38.8895 164.643H36.8665L34.0244 159.912H30.965V164.643H29.1761ZM30.965 158.408H34.0746C35.596 158.408 36.5155 157.889 36.5155 156.485C36.5155 155.064 35.596 154.546 34.0746 154.546H30.965V158.408ZM52.6829 164.643V153.041H61.0421V154.612H54.4718V157.939H60.4402V159.477H54.4718V163.055H61.1424V164.643H52.6829ZM79.4056 164.827C76.4967 164.827 74.6576 163.507 74.5741 161.099H76.4298C76.5301 162.503 77.7505 163.356 79.4558 163.356C81.1276 163.356 82.231 162.604 82.231 161.5C82.231 160.765 81.8131 160.213 80.6595 159.946L77.6168 159.243C75.945 158.859 74.9084 157.856 74.9084 156.151C74.9084 154.178 76.7307 152.857 79.205 152.857C81.7295 152.857 83.7189 154.111 83.7357 156.401H81.8799C81.7629 154.964 80.6762 154.328 79.2217 154.328C77.7171 154.328 76.6806 155.047 76.6806 156.084C76.6806 156.819 77.0985 157.388 78.2354 157.638L81.2781 158.341C82.9666 158.708 84.0032 159.745 84.0032 161.434C84.0032 163.456 82.2477 164.827 79.4056 164.827ZM98.0149 164.643V153.041H106.374V154.612H99.8037V157.939H105.772V159.477H99.8037V163.055H106.474V164.643H98.0149ZM130.489 153.041V164.643H128.215L122.297 155.164V164.643H120.575V153.041H122.848L128.767 162.537V153.041H130.489ZM144.091 154.663V153.041H153.888V154.663H149.875V164.643H148.086V154.663H144.091ZM167.49 164.643V153.041H175.849V154.612H169.279V157.939H175.248V159.477H169.279V163.055H175.95V164.643H167.49ZM200.148 158.842C200.148 162.236 198.108 164.643 194.33 164.643H190.033V153.041H194.33C198.108 153.041 200.148 155.465 200.148 158.842ZM198.259 158.842C198.259 156.234 196.771 154.596 194.28 154.596H191.822V163.089H194.28C196.771 163.089 198.259 161.45 198.259 158.842ZM229.423 164.643V153.041H234.271C236.762 153.041 238.066 154.178 238.066 156.134C238.066 157.254 237.414 158.19 236.495 158.575C237.615 158.842 238.618 159.795 238.618 161.35C238.618 163.356 237.264 164.643 234.572 164.643H229.423ZM236.227 156.268C236.227 155.03 235.442 154.546 234.021 154.546H231.212V157.99H234.021C235.442 157.99 236.227 157.521 236.227 156.268ZM236.779 161.3C236.779 159.929 235.926 159.427 234.439 159.427H231.212V163.156H234.422C235.91 163.156 236.779 162.637 236.779 161.3ZM255.452 164.643V160.247L250.855 153.041H252.961L256.389 158.508L259.833 153.041H261.856L257.241 160.263V164.643H255.452ZM288.785 154.663V153.041H298.582V154.663H294.57V164.643H292.781V154.663H288.785ZM312.185 164.643V153.041H313.974V157.822H320.143V153.041H321.915V164.643H320.143V159.427H313.974V164.643H312.185ZM336.541 164.643V153.041H344.9V154.612H338.33V157.939H344.298V159.477H338.33V163.055H345V164.643H336.541ZM386.549 164.643H384.241L381.533 154.863L378.841 164.643H376.534L373.458 153.041H375.297L377.805 162.771L380.48 153.041H382.62L385.295 162.788L387.819 153.041H389.608L386.549 164.643ZM403.257 164.643V153.041H411.616V154.612H405.046V157.939H411.014V159.477H405.046V163.055H411.716V164.643H403.257ZM425.817 164.643V153.041H430.665C433.156 153.041 434.46 154.178 434.46 156.134C434.46 157.254 433.808 158.19 432.889 158.575C434.009 158.842 435.012 159.795 435.012 161.35C435.012 163.356 433.658 164.643 430.966 164.643H425.817ZM432.621 156.268C432.621 155.03 431.835 154.546 430.414 154.546H427.606V157.99H430.414C431.835 157.99 432.621 157.521 432.621 156.268ZM433.173 161.3C433.173 159.929 432.32 159.427 430.832 159.427H427.606V163.156H430.816C432.304 163.156 433.173 162.637 433.173 161.3ZM449.03 164.643V153.041H453.878C456.369 153.041 457.673 154.178 457.673 156.134C457.673 157.254 457.021 158.19 456.102 158.575C457.222 158.842 458.225 159.795 458.225 161.35C458.225 163.356 456.871 164.643 454.179 164.643H449.03ZM455.834 156.268C455.834 155.03 455.048 154.546 453.627 154.546H450.819V157.99H453.627C455.048 157.99 455.834 157.521 455.834 156.268ZM456.386 161.3C456.386 159.929 455.533 159.427 454.045 159.427H450.819V163.156H454.029C455.516 163.156 456.386 162.637 456.386 161.3ZM475.059 164.643V160.247L470.462 153.041H472.568L475.995 158.508L479.439 153.041H481.462L476.848 160.263V164.643H475.059ZM498.525 164.827C495.616 164.827 493.777 163.507 493.693 161.099H495.549C495.649 162.503 496.869 163.356 498.575 163.356C500.247 163.356 501.35 162.604 501.35 161.5C501.35 160.765 500.932 160.213 499.778 159.946L496.736 159.243C495.064 158.859 494.027 157.856 494.027 156.151C494.027 154.178 495.85 152.857 498.324 152.857C500.848 152.857 502.838 154.111 502.855 156.401H500.999C500.882 154.964 499.795 154.328 498.341 154.328C496.836 154.328 495.799 155.047 495.799 156.084C495.799 156.819 496.217 157.388 497.354 157.638L500.397 158.341C502.086 158.708 503.122 159.745 503.122 161.434C503.122 163.456 501.367 164.827 498.525 164.827Z" fill="white"/>
</svg>
