<svg width="364" height="352" viewBox="0 0 364 352" fill="none" xmlns="http://www.w3.org/2000/svg">
<path fill-rule="evenodd" clip-rule="evenodd" d="M286.026 258.396C328.989 258.277 363.721 223.352 363.602 180.39L363.35 89.5333C363.351 89.3007 363.352 89.0679 363.351 88.8348C363.232 45.8721 328.307 11.1405 285.344 11.2596L193.795 11.5133C150.832 11.6324 116.1 46.5571 116.219 89.5198C116.339 132.483 151.263 167.214 194.226 167.095L207.982 167.057L208.02 180.821C208.139 223.784 243.064 258.515 286.026 258.396Z" fill="black"/>
<path d="M39.2711 92.9079L156.443 21.172L335.289 240.613L242.06 323.123L39.2711 92.9079Z" fill="black"/>
<path fill-rule="evenodd" clip-rule="evenodd" d="M84.5904 78.8965C37.8742 78.8965 0.00333618 116.767 0.00332801 163.483L0.00331074 262.277C0.00108373 262.53 -3.21317e-05 262.784 -3.21962e-05 263.037C-4.24091e-05 309.753 37.8708 347.624 84.5869 347.624L184.135 347.624C230.851 347.624 268.722 309.753 268.722 263.037C268.722 216.321 230.851 178.45 184.135 178.45L169.177 178.45L169.177 163.484C169.177 116.767 131.306 78.8965 84.5904 78.8965Z" fill="#FF6000"/>
</svg>
